SplineFontDB: 3.0
FontName: Gelasio-BoldItalic
FullName: Gelasio Bold Italic
FamilyName: Gelasio
Weight: Bold
Copyright: Copyright (c) 2012, Sorkin Type Co (www.sorkintype.com) with Reserved Font Name 'Gelasio'
Version: 1.000
ItalicAngle: -8
UnderlinePosition: -137
UnderlineWidth: 106
Ascent: 1638
Descent: 410
sfntRevision: 0x00010000
LayerCount: 2
Layer: 0 1 "Back"  1
Layer: 1 1 "Fore"  0
XUID: [1021 631 1661839179 3084192]
FSType: 0
OS2Version: 3
OS2_WeightWidthSlopeOnly: 0
OS2_UseTypoMetrics: 1
CreationTime: 1353034860
ModificationTime: 1353584476
PfmFamily: 17
TTFWeight: 700
TTFWidth: 5
LineGap: 0
VLineGap: 0
Panose: 2 4 5 2 5 4 5 9 3 3
OS2TypoAscent: 1889
OS2TypoAOffset: 0
OS2TypoDescent: -671
OS2TypoDOffset: 0
OS2TypoLinegap: 0
OS2WinAscent: 1889
OS2WinAOffset: 0
OS2WinDescent: 671
OS2WinDOffset: 0
HheadAscent: 1889
HheadAOffset: 0
HheadDescent: -671
HheadDOffset: 0
OS2SubXSize: 1434
OS2SubYSize: 1331
OS2SubXOff: 35
OS2SubYOff: 155
OS2SupXSize: 1434
OS2SupYSize: 1331
OS2SupXOff: 125
OS2SupYOff: 542
OS2StrikeYSize: 136
OS2StrikeYPos: 564
OS2FamilyClass: 1027
OS2Vendor: 'STC '
OS2CodePages: 00000093.00000000
OS2UnicodeRanges: a00000ef.4000204a.00000000.00000000
Lookup: 1 0 0 "'aalt' Access All Alternates in Latin lookup 0"  {"'aalt' Access All Alternates in Latin lookup 0 subtable"  } ['aalt' ('DFLT' <'dflt' > 'latn' <'MOL ' 'ROM ' 'TRK ' 'dflt' > ) ]
Lookup: 6 0 0 "'ordn' Ordinals in Latin lookup 1"  {"'ordn' Ordinals in Latin lookup 1 contextual 0"  "'ordn' Ordinals in Latin lookup 1 contextual 1"  "'ordn' Ordinals in Latin lookup 1 contextual 2"  "'ordn' Ordinals in Latin lookup 1 contextual 3"  } ['ordn' ('latn' <'MOL ' 'ROM ' 'TRK ' 'dflt' > ) ]
Lookup: 1 0 0 "'locl' Localized Forms in Latin lookup 2"  {"'locl' Localized Forms in Latin lookup 2 subtable"  } ['locl' ('latn' <'AZE ' > ) ]
Lookup: 1 0 0 "'locl' Localized Forms in Latin lookup 3"  {"'locl' Localized Forms in Latin lookup 3 subtable"  } ['locl' ('latn' <'CRT ' > ) ]

StartChar: .notdef
Encoding: 65536 -1 0
Width: 2048
GlyphClass: 2
Flags: W
LayerCount: 2
Fore
SplineSet
246 1547 m 1,0,-1
 1802 1547 l 1,1,-1
 1802 0 l 1,2,-1
 246 0 l 1,3,-1
 246 1547 l 1,0,-1
1696 90 m 1,4,-1
 1696 1457 l 1,5,-1
 352 1457 l 1,6,-1
 352 90 l 1,7,-1
 1696 90 l 1,4,-1
936 767 m 1,8,-1
 571 1138 l 1,9,-1
 663 1224 l 1,10,-1
 1024 857 l 1,11,-1
 1385 1224 l 1,12,-1
 1477 1138 l 1,13,-1
 1112 767 l 1,14,-1
 1477 397 l 1,15,-1
 1385 312 l 1,16,-1
 1024 678 l 1,17,-1
 663 312 l 1,18,-1
 571 397 l 1,19,-1
 936 767 l 1,8,-1
EndSplineSet
EndChar

StartChar: exclam
Encoding: 33 33 3
Width: 770
GlyphClass: 2
Flags: W
LayerCount: 2
Fore
SplineSet
300 472 m 1,0,1
 306 681 306 681 303 833 c 128,-1,2
 300 985 300 985 296.5 1093 c 128,-1,3
 293 1201 293 1201 293 1272 c 128,-1,4
 293 1343 293 1343 304 1389 c 0,5,6
 311 1418 311 1418 327.5 1443.5 c 128,-1,7
 344 1469 344 1469 368.5 1487.5 c 128,-1,8
 393 1506 393 1506 425 1517 c 128,-1,9
 457 1528 457 1528 494 1528 c 0,10,11
 575 1528 575 1528 620.5 1488.5 c 128,-1,12
 666 1449 666 1449 666 1389 c 0,13,14
 666 1343 666 1343 645 1272 c 128,-1,15
 624 1201 624 1201 587.5 1093 c 128,-1,16
 551 985 551 985 502.5 833 c 128,-1,17
 454 681 454 681 400 472 c 1,18,-1
 300 472 l 1,0,1
126 163 m 0,19,20
 126 198 126 198 140 233.5 c 128,-1,21
 154 269 154 269 179.5 298 c 128,-1,22
 205 327 205 327 241 345.5 c 128,-1,23
 277 364 277 364 321 364 c 0,24,25
 361 364 361 364 393 350.5 c 128,-1,26
 425 337 425 337 447 313 c 128,-1,27
 469 289 469 289 480.5 257 c 128,-1,28
 492 225 492 225 492 188 c 0,29,30
 492 146 492 146 476.5 108.5 c 128,-1,31
 461 71 461 71 434.5 42.5 c 128,-1,32
 408 14 408 14 372 -3 c 128,-1,33
 336 -20 336 -20 295 -20 c 256,34,35
 254 -20 254 -20 223 -5.5 c 128,-1,36
 192 9 192 9 170 34 c 128,-1,37
 148 59 148 59 137 92 c 128,-1,38
 126 125 126 125 126 163 c 0,19,20
EndSplineSet
EndChar

StartChar: numbersign
Encoding: 35 35 5
Width: 1440
GlyphClass: 2
Flags: W
LayerCount: 2
Fore
SplineSet
367 420 m 1,0,-1
 133 420 l 1,1,-1
 148 526 l 1,2,-1
 402 526 l 1,3,-1
 532 900 l 1,4,-1
 258 900 l 1,5,-1
 274 1006 l 1,6,-1
 568 1006 l 1,7,-1
 712 1419 l 1,8,-1
 839 1419 l 1,9,-1
 694 1006 l 1,10,-1
 985 1006 l 1,11,-1
 1129 1419 l 1,12,-1
 1256 1419 l 1,13,-1
 1111 1006 l 1,14,-1
 1344 1006 l 1,15,-1
 1328 900 l 1,16,-1
 1075 900 l 1,17,-1
 944 526 l 1,18,-1
 1198 526 l 1,19,-1
 1183 420 l 1,20,-1
 909 420 l 1,21,-1
 764 0 l 1,22,-1
 639 0 l 1,23,-1
 784 420 l 1,24,-1
 492 420 l 1,25,-1
 347 0 l 1,26,-1
 222 0 l 1,27,-1
 367 420 l 1,0,-1
819 526 m 1,28,-1
 949 900 l 1,29,-1
 658 900 l 1,30,-1
 527 526 l 1,31,-1
 819 526 l 1,28,-1
EndSplineSet
EndChar

StartChar: dollar
Encoding: 36 36 6
Width: 1313
GlyphClass: 2
Flags: W
LayerCount: 2
Fore
SplineSet
489 -238 m 1,0,-1
 519 -21 l 1,1,2
 436 -9 436 -9 384 11.5 c 128,-1,3
 332 32 332 32 306 41 c 1,4,5
 292 47 292 47 281.5 54 c 128,-1,6
 271 61 271 61 262 67 c 128,-1,7
 253 73 253 73 245 77.5 c 128,-1,8
 237 82 237 82 229 82 c 0,9,10
 222 82 222 82 214 78.5 c 128,-1,11
 206 75 206 75 196 65 c 0,12,13
 173 43 173 43 151 33.5 c 128,-1,14
 129 24 129 24 111 24 c 0,15,16
 88 24 88 24 74 37.5 c 128,-1,17
 60 51 60 51 65 72 c 0,18,19
 76 125 76 125 82.5 181 c 128,-1,20
 89 237 89 237 93 288.5 c 128,-1,21
 97 340 97 340 98.5 384 c 128,-1,22
 100 428 100 428 101 458 c 0,23,24
 102 490 102 490 123.5 505 c 128,-1,25
 145 520 145 520 169 520 c 0,26,27
 190 520 190 520 206 509.5 c 128,-1,28
 222 499 222 499 224 478 c 0,29,30
 225 465 225 465 225.5 451 c 128,-1,31
 226 437 226 437 229.5 416.5 c 128,-1,32
 233 396 233 396 240.5 366.5 c 128,-1,33
 248 337 248 337 262 294 c 1,34,35
 284 237 284 237 325.5 193 c 128,-1,36
 367 149 367 149 417.5 119 c 128,-1,37
 468 89 468 89 520.5 74 c 128,-1,38
 573 59 573 59 617 59 c 0,39,40
 662 59 662 59 709.5 64 c 128,-1,41
 757 69 757 69 796 88.5 c 128,-1,42
 835 108 835 108 860 146.5 c 128,-1,43
 885 185 885 185 885 251 c 0,44,45
 885 299 885 299 856 340 c 128,-1,46
 827 381 827 381 780 418 c 128,-1,47
 733 455 733 455 673 488.5 c 128,-1,48
 613 522 613 522 551 556 c 0,49,50
 494 587 494 587 435 629 c 128,-1,51
 376 671 376 671 328 723.5 c 128,-1,52
 280 776 280 776 249 838 c 128,-1,53
 218 900 218 900 218 972 c 0,54,55
 218 1065 218 1065 258.5 1133 c 128,-1,56
 299 1201 299 1201 368.5 1246 c 128,-1,57
 438 1291 438 1291 531 1315.5 c 128,-1,58
 624 1340 624 1340 730 1346 c 1,59,-1
 759 1548 l 1,60,-1
 875 1548 l 1,61,-1
 847 1348 l 1,62,63
 884 1345 884 1345 915 1338 c 128,-1,64
 946 1331 946 1331 971 1323.5 c 128,-1,65
 996 1316 996 1316 1014 1309.5 c 128,-1,66
 1032 1303 1032 1303 1044 1301 c 0,67,68
 1064 1297 1064 1297 1076.5 1298.5 c 128,-1,69
 1089 1300 1089 1300 1098 1304 c 128,-1,70
 1107 1308 1107 1308 1114 1314 c 128,-1,71
 1121 1320 1121 1320 1130 1325 c 0,72,73
 1141 1332 1141 1332 1160 1332 c 0,74,75
 1172 1332 1172 1332 1184 1329 c 128,-1,76
 1196 1326 1196 1326 1206 1320.5 c 128,-1,77
 1216 1315 1216 1315 1221.5 1308 c 128,-1,78
 1227 1301 1227 1301 1226 1294 c 0,79,80
 1225 1285 1225 1285 1222.5 1253 c 128,-1,81
 1220 1221 1220 1221 1217.5 1178.5 c 128,-1,82
 1215 1136 1215 1136 1213 1088.5 c 128,-1,83
 1211 1041 1211 1041 1210 1000 c 0,84,85
 1210 959 1210 959 1197.5 943.5 c 128,-1,86
 1185 928 1185 928 1160 928 c 0,87,88
 1140 928 1140 928 1125 935 c 128,-1,89
 1110 942 1110 942 1108 951 c 0,90,91
 1093 1031 1093 1031 1063.5 1091 c 128,-1,92
 1034 1151 1034 1151 992.5 1190.5 c 128,-1,93
 951 1230 951 1230 899.5 1250 c 128,-1,94
 848 1270 848 1270 790 1270 c 0,95,96
 722 1270 722 1270 675 1256 c 128,-1,97
 628 1242 628 1242 598 1215.5 c 128,-1,98
 568 1189 568 1189 554.5 1152 c 128,-1,99
 541 1115 541 1115 541 1069 c 0,100,101
 541 1034 541 1034 556 1004 c 128,-1,102
 571 974 571 974 596.5 948 c 128,-1,103
 622 922 622 922 655.5 898.5 c 128,-1,104
 689 875 689 875 726.5 853 c 128,-1,105
 764 831 764 831 802.5 809.5 c 128,-1,106
 841 788 841 788 877 765 c 0,107,108
 941 726 941 726 1001 684 c 128,-1,109
 1061 642 1061 642 1107 594.5 c 128,-1,110
 1153 547 1153 547 1181 492.5 c 128,-1,111
 1209 438 1209 438 1209 373 c 0,112,113
 1209 278 1209 278 1169 203 c 128,-1,114
 1129 128 1129 128 1055.5 76 c 128,-1,115
 982 24 982 24 876.5 -3 c 128,-1,116
 771 -30 771 -30 641 -30 c 2,117,-1
 634 -30 l 1,118,-1
 605 -238 l 1,119,-1
 489 -238 l 1,0,-1
EndSplineSet
EndChar

StartChar: percent
Encoding: 37 37 7
Width: 1800
GlyphClass: 2
Flags: W
LayerCount: 2
Fore
SplineSet
396 711 m 0,0,1
 313 711 313 711 247 732.5 c 128,-1,2
 181 754 181 754 135.5 794.5 c 128,-1,3
 90 835 90 835 66 893 c 128,-1,4
 42 951 42 951 42 1023 c 0,5,6
 42 1111 42 1111 77.5 1188.5 c 128,-1,7
 113 1266 113 1266 175 1324 c 128,-1,8
 237 1382 237 1382 321.5 1415.5 c 128,-1,9
 406 1449 406 1449 504 1449 c 0,10,11
 589 1449 589 1449 656.5 1427 c 128,-1,12
 724 1405 724 1405 770.5 1363.5 c 128,-1,13
 817 1322 817 1322 841.5 1263 c 128,-1,14
 866 1204 866 1204 866 1130 c 0,15,16
 866 1041 866 1041 830 964 c 128,-1,17
 794 887 794 887 730.5 831 c 128,-1,18
 667 775 667 775 581 743 c 128,-1,19
 495 711 495 711 396 711 c 0,0,1
409 788 m 0,20,21
 455 788 455 788 489.5 806.5 c 128,-1,22
 524 825 524 825 548.5 856 c 128,-1,23
 573 887 573 887 588.5 927 c 128,-1,24
 604 967 604 967 612.5 1009.5 c 128,-1,25
 621 1052 621 1052 624.5 1093.5 c 128,-1,26
 628 1135 628 1135 628 1170 c 0,27,28
 628 1273 628 1273 595 1322.5 c 128,-1,29
 562 1372 562 1372 488 1372 c 0,30,31
 430 1372 430 1372 388.5 1338 c 128,-1,32
 347 1304 347 1304 320.5 1249.5 c 128,-1,33
 294 1195 294 1195 281.5 1125.5 c 128,-1,34
 269 1056 269 1056 269 984 c 0,35,36
 269 884 269 884 301.5 836 c 128,-1,37
 334 788 334 788 409 788 c 0,20,21
1279 -28 m 0,38,39
 1196 -28 1196 -28 1130 -6.5 c 128,-1,40
 1064 15 1064 15 1018.5 55.5 c 128,-1,41
 973 96 973 96 949 154 c 128,-1,42
 925 212 925 212 925 284 c 0,43,44
 925 372 925 372 960.5 449.5 c 128,-1,45
 996 527 996 527 1058 585 c 128,-1,46
 1120 643 1120 643 1204.5 676.5 c 128,-1,47
 1289 710 1289 710 1387 710 c 0,48,49
 1472 710 1472 710 1539.5 688 c 128,-1,50
 1607 666 1607 666 1653.5 624.5 c 128,-1,51
 1700 583 1700 583 1724.5 524 c 128,-1,52
 1749 465 1749 465 1749 391 c 0,53,54
 1749 302 1749 302 1713 225 c 128,-1,55
 1677 148 1677 148 1613.5 92 c 128,-1,56
 1550 36 1550 36 1464 4 c 128,-1,57
 1378 -28 1378 -28 1279 -28 c 0,38,39
1292 49 m 0,58,59
 1339 49 1339 49 1373 67.5 c 128,-1,60
 1407 86 1407 86 1431.5 117 c 128,-1,61
 1456 148 1456 148 1471.5 188 c 128,-1,62
 1487 228 1487 228 1495.5 270.5 c 128,-1,63
 1504 313 1504 313 1507.5 354.5 c 128,-1,64
 1511 396 1511 396 1511 431 c 0,65,66
 1511 534 1511 534 1478 583.5 c 128,-1,67
 1445 633 1445 633 1371 633 c 0,68,69
 1313 633 1313 633 1271.5 599 c 128,-1,70
 1230 565 1230 565 1203.5 510.5 c 128,-1,71
 1177 456 1177 456 1164.5 386.5 c 128,-1,72
 1152 317 1152 317 1152 245 c 0,73,74
 1152 145 1152 145 1184.5 97 c 128,-1,75
 1217 49 1217 49 1292 49 c 0,58,59
358 0 m 1,76,-1
 1254 1419 l 1,77,-1
 1401 1419 l 1,78,-1
 503 0 l 1,79,-1
 358 0 l 1,76,-1
EndSplineSet
Ligature2: "'frac' Diagonal Fractions in Latin lookup 11 subtable" zero slash zero
EndChar

StartChar: ampersand
Encoding: 38 38 8
Width: 1636
GlyphClass: 2
Flags: W
LayerCount: 2
Fore
SplineSet
1456 741 m 1,0,1
 1430 703 1430 703 1405 662.5 c 128,-1,2
 1380 622 1380 622 1351 575 c 128,-1,3
 1322 528 1322 528 1286 474 c 128,-1,4
 1250 420 1250 420 1201 357 c 1,5,6
 1243 306 1243 306 1275 268 c 128,-1,7
 1307 230 1307 230 1323 212 c 0,8,9
 1339 193 1339 193 1362 171 c 128,-1,10
 1385 149 1385 149 1413 129.5 c 128,-1,11
 1441 110 1441 110 1473 95.5 c 128,-1,12
 1505 81 1505 81 1539 78 c 0,13,14
 1560 76 1560 76 1566.5 70 c 128,-1,15
 1573 64 1573 64 1570 41 c 0,16,17
 1568 26 1568 26 1558 13 c 128,-1,18
 1548 0 1548 0 1531 0 c 2,19,-1
 1064 0 l 1,20,21
 1062 1 1062 1 1053 12 c 128,-1,22
 1044 23 1044 23 1028.5 41.5 c 128,-1,23
 1013 60 1013 60 993 85 c 128,-1,24
 973 110 973 110 949 139 c 1,25,26
 903 101 903 101 851 68.5 c 128,-1,27
 799 36 799 36 743 12 c 128,-1,28
 687 -12 687 -12 626 -25.5 c 128,-1,29
 565 -39 565 -39 501 -39 c 0,30,31
 381 -39 381 -39 294.5 -13.5 c 128,-1,32
 208 12 208 12 152 55 c 128,-1,33
 96 98 96 98 69.5 154 c 128,-1,34
 43 210 43 210 43 270 c 0,35,36
 43 357 43 357 75 426 c 128,-1,37
 107 495 107 495 164 552.5 c 128,-1,38
 221 610 221 610 299 658.5 c 128,-1,39
 377 707 377 707 469 753 c 1,40,41
 442 788 442 788 418.5 824.5 c 128,-1,42
 395 861 395 861 377 900.5 c 128,-1,43
 359 940 359 940 348.5 983 c 128,-1,44
 338 1026 338 1026 338 1073 c 0,45,46
 338 1171 338 1171 384 1243.5 c 128,-1,47
 430 1316 430 1316 504.5 1363.5 c 128,-1,48
 579 1411 579 1411 673 1434.5 c 128,-1,49
 767 1458 767 1458 864 1458 c 0,50,51
 944 1458 944 1458 1007 1442 c 128,-1,52
 1070 1426 1070 1426 1113 1396 c 128,-1,53
 1156 1366 1156 1366 1178.5 1324.5 c 128,-1,54
 1201 1283 1201 1283 1201 1232 c 0,55,56
 1201 1163 1201 1163 1166 1101.5 c 128,-1,57
 1131 1040 1131 1040 1077 987 c 128,-1,58
 1023 934 1023 934 957.5 889.5 c 128,-1,59
 892 845 892 845 831 811 c 1,60,61
 861 773 861 773 897 728.5 c 128,-1,62
 933 684 933 684 971.5 636.5 c 128,-1,63
 1010 589 1010 589 1050 540.5 c 128,-1,64
 1090 492 1090 492 1128 446 c 1,65,66
 1175 507 1175 507 1205.5 560.5 c 128,-1,67
 1236 614 1236 614 1254 654 c 128,-1,68
 1272 694 1272 694 1280 718.5 c 128,-1,69
 1288 743 1288 743 1290 748 c 0,70,71
 1299 768 1299 768 1289 781 c 128,-1,72
 1279 794 1279 794 1260 801.5 c 128,-1,73
 1241 809 1241 809 1219 812.5 c 128,-1,74
 1197 816 1197 816 1181 818 c 0,75,76
 1161 820 1161 820 1157.5 829.5 c 128,-1,77
 1154 839 1154 839 1156 855 c 0,78,79
 1158 870 1158 870 1168 883 c 128,-1,80
 1178 896 1178 896 1195 896 c 2,81,-1
 1648 896 l 2,82,83
 1665 896 1665 896 1672 883 c 128,-1,84
 1679 870 1679 870 1677 855 c 0,85,86
 1671 818 1671 818 1638 818 c 0,87,88
 1612 818 1612 818 1586 813 c 128,-1,89
 1560 808 1560 808 1536 798 c 128,-1,90
 1512 788 1512 788 1491.5 774 c 128,-1,91
 1471 760 1471 760 1456 741 c 1,0,1
583 131 m 0,92,93
 661 131 661 131 733.5 150 c 128,-1,94
 806 169 806 169 883 221 c 1,95,96
 842 271 842 271 800 324 c 128,-1,97
 758 377 758 377 720 426 c 128,-1,98
 682 475 682 475 650.5 516.5 c 128,-1,99
 619 558 619 558 600 585 c 0,100,101
 590 599 590 599 580 612 c 128,-1,102
 570 625 570 625 559 639 c 1,103,104
 524 609 524 609 494 576 c 128,-1,105
 464 543 464 543 442 504.5 c 128,-1,106
 420 466 420 466 407.5 423 c 128,-1,107
 395 380 395 380 395 331 c 0,108,109
 395 289 395 289 407.5 252.5 c 128,-1,110
 420 216 420 216 444 189 c 128,-1,111
 468 162 468 162 503 146.5 c 128,-1,112
 538 131 538 131 583 131 c 0,92,93
767 892 m 1,113,114
 827 921 827 921 866 961 c 128,-1,115
 905 1001 905 1001 929 1043.5 c 128,-1,116
 953 1086 953 1086 964 1125.5 c 128,-1,117
 975 1165 975 1165 979 1192 c 0,118,119
 982 1217 982 1217 978.5 1248 c 128,-1,120
 975 1279 975 1279 962.5 1306 c 128,-1,121
 950 1333 950 1333 928.5 1351 c 128,-1,122
 907 1369 907 1369 875 1369 c 0,123,124
 766 1369 766 1369 715 1315.5 c 128,-1,125
 664 1262 664 1262 664 1152 c 0,126,127
 664 1104 664 1104 680 1048 c 128,-1,128
 696 992 696 992 741 928 c 2,129,-1
 767 892 l 1,113,114
EndSplineSet
EndChar

StartChar: quotesingle
Encoding: 39 39 9
Width: 551
GlyphClass: 2
Flags: W
LayerCount: 2
Fore
SplineSet
291 967 m 1,0,1
 292 1012 292 1012 289.5 1066.5 c 128,-1,2
 287 1121 287 1121 283.5 1177 c 128,-1,3
 280 1233 280 1233 276 1288 c 128,-1,4
 272 1343 272 1343 268.5 1389.5 c 128,-1,5
 265 1436 265 1436 262.5 1471 c 128,-1,6
 260 1506 260 1506 261 1522 c 0,7,8
 263 1556 263 1556 276 1585 c 128,-1,9
 289 1614 289 1614 311.5 1635.5 c 128,-1,10
 334 1657 334 1657 364.5 1669 c 128,-1,11
 395 1681 395 1681 432 1681 c 0,12,13
 471 1681 471 1681 498.5 1669 c 128,-1,14
 526 1657 526 1657 542.5 1635.5 c 128,-1,15
 559 1614 559 1614 564 1585 c 128,-1,16
 569 1556 569 1556 563 1522 c 0,17,18
 560 1506 560 1506 549 1471 c 128,-1,19
 538 1436 538 1436 521.5 1389.5 c 128,-1,20
 505 1343 505 1343 485.5 1288 c 128,-1,21
 466 1233 466 1233 445.5 1177 c 128,-1,22
 425 1121 425 1121 405.5 1066.5 c 128,-1,23
 386 1012 386 1012 371 967 c 1,24,-1
 291 967 l 1,25,-1
 291 967 l 1,0,1
EndSplineSet
EndChar

StartChar: parenleft
Encoding: 40 40 10
Width: 915
GlyphClass: 2
Flags: W
LayerCount: 2
Fore
SplineSet
145 512 m 0,0,1
 145 657 145 657 176 791.5 c 128,-1,2
 207 926 207 926 262.5 1043 c 128,-1,3
 318 1160 318 1160 395.5 1256 c 128,-1,4
 473 1352 473 1352 566.5 1419 c 128,-1,5
 660 1486 660 1486 766.5 1520.5 c 128,-1,6
 873 1555 873 1555 987 1550 c 1,7,-1
 951 1463 l 1,8,9
 878 1451 878 1451 811.5 1408 c 128,-1,10
 745 1365 745 1365 687 1297 c 128,-1,11
 629 1229 629 1229 582 1137.5 c 128,-1,12
 535 1046 535 1046 501.5 937.5 c 128,-1,13
 468 829 468 829 449.5 704.5 c 128,-1,14
 431 580 431 580 431 446 c 0,15,16
 431 361 431 361 437 263 c 128,-1,17
 443 165 443 165 463 69 c 128,-1,18
 483 -27 483 -27 520.5 -112 c 128,-1,19
 558 -197 558 -197 621 -257 c 1,20,-1
 606 -340 l 1,21,22
 520 -323 520 -323 437.5 -258 c 128,-1,23
 355 -193 355 -193 290 -84.5 c 128,-1,24
 225 24 225 24 185 174.5 c 128,-1,25
 145 325 145 325 145 512 c 0,0,1
EndSplineSet
EndChar

StartChar: asterisk
Encoding: 42 42 12
Width: 987
GlyphClass: 2
Flags: W
LayerCount: 2
Fore
SplineSet
336 866 m 0,0,1
 374 896 374 896 411.5 925.5 c 128,-1,2
 449 955 449 955 473 976 c 1,3,4
 449 979 449 979 402.5 980 c 128,-1,5
 356 981 356 981 306.5 982 c 128,-1,6
 257 983 257 983 215 985 c 128,-1,7
 173 987 173 987 157 993 c 0,8,9
 117 1007 117 1007 93 1036.5 c 128,-1,10
 69 1066 69 1066 75 1108 c 0,11,12
 79 1136 79 1136 92.5 1158 c 128,-1,13
 106 1180 106 1180 125 1195 c 128,-1,14
 144 1210 144 1210 166 1217.5 c 128,-1,15
 188 1225 188 1225 210 1225 c 0,16,17
 223 1225 223 1225 235 1223 c 128,-1,18
 247 1221 247 1221 260 1216 c 0,19,20
 275 1210 275 1210 306.5 1188.5 c 128,-1,21
 338 1167 338 1167 375 1141.5 c 128,-1,22
 412 1116 412 1116 448 1091.5 c 128,-1,23
 484 1067 484 1067 508 1054 c 1,24,25
 507 1076 507 1076 504.5 1107 c 128,-1,26
 502 1138 502 1138 498.5 1172 c 128,-1,27
 495 1206 495 1206 491 1240.5 c 128,-1,28
 487 1275 487 1275 484 1304.5 c 128,-1,29
 481 1334 481 1334 479.5 1355.5 c 128,-1,30
 478 1377 478 1377 479 1385 c 0,31,32
 487 1443 487 1443 522 1482 c 128,-1,33
 557 1521 557 1521 616 1521 c 0,34,35
 673 1521 673 1521 698 1482 c 128,-1,36
 723 1443 723 1443 715 1385 c 0,37,38
 713 1375 713 1375 704.5 1350.5 c 128,-1,39
 696 1326 696 1326 683 1294 c 128,-1,40
 670 1262 670 1262 655.5 1226 c 128,-1,41
 641 1190 641 1190 628 1157 c 128,-1,42
 615 1124 615 1124 605 1096.5 c 128,-1,43
 595 1069 595 1069 592 1054 c 1,44,45
 619 1068 619 1068 658.5 1090 c 128,-1,46
 698 1112 698 1112 740 1137 c 0,47,48
 794 1168 794 1168 825.5 1185.5 c 128,-1,49
 857 1203 857 1203 876.5 1212 c 128,-1,50
 896 1221 896 1221 909 1223 c 128,-1,51
 922 1225 922 1225 938 1225 c 0,52,53
 960 1225 960 1225 980 1217.5 c 128,-1,54
 1000 1210 1000 1210 1014 1195 c 128,-1,55
 1028 1180 1028 1180 1035 1157.5 c 128,-1,56
 1042 1135 1042 1135 1038 1105 c 0,57,58
 1032 1064 1032 1064 1000 1035 c 128,-1,59
 968 1006 968 1006 923 993 c 0,60,61
 903 987 903 987 860.5 985 c 128,-1,62
 818 983 818 983 770 982.5 c 128,-1,63
 722 982 722 982 677 981 c 128,-1,64
 632 980 632 980 606 976 c 1,65,66
 633 944 633 944 675 907.5 c 128,-1,67
 717 871 717 871 755.5 830.5 c 128,-1,68
 794 790 794 790 819.5 747.5 c 128,-1,69
 845 705 845 705 839 662 c 0,70,71
 836 640 836 640 824 619.5 c 128,-1,72
 812 599 812 599 795 583.5 c 128,-1,73
 778 568 778 568 756.5 558.5 c 128,-1,74
 735 549 735 549 711 549 c 0,75,76
 680 549 680 549 653 566 c 128,-1,77
 626 583 626 583 610 612 c 0,78,79
 605 620 605 620 599 642 c 128,-1,80
 593 664 593 664 586 694 c 128,-1,81
 579 724 579 724 571.5 758.5 c 128,-1,82
 564 793 564 793 556.5 825.5 c 128,-1,83
 549 858 549 858 543 885 c 128,-1,84
 537 912 537 912 532 928 c 1,85,86
 523 912 523 912 509 884.5 c 128,-1,87
 495 857 495 857 478.5 824.5 c 128,-1,88
 462 792 462 792 445 758 c 128,-1,89
 428 724 428 724 412.5 694 c 128,-1,90
 397 664 397 664 385 642 c 128,-1,91
 373 620 373 620 366 612 c 0,92,93
 340 582 340 582 309 565 c 128,-1,94
 278 548 278 548 248 548 c 0,95,96
 226 548 226 548 206.5 556.5 c 128,-1,97
 187 565 187 565 173.5 580.5 c 128,-1,98
 160 596 160 596 153.5 617 c 128,-1,99
 147 638 147 638 151 662 c 0,100,101
 154 684 154 684 165 706.5 c 128,-1,102
 176 729 176 729 193 748 c 0,103,104
 198 754 198 754 212 766 c 128,-1,105
 226 778 226 778 245.5 794 c 128,-1,106
 265 810 265 810 288.5 828.5 c 128,-1,107
 312 847 312 847 336 866 c 0,0,1
EndSplineSet
EndChar

StartChar: plus
Encoding: 43 43 13
Width: 1440
GlyphClass: 2
Flags: W
LayerCount: 2
Fore
SplineSet
240 647 m 1,0,-1
 642 647 l 1,1,-1
 642 1062 l 1,2,-1
 808 1062 l 1,3,-1
 808 647 l 1,4,-1
 1210 647 l 1,5,-1
 1210 501 l 1,6,-1
 808 501 l 1,7,-1
 808 75 l 1,8,-1
 642 75 l 1,9,-1
 642 501 l 1,10,-1
 240 501 l 1,11,-1
 240 647 l 1,0,-1
EndSplineSet
EndChar

StartChar: comma
Encoding: 44 44 14
Width: 672
GlyphClass: 2
Flags: W
LayerCount: 2
Fore
SplineSet
92 162 m 0,0,1
 92 210 92 210 109 246 c 128,-1,2
 126 282 126 282 154.5 306.5 c 128,-1,3
 183 331 183 331 220 343.5 c 128,-1,4
 257 356 257 356 298 356 c 256,5,6
 339 356 339 356 370.5 340.5 c 128,-1,7
 402 325 402 325 424 296.5 c 128,-1,8
 446 268 446 268 457 228 c 128,-1,9
 468 188 468 188 468 139 c 256,10,11
 468 90 468 90 451 37 c 128,-1,12
 434 -16 434 -16 406.5 -68 c 128,-1,13
 379 -120 379 -120 345 -168 c 128,-1,14
 311 -216 311 -216 278 -254 c 128,-1,15
 245 -292 245 -292 216 -318 c 128,-1,16
 187 -344 187 -344 169 -352 c 0,17,18
 162 -355 162 -355 155 -357.5 c 128,-1,19
 148 -360 148 -360 141 -360 c 0,20,21
 103 -360 103 -360 85 -347 c 128,-1,22
 67 -334 67 -334 67 -320 c 0,23,24
 67 -303 67 -303 97 -271 c 1,25,26
 127 -241 127 -241 145.5 -204.5 c 128,-1,27
 164 -168 164 -168 174.5 -132.5 c 128,-1,28
 185 -97 185 -97 189 -66.5 c 128,-1,29
 193 -36 193 -36 193 -17 c 2,30,-1
 193 -7 l 1,31,32
 192 -1 192 -1 176 7 c 128,-1,33
 160 15 160 15 141.5 33 c 128,-1,34
 123 51 123 51 107.5 81.5 c 128,-1,35
 92 112 92 112 92 162 c 0,0,1
EndSplineSet
EndChar

StartChar: hyphen
Encoding: 45 45 15
Width: 776
GlyphClass: 2
Flags: W
LayerCount: 2
Fore
SplineSet
115 622 m 1,0,-1
 672 622 l 1,1,-1
 654 496 l 1,2,-1
 97 496 l 1,3,-1
 115 622 l 1,0,-1
EndSplineSet
EndChar

StartChar: period
Encoding: 46 46 16
Width: 672
GlyphClass: 2
Flags: W
LayerCount: 2
Fore
SplineSet
116 163 m 0,0,1
 116 202 116 202 130 238 c 128,-1,2
 144 274 144 274 169.5 302 c 128,-1,3
 195 330 195 330 231 347 c 128,-1,4
 267 364 267 364 311 364 c 0,5,6
 351 364 351 364 383 350.5 c 128,-1,7
 415 337 415 337 437 313 c 128,-1,8
 459 289 459 289 470.5 257 c 128,-1,9
 482 225 482 225 482 188 c 0,10,11
 482 146 482 146 466.5 108.5 c 128,-1,12
 451 71 451 71 424.5 42.5 c 128,-1,13
 398 14 398 14 362 -3 c 128,-1,14
 326 -20 326 -20 285 -20 c 256,15,16
 244 -20 244 -20 213 -5.5 c 128,-1,17
 182 9 182 9 160 34 c 128,-1,18
 138 59 138 59 127 92 c 128,-1,19
 116 125 116 125 116 163 c 0,0,1
EndSplineSet
EndChar

StartChar: slash
Encoding: 47 47 17
Width: 967
GlyphClass: 2
Flags: W
LayerCount: 2
Fore
SplineSet
861 1547 m 1,0,-1
 998 1547 l 1,1,-1
 125 -340 l 1,2,-1
 -10 -340 l 1,3,-1
 861 1547 l 1,0,-1
EndSplineSet
EndChar

StartChar: zero
Encoding: 48 48 18
Width: 1436
GlyphClass: 2
Flags: W
LayerCount: 2
Fore
SplineSet
130 467 m 0,0,1
 128 561 128 561 147 652.5 c 128,-1,2
 166 744 166 744 205.5 826 c 128,-1,3
 245 908 245 908 303.5 977.5 c 128,-1,4
 362 1047 362 1047 438 1097.5 c 128,-1,5
 514 1148 514 1148 607.5 1176.5 c 128,-1,6
 701 1205 701 1205 810 1205 c 0,7,8
 935 1205 935 1205 1029 1172 c 128,-1,9
 1123 1139 1123 1139 1186.5 1077.5 c 128,-1,10
 1250 1016 1250 1016 1283 927.5 c 128,-1,11
 1316 839 1316 839 1318 727 c 0,12,13
 1321 580 1321 580 1277.5 443.5 c 128,-1,14
 1234 307 1234 307 1148 202 c 128,-1,15
 1062 97 1062 97 934.5 34 c 128,-1,16
 807 -29 807 -29 644 -29 c 0,17,18
 520 -29 520 -29 425 5 c 128,-1,19
 330 39 330 39 265.5 103.5 c 128,-1,20
 201 168 201 168 166.5 259.5 c 128,-1,21
 132 351 132 351 130 467 c 0,0,1
651 66 m 0,22,23
 716 66 716 66 766 98 c 128,-1,24
 816 130 816 130 853 185 c 128,-1,25
 890 240 890 240 915.5 313 c 128,-1,26
 941 386 941 386 956 468 c 128,-1,27
 971 550 971 550 976.5 636.5 c 128,-1,28
 982 723 982 723 980 805 c 0,29,30
 977 960 977 960 935 1035 c 128,-1,31
 893 1110 893 1110 799 1110 c 0,32,33
 736 1110 736 1110 686.5 1078 c 128,-1,34
 637 1046 637 1046 599.5 991.5 c 128,-1,35
 562 937 562 937 536 864 c 128,-1,36
 510 791 510 791 494.5 708.5 c 128,-1,37
 479 626 479 626 472.5 539 c 128,-1,38
 466 452 466 452 468 369 c 0,39,40
 471 214 471 214 513.5 140 c 128,-1,41
 556 66 556 66 651 66 c 0,22,23
EndSplineSet
EndChar

StartChar: one
Encoding: 49 49 19
Width: 1004
GlyphClass: 2
Flags: W
LayerCount: 2
Fore
SplineSet
68 41 m 0,0,1
 70 57 70 57 78 66.5 c 128,-1,2
 86 76 86 76 106 78 c 0,3,4
 130 80 130 80 164.5 84 c 128,-1,5
 199 88 199 88 230.5 95.5 c 128,-1,6
 262 103 262 103 285 114 c 128,-1,7
 308 125 308 125 310 142 c 2,8,-1
 441 994 l 1,9,10
 419 991 419 991 391 989 c 128,-1,11
 363 987 363 987 334.5 986 c 128,-1,12
 306 985 306 985 280.5 984.5 c 128,-1,13
 255 984 255 984 238 984 c 256,14,15
 221 984 221 984 213.5 994 c 128,-1,16
 206 1004 206 1004 208 1015 c 0,17,18
 211 1038 211 1038 221 1054 c 128,-1,19
 231 1070 231 1070 252 1072 c 0,20,21
 275 1074 275 1074 318 1082 c 128,-1,22
 361 1090 361 1090 411.5 1105 c 128,-1,23
 462 1120 462 1120 512.5 1141 c 128,-1,24
 563 1162 563 1162 602 1189 c 1,25,-1
 801 1189 l 1,26,-1
 647 175 l 2,27,28
 642 143 642 143 659.5 124.5 c 128,-1,29
 677 106 677 106 704 96 c 128,-1,30
 731 86 731 86 761.5 83 c 128,-1,31
 792 80 792 80 815 78 c 0,32,33
 836 76 836 76 842.5 70 c 128,-1,34
 849 64 849 64 846 41 c 0,35,36
 844 30 844 30 834 15 c 128,-1,37
 824 0 824 0 807 0 c 2,38,-1
 97 0 l 2,39,40
 80 0 80 0 73 15 c 128,-1,41
 66 30 66 30 68 41 c 0,0,1
EndSplineSet
Substitution2: "'sups' Superscript in Latin lookup 10 subtable" onesuperior
EndChar

StartChar: two
Encoding: 50 50 20
Width: 1282
GlyphClass: 2
Flags: W
LayerCount: 2
Fore
SplineSet
55 75 m 1,0,1
 140 131 140 131 228 191.5 c 128,-1,2
 316 252 316 252 397.5 316 c 128,-1,3
 479 380 479 380 550.5 448.5 c 128,-1,4
 622 517 622 517 676 590 c 128,-1,5
 730 663 730 663 761.5 740.5 c 128,-1,6
 793 818 793 818 795 900 c 0,7,8
 796 930 796 930 793.5 967.5 c 128,-1,9
 791 1005 791 1005 777 1038 c 128,-1,10
 763 1071 763 1071 732 1093.5 c 128,-1,11
 701 1116 701 1116 645 1116 c 0,12,13
 612 1116 612 1116 585 1107.5 c 128,-1,14
 558 1099 558 1099 537.5 1087.5 c 128,-1,15
 517 1076 517 1076 503 1063.5 c 128,-1,16
 489 1051 489 1051 481 1043 c 1,17,-1
 382 754 l 2,18,19
 371 724 371 724 355.5 707 c 128,-1,20
 340 690 340 690 310 690 c 0,21,22
 284 690 284 690 253.5 703.5 c 128,-1,23
 223 717 223 717 196.5 741 c 128,-1,24
 170 765 170 765 153 799 c 128,-1,25
 136 833 136 833 136 874 c 0,26,27
 136 919 136 919 158 961.5 c 128,-1,28
 180 1004 180 1004 218 1040.5 c 128,-1,29
 256 1077 256 1077 307.5 1107.5 c 128,-1,30
 359 1138 359 1138 417.5 1159.5 c 128,-1,31
 476 1181 476 1181 539 1193 c 128,-1,32
 602 1205 602 1205 663 1205 c 0,33,34
 798 1205 798 1205 890.5 1185 c 128,-1,35
 983 1165 983 1165 1040 1127.5 c 128,-1,36
 1097 1090 1097 1090 1122.5 1036 c 128,-1,37
 1148 982 1148 982 1148 913 c 0,38,39
 1148 816 1148 816 1093.5 723.5 c 128,-1,40
 1039 631 1039 631 947 546 c 128,-1,41
 855 461 855 461 735 386 c 128,-1,42
 615 311 615 311 484 249 c 1,43,-1
 1147 249 l 1,44,-1
 1107 0 l 1,45,-1
 44 0 l 1,46,-1
 55 75 l 1,0,1
EndSplineSet
Substitution2: "'sups' Superscript in Latin lookup 10 subtable" twosuperior
EndChar

StartChar: three
Encoding: 51 51 21
Width: 1280
GlyphClass: 2
Flags: W
LayerCount: 2
Fore
SplineSet
-39 -42 m 0,0,1
 -39 22 -39 22 -24.5 71 c 128,-1,2
 -10 120 -10 120 14.5 152.5 c 128,-1,3
 39 185 39 185 72 201.5 c 128,-1,4
 105 218 105 218 141 218 c 0,5,6
 162 218 162 218 181 209.5 c 128,-1,7
 200 201 200 201 214.5 187.5 c 128,-1,8
 229 174 229 174 237.5 157 c 128,-1,9
 246 140 246 140 246 123 c 1,10,-1
 169 -181 l 1,11,12
 180 -210 180 -210 208 -232 c 128,-1,13
 236 -254 236 -254 274.5 -269 c 128,-1,14
 313 -284 313 -284 358 -291.5 c 128,-1,15
 403 -299 403 -299 448 -299 c 0,16,17
 524 -299 524 -299 584.5 -266.5 c 128,-1,18
 645 -234 645 -234 686 -177.5 c 128,-1,19
 727 -121 727 -121 749 -45 c 128,-1,20
 771 31 771 31 771 117 c 0,21,22
 771 176 771 176 756 219 c 128,-1,23
 741 262 741 262 716 292.5 c 128,-1,24
 691 323 691 323 659 342 c 128,-1,25
 627 361 627 361 592 372 c 128,-1,26
 557 383 557 383 522.5 387 c 128,-1,27
 488 391 488 391 458 391 c 2,28,-1
 395 391 l 1,29,-1
 417 505 l 1,30,-1
 480 505 l 2,31,32
 544 505 544 505 608 536 c 128,-1,33
 672 567 672 567 723.5 623 c 128,-1,34
 775 679 775 679 807 756.5 c 128,-1,35
 839 834 839 834 839 926 c 0,36,37
 839 959 839 959 831 992.5 c 128,-1,38
 823 1026 823 1026 802.5 1053 c 128,-1,39
 782 1080 782 1080 746.5 1097 c 128,-1,40
 711 1114 711 1114 655 1114 c 0,41,42
 609 1114 609 1114 575.5 1104.5 c 128,-1,43
 542 1095 542 1095 518 1082 c 128,-1,44
 494 1069 494 1069 479 1055 c 128,-1,45
 464 1041 464 1041 456 1033 c 1,46,-1
 381 838 l 1,47,48
 368 808 368 808 351.5 786 c 128,-1,49
 335 764 335 764 305 764 c 0,50,51
 288 764 288 764 263 772.5 c 128,-1,52
 238 781 238 781 215 796.5 c 128,-1,53
 192 812 192 812 176 834 c 128,-1,54
 160 856 160 856 160 883 c 0,55,56
 160 901 160 901 166.5 924.5 c 128,-1,57
 173 948 173 948 188 977 c 0,58,59
 213 1022 213 1022 261 1063 c 128,-1,60
 309 1104 309 1104 374.5 1135.5 c 128,-1,61
 440 1167 440 1167 522 1186 c 128,-1,62
 604 1205 604 1205 697 1205 c 0,63,64
 806 1205 806 1205 895 1183.5 c 128,-1,65
 984 1162 984 1162 1047 1121 c 128,-1,66
 1110 1080 1110 1080 1144.5 1021.5 c 128,-1,67
 1179 963 1179 963 1179 888 c 0,68,69
 1179 800 1179 800 1131.5 723 c 128,-1,70
 1084 646 1084 646 1007 588 c 128,-1,71
 930 530 930 530 833.5 495 c 128,-1,72
 737 460 737 460 638 456 c 1,73,74
 690 456 690 456 746 447.5 c 128,-1,75
 802 439 802 439 856 421.5 c 128,-1,76
 910 404 910 404 958 377 c 128,-1,77
 1006 350 1006 350 1042 312 c 128,-1,78
 1078 274 1078 274 1099.5 224.5 c 128,-1,79
 1121 175 1121 175 1121 114 c 0,80,81
 1121 33 1121 33 1096.5 -36.5 c 128,-1,82
 1072 -106 1072 -106 1028.5 -162.5 c 128,-1,83
 985 -219 985 -219 925 -262 c 128,-1,84
 865 -305 865 -305 794.5 -334.5 c 128,-1,85
 724 -364 724 -364 645 -379 c 128,-1,86
 566 -394 566 -394 485 -394 c 0,87,88
 433 -394 433 -394 374.5 -386.5 c 128,-1,89
 316 -379 316 -379 257.5 -362.5 c 128,-1,90
 199 -346 199 -346 145.5 -319.5 c 128,-1,91
 92 -293 92 -293 51 -254 c 128,-1,92
 10 -215 10 -215 -14.5 -162.5 c 128,-1,93
 -39 -110 -39 -110 -39 -42 c 0,0,1
EndSplineSet
Substitution2: "'sups' Superscript in Latin lookup 10 subtable" threesuperior
EndChar

StartChar: four
Encoding: 52 52 22
Width: 1329
GlyphClass: 2
Flags: W
LayerCount: 2
Fore
SplineSet
27 87 m 1,0,-1
 701 1293 l 2,1,2
 705 1300 705 1300 718 1307.5 c 128,-1,3
 731 1315 731 1315 748 1321 c 128,-1,4
 765 1327 765 1327 785 1330.5 c 128,-1,5
 805 1334 805 1334 825 1334 c 0,6,7
 861 1334 861 1334 895.5 1325 c 128,-1,8
 930 1316 930 1316 957 1301 c 128,-1,9
 984 1286 984 1286 1000 1267.5 c 128,-1,10
 1016 1249 1016 1249 1016 1231 c 0,11,12
 1016 1212 1016 1212 1008 1201 c 2,13,-1
 262 164 l 1,14,-1
 704 164 l 1,15,-1
 769 536 l 1,16,-1
 828 576 l 1,17,-1
 1078 576 l 1,18,-1
 1007 164 l 1,19,-1
 1223 164 l 1,20,-1
 1205 0 l 1,21,-1
 979 0 l 1,22,-1
 910 -384 l 1,23,-1
 607 -384 l 1,24,-1
 676 0 l 1,25,-1
 61 0 l 1,26,-1
 27 87 l 1,0,-1
EndSplineSet
EndChar

StartChar: five
Encoding: 53 53 23
Width: 1227
GlyphClass: 2
Flags: W
LayerCount: 2
Fore
SplineSet
91 114 m 0,0,1
 130 114 130 114 158 94 c 128,-1,2
 186 74 186 74 194 39 c 0,3,4
 197 27 197 27 203 1.5 c 128,-1,5
 209 -24 209 -24 216.5 -55.5 c 128,-1,6
 224 -87 224 -87 232 -121.5 c 128,-1,7
 240 -156 240 -156 247.5 -186 c 128,-1,8
 255 -216 255 -216 260.5 -239 c 128,-1,9
 266 -262 266 -262 268 -270 c 1,10,11
 276 -278 276 -278 290 -283 c 0,12,13
 302 -288 302 -288 320.5 -292 c 128,-1,14
 339 -296 339 -296 366 -297 c 0,15,16
 437 -299 437 -299 493.5 -279 c 128,-1,17
 550 -259 550 -259 592.5 -223 c 128,-1,18
 635 -187 635 -187 665 -137 c 128,-1,19
 695 -87 695 -87 714 -30 c 128,-1,20
 733 27 733 27 741.5 89 c 128,-1,21
 750 151 750 151 750 212 c 0,22,23
 750 282 750 282 735 333.5 c 128,-1,24
 720 385 720 385 693.5 419 c 128,-1,25
 667 453 667 453 630 469.5 c 128,-1,26
 593 486 593 486 548 486 c 0,27,28
 509 486 509 486 464.5 478.5 c 128,-1,29
 420 471 420 471 375.5 454.5 c 128,-1,30
 331 438 331 438 290.5 412 c 128,-1,31
 250 386 250 386 220 350 c 1,32,-1
 159 383 l 1,33,-1
 366 1189 l 1,34,-1
 1114 1189 l 1,35,-1
 1058 910 l 1,36,-1
 436 910 l 1,37,-1
 325 515 l 1,38,39
 356 534 356 534 398.5 549 c 128,-1,40
 441 564 441 564 487.5 574.5 c 128,-1,41
 534 585 534 585 579.5 591 c 128,-1,42
 625 597 625 597 661 597 c 0,43,44
 768 597 768 597 847 570.5 c 128,-1,45
 926 544 926 544 978.5 495 c 128,-1,46
 1031 446 1031 446 1056.5 377 c 128,-1,47
 1082 308 1082 308 1082 223 c 0,48,49
 1082 96 1082 96 1031.5 -16 c 128,-1,50
 981 -128 981 -128 888 -211.5 c 128,-1,51
 795 -295 795 -295 664.5 -343.5 c 128,-1,52
 534 -392 534 -392 375 -392 c 0,53,54
 303 -392 303 -392 228 -370 c 128,-1,55
 153 -348 153 -348 92.5 -308.5 c 128,-1,56
 32 -269 32 -269 -7 -214 c 128,-1,57
 -46 -159 -46 -159 -46 -93 c 0,58,59
 -46 -28 -46 -28 -33 12.5 c 128,-1,60
 -20 53 -20 53 0.5 75.5 c 128,-1,61
 21 98 21 98 45 106 c 128,-1,62
 69 114 69 114 91 114 c 0,0,1
EndSplineSet
EndChar

StartChar: six
Encoding: 54 54 24
Width: 1327
GlyphClass: 2
Flags: W
LayerCount: 2
Fore
SplineSet
90 479 m 0,0,1
 90 602 90 602 121.5 721 c 128,-1,2
 153 840 153 840 213 949 c 128,-1,3
 273 1058 273 1058 361.5 1154.5 c 128,-1,4
 450 1251 450 1251 563.5 1328.5 c 128,-1,5
 677 1406 677 1406 815.5 1462.5 c 128,-1,6
 954 1519 954 1519 1115 1548 c 1,7,-1
 1098 1456 l 1,8,9
 968 1420 968 1420 870 1353.5 c 128,-1,10
 772 1287 772 1287 700 1202.5 c 128,-1,11
 628 1118 628 1118 580.5 1022 c 128,-1,12
 533 926 533 926 505 830 c 1,13,14
 529 854 529 854 567 877.5 c 128,-1,15
 605 901 605 901 650 920.5 c 128,-1,16
 695 940 695 940 744.5 952 c 128,-1,17
 794 964 794 964 841 964 c 0,18,19
 951 964 951 964 1030 934.5 c 128,-1,20
 1109 905 1109 905 1160 855 c 128,-1,21
 1211 805 1211 805 1235 739.5 c 128,-1,22
 1259 674 1259 674 1259 602 c 0,23,24
 1259 470 1259 470 1212.5 354.5 c 128,-1,25
 1166 239 1166 239 1080 154 c 128,-1,26
 994 69 994 69 872.5 20 c 128,-1,27
 751 -29 751 -29 602 -29 c 0,28,29
 469 -29 469 -29 372.5 14 c 128,-1,30
 276 57 276 57 213 127.5 c 128,-1,31
 150 198 150 198 120 289.5 c 128,-1,32
 90 381 90 381 90 479 c 0,0,1
462 701 m 1,33,34
 435 613 435 613 416 513 c 128,-1,35
 397 413 397 413 397 317 c 0,36,37
 397 262 397 262 407 216 c 128,-1,38
 417 170 417 170 441 136.5 c 128,-1,39
 465 103 465 103 505.5 84.5 c 128,-1,40
 546 66 546 66 607 66 c 0,41,42
 685 66 685 66 746 111 c 128,-1,43
 807 156 807 156 849 230.5 c 128,-1,44
 891 305 891 305 913 400.5 c 128,-1,45
 935 496 935 496 935 598 c 0,46,47
 935 648 935 648 924.5 691.5 c 128,-1,48
 914 735 914 735 891.5 767 c 128,-1,49
 869 799 869 799 834.5 817.5 c 128,-1,50
 800 836 800 836 752 836 c 0,51,52
 708 836 708 836 667 825 c 128,-1,53
 626 814 626 814 588.5 795.5 c 128,-1,54
 551 777 551 777 519 752.5 c 128,-1,55
 487 728 487 728 462 701 c 1,33,34
EndSplineSet
EndChar

StartChar: seven
Encoding: 55 55 25
Width: 1159
GlyphClass: 2
Flags: W
LayerCount: 2
Fore
SplineSet
895 905 m 1,0,-1
 378 905 l 2,1,2
 347 905 347 905 321 889 c 128,-1,3
 295 873 295 873 275 852 c 128,-1,4
 255 831 255 831 243 811.5 c 128,-1,5
 231 792 231 792 228 785 c 0,6,7
 218 765 218 765 197 758.5 c 128,-1,8
 176 752 176 752 154 752 c 0,9,10
 143 752 143 752 129.5 760.5 c 128,-1,11
 116 769 116 769 120 786 c 2,12,-1
 233 1190 l 1,13,-1
 1110 1189 l 1,14,-1
 1149 1122 l 1,15,-1
 491 -383 l 1,16,-1
 253 -382 l 1,17,-1
 895 905 l 1,0,-1
EndSplineSet
EndChar

StartChar: eight
Encoding: 56 56 26
Width: 1384
GlyphClass: 2
Flags: W
LayerCount: 2
Fore
SplineSet
122 311 m 0,0,1
 119 385 119 385 140.5 454 c 128,-1,2
 162 523 162 523 205.5 582 c 128,-1,3
 249 641 249 641 315 687 c 128,-1,4
 381 733 381 733 468 761 c 1,5,6
 436 792 436 792 409 823 c 128,-1,7
 382 854 382 854 362 889 c 128,-1,8
 342 924 342 924 330 964.5 c 128,-1,9
 318 1005 318 1005 316 1055 c 0,10,11
 314 1115 314 1115 334 1168 c 128,-1,12
 354 1221 354 1221 392 1265 c 128,-1,13
 430 1309 430 1309 483 1343.5 c 128,-1,14
 536 1378 536 1378 598.5 1402 c 128,-1,15
 661 1426 661 1426 731 1438.5 c 128,-1,16
 801 1451 801 1451 873 1451 c 0,17,18
 970 1451 970 1451 1051 1431 c 128,-1,19
 1132 1411 1132 1411 1190.5 1372.5 c 128,-1,20
 1249 1334 1249 1334 1282 1278.5 c 128,-1,21
 1315 1223 1315 1223 1318 1153 c 0,22,23
 1321 1081 1321 1081 1294.5 1020 c 128,-1,24
 1268 959 1268 959 1224 909 c 128,-1,25
 1180 859 1180 859 1123.5 820.5 c 128,-1,26
 1067 782 1067 782 1009 755 c 1,27,28
 1054 725 1054 725 1095.5 690.5 c 128,-1,29
 1137 656 1137 656 1169.5 615 c 128,-1,30
 1202 574 1202 574 1222 526 c 128,-1,31
 1242 478 1242 478 1244 422 c 0,32,33
 1247 331 1247 331 1211 249 c 128,-1,34
 1175 167 1175 167 1098.5 105.5 c 128,-1,35
 1022 44 1022 44 905.5 7.5 c 128,-1,36
 789 -29 789 -29 632 -29 c 0,37,38
 517 -29 517 -29 424 -3 c 128,-1,39
 331 23 331 23 265 68.5 c 128,-1,40
 199 114 199 114 162 176.5 c 128,-1,41
 125 239 125 239 122 311 c 0,0,1
931 803 m 1,42,43
 963 827 963 827 986.5 866.5 c 128,-1,44
 1010 906 1010 906 1025.5 953 c 128,-1,45
 1041 1000 1041 1000 1047.5 1052.5 c 128,-1,46
 1054 1105 1054 1105 1053 1155 c 1,47,48
 1051 1197 1051 1197 1038.5 1233.5 c 128,-1,49
 1026 1270 1026 1270 1002 1296.5 c 128,-1,50
 978 1323 978 1323 941.5 1338.5 c 128,-1,51
 905 1354 905 1354 855 1354 c 0,52,53
 804 1354 804 1354 759.5 1338.5 c 128,-1,54
 715 1323 715 1323 682.5 1292 c 128,-1,55
 650 1261 650 1261 632.5 1215 c 128,-1,56
 615 1169 615 1169 617 1109 c 0,57,58
 618 1079 618 1079 639 1042 c 128,-1,59
 660 1005 660 1005 696 967.5 c 128,-1,60
 732 930 732 930 780 894 c 128,-1,61
 828 858 828 858 884 830 c 1,62,-1
 931 803 l 1,42,43
550 705 m 1,63,64
 521 682 521 682 497 644.5 c 128,-1,65
 473 607 473 607 455.5 557.5 c 128,-1,66
 438 508 438 508 428.5 448.5 c 128,-1,67
 419 389 419 389 421 322 c 0,68,69
 422 278 422 278 435.5 232.5 c 128,-1,70
 449 187 449 187 479.5 150 c 128,-1,71
 510 113 510 113 561.5 89.5 c 128,-1,72
 613 66 613 66 690 66 c 0,73,74
 737 66 737 66 783 81.5 c 128,-1,75
 829 97 829 97 864.5 129 c 128,-1,76
 900 161 900 161 921.5 209.5 c 128,-1,77
 943 258 943 258 940 323 c 0,78,79
 938 371 938 371 909.5 417.5 c 128,-1,80
 881 464 881 464 839 506 c 128,-1,81
 797 548 797 548 747 582.5 c 128,-1,82
 697 617 697 617 652 641 c 1,83,84
 626 656 626 656 600.5 672 c 128,-1,85
 575 688 575 688 550 705 c 1,63,64
EndSplineSet
EndChar

StartChar: nine
Encoding: 57 57 27
Width: 1327
GlyphClass: 2
Flags: W
LayerCount: 2
Fore
SplineSet
1262 697 m 0,0,1
 1262 574 1262 574 1230 455 c 128,-1,2
 1198 336 1198 336 1136.5 227 c 128,-1,3
 1075 118 1075 118 985.5 21.5 c 128,-1,4
 896 -75 896 -75 780.5 -152.5 c 128,-1,5
 665 -230 665 -230 525 -286.5 c 128,-1,6
 385 -343 385 -343 223 -372 c 1,7,-1
 240 -280 l 1,8,9
 370 -244 370 -244 468 -177.5 c 128,-1,10
 566 -111 566 -111 638 -26.5 c 128,-1,11
 710 58 710 58 757.5 154 c 128,-1,12
 805 250 805 250 833 346 c 1,13,14
 809 322 809 322 771 298.5 c 128,-1,15
 733 275 733 275 688 255.5 c 128,-1,16
 643 236 643 236 593.5 224 c 128,-1,17
 544 212 544 212 497 212 c 0,18,19
 387 212 387 212 309 241.5 c 128,-1,20
 231 271 231 271 181.5 321 c 128,-1,21
 132 371 132 371 109 436.5 c 128,-1,22
 86 502 86 502 86 574 c 0,23,24
 86 706 86 706 131.5 821.5 c 128,-1,25
 177 937 177 937 261.5 1022 c 128,-1,26
 346 1107 346 1107 466.5 1156 c 128,-1,27
 587 1205 587 1205 736 1205 c 0,28,29
 872 1205 872 1205 971 1162 c 128,-1,30
 1070 1119 1070 1119 1134.5 1048.5 c 128,-1,31
 1199 978 1199 978 1230.5 886 c 128,-1,32
 1262 794 1262 794 1262 697 c 0,0,1
876 475 m 1,33,34
 903 563 903 563 922 663 c 128,-1,35
 941 763 941 763 941 859 c 0,36,37
 941 914 941 914 931 960 c 128,-1,38
 921 1006 921 1006 897 1039.5 c 128,-1,39
 873 1073 873 1073 832.5 1091.5 c 128,-1,40
 792 1110 792 1110 731 1110 c 0,41,42
 653 1110 653 1110 592 1065 c 128,-1,43
 531 1020 531 1020 489 945.5 c 128,-1,44
 447 871 447 871 425 775.5 c 128,-1,45
 403 680 403 680 403 578 c 0,46,47
 403 528 403 528 413.5 484.5 c 128,-1,48
 424 441 424 441 446.5 409 c 128,-1,49
 469 377 469 377 503.5 358.5 c 128,-1,50
 538 340 538 340 586 340 c 0,51,52
 629 340 629 340 670.5 351 c 128,-1,53
 712 362 712 362 749.5 380.5 c 128,-1,54
 787 399 787 399 819 423.5 c 128,-1,55
 851 448 851 448 876 475 c 1,33,34
EndSplineSet
EndChar

StartChar: less
Encoding: 60 60 30
Width: 1440
GlyphClass: 2
Flags: W
LayerCount: 2
Fore
SplineSet
1219 964 m 1,0,-1
 419 573 l 1,1,-1
 1219 183 l 1,2,-1
 1219 -11 l 1,3,-1
 221 514 l 1,4,-1
 221 633 l 1,5,-1
 1219 1160 l 1,6,-1
 1219 964 l 1,0,-1
EndSplineSet
EndChar

StartChar: equal
Encoding: 61 61 31
Width: 1440
GlyphClass: 2
Flags: W
LayerCount: 2
Fore
SplineSet
240 846 m 1,0,-1
 1210 846 l 1,1,-1
 1210 700 l 1,2,-1
 240 700 l 1,3,-1
 240 846 l 1,0,-1
240 418 m 1,4,-1
 1210 418 l 1,5,-1
 1210 272 l 1,6,-1
 240 272 l 1,7,-1
 240 418 l 1,4,-1
EndSplineSet
EndChar

StartChar: question
Encoding: 63 63 33
Width: 1122
GlyphClass: 2
Flags: W
LayerCount: 2
Fore
SplineSet
418 706 m 1,0,1
 490 706 490 706 558 744.5 c 128,-1,2
 626 783 626 783 679.5 848 c 128,-1,3
 733 913 733 913 765.5 1000.5 c 128,-1,4
 798 1088 798 1088 798 1187 c 0,5,6
 798 1232 798 1232 790.5 1277.5 c 128,-1,7
 783 1323 783 1323 763.5 1359.5 c 128,-1,8
 744 1396 744 1396 710 1419.5 c 128,-1,9
 676 1443 676 1443 623 1443 c 0,10,11
 580 1443 580 1443 548 1428 c 128,-1,12
 516 1413 516 1413 494 1395 c 0,13,14
 468 1374 468 1374 451 1347 c 1,15,-1
 387 1117 l 1,16,17
 379 1082 379 1082 359 1070.5 c 128,-1,18
 339 1059 339 1059 307 1059 c 0,19,20
 195 1059 195 1059 141 1101 c 128,-1,21
 87 1143 87 1143 87 1220 c 0,22,23
 87 1267 87 1267 108.5 1308.5 c 128,-1,24
 130 1350 130 1350 168 1384.5 c 128,-1,25
 206 1419 206 1419 257 1445.5 c 128,-1,26
 308 1472 308 1472 366 1490.5 c 128,-1,27
 424 1509 424 1509 487.5 1518.5 c 128,-1,28
 551 1528 551 1528 613 1528 c 0,29,30
 756 1528 756 1528 857 1499 c 128,-1,31
 958 1470 958 1470 1022 1418.5 c 128,-1,32
 1086 1367 1086 1367 1115.5 1297 c 128,-1,33
 1145 1227 1145 1227 1145 1145 c 0,34,35
 1145 1073 1145 1073 1120.5 1008.5 c 128,-1,36
 1096 944 1096 944 1054 888 c 128,-1,37
 1012 832 1012 832 956 785 c 128,-1,38
 900 738 900 738 838 701.5 c 128,-1,39
 776 665 776 665 710.5 638.5 c 128,-1,40
 645 612 645 612 585 598 c 1,41,-1
 560 482 l 1,42,-1
 378 482 l 1,43,-1
 418 706 l 1,0,1
240 163 m 0,44,45
 240 198 240 198 254 233.5 c 128,-1,46
 268 269 268 269 293.5 298 c 128,-1,47
 319 327 319 327 355 345.5 c 128,-1,48
 391 364 391 364 435 364 c 0,49,50
 475 364 475 364 507 350.5 c 128,-1,51
 539 337 539 337 561 313 c 128,-1,52
 583 289 583 289 594.5 257 c 128,-1,53
 606 225 606 225 606 188 c 0,54,55
 606 146 606 146 590.5 108.5 c 128,-1,56
 575 71 575 71 548.5 42.5 c 128,-1,57
 522 14 522 14 486 -3 c 128,-1,58
 450 -20 450 -20 409 -20 c 256,59,60
 368 -20 368 -20 337 -5.5 c 128,-1,61
 306 9 306 9 284 34 c 128,-1,62
 262 59 262 59 251 92 c 128,-1,63
 240 125 240 125 240 163 c 0,44,45
EndSplineSet
EndChar

StartChar: at
Encoding: 64 64 34
Width: 1980
GlyphClass: 2
Flags: W
LayerCount: 2
Fore
SplineSet
1186 1341 m 0,0,1
 1089 1341 1089 1341 984.5 1313.5 c 128,-1,2
 880 1286 880 1286 779.5 1231.5 c 128,-1,3
 679 1177 679 1177 589.5 1096 c 128,-1,4
 500 1015 500 1015 432 909 c 128,-1,5
 364 803 364 803 324 672.5 c 128,-1,6
 284 542 284 542 284 387 c 0,7,8
 284 263 284 263 315 169.5 c 128,-1,9
 346 76 346 76 398 9.5 c 128,-1,10
 450 -57 450 -57 517.5 -100.5 c 128,-1,11
 585 -144 585 -144 657.5 -169.5 c 128,-1,12
 730 -195 730 -195 802.5 -205 c 128,-1,13
 875 -215 875 -215 937 -215 c 0,14,15
 1055 -215 1055 -215 1147.5 -189.5 c 128,-1,16
 1240 -164 1240 -164 1307.5 -129.5 c 128,-1,17
 1375 -95 1375 -95 1418.5 -60.5 c 128,-1,18
 1462 -26 1462 -26 1483 -7 c 1,19,-1
 1537 -90 l 1,20,21
 1516 -109 1516 -109 1466.5 -147 c 128,-1,22
 1417 -185 1417 -185 1340 -223.5 c 128,-1,23
 1263 -262 1263 -262 1158 -291 c 128,-1,24
 1053 -320 1053 -320 923 -320 c 0,25,26
 761 -320 761 -320 617 -282 c 128,-1,27
 473 -244 473 -244 365 -161 c 128,-1,28
 257 -78 257 -78 194 53.5 c 128,-1,29
 131 185 131 185 131 372 c 0,30,31
 131 543 131 543 177 689.5 c 128,-1,32
 223 836 223 836 302.5 956 c 128,-1,33
 382 1076 382 1076 488 1168 c 128,-1,34
 594 1260 594 1260 714.5 1322.5 c 128,-1,35
 835 1385 835 1385 963 1417 c 128,-1,36
 1091 1449 1091 1449 1214 1449 c 0,37,38
 1299 1449 1299 1449 1382.5 1433.5 c 128,-1,39
 1466 1418 1466 1418 1541.5 1387 c 128,-1,40
 1617 1356 1617 1356 1681.5 1308.5 c 128,-1,41
 1746 1261 1746 1261 1793 1196.5 c 128,-1,42
 1840 1132 1840 1132 1867 1050.5 c 128,-1,43
 1894 969 1894 969 1894 869 c 0,44,45
 1894 749 1894 749 1863 645.5 c 128,-1,46
 1832 542 1832 542 1780 457 c 128,-1,47
 1728 372 1728 372 1661.5 306 c 128,-1,48
 1595 240 1595 240 1524 195 c 128,-1,49
 1453 150 1453 150 1383 126.5 c 128,-1,50
 1313 103 1313 103 1255 103 c 0,51,52
 1208 103 1208 103 1172.5 112.5 c 128,-1,53
 1137 122 1137 122 1111 137.5 c 128,-1,54
 1085 153 1085 153 1067.5 173.5 c 128,-1,55
 1050 194 1050 194 1041 217 c 1,56,57
 984 160 984 160 921 135.5 c 128,-1,58
 858 111 858 111 807 111 c 0,59,60
 763 111 763 111 715.5 120 c 128,-1,61
 668 129 668 129 629 156 c 128,-1,62
 590 183 590 183 564.5 232 c 128,-1,63
 539 281 539 281 539 361 c 256,64,65
 539 441 539 441 558 520.5 c 128,-1,66
 577 600 577 600 612.5 672.5 c 128,-1,67
 648 745 648 745 698.5 807.5 c 128,-1,68
 749 870 749 870 812.5 915.5 c 128,-1,69
 876 961 876 961 951.5 987.5 c 128,-1,70
 1027 1014 1027 1014 1112 1014 c 0,71,72
 1169 1014 1169 1014 1202.5 994 c 128,-1,73
 1236 974 1236 974 1250 943 c 1,74,-1
 1288 994 l 1,75,-1
 1512 994 l 1,76,-1
 1254 362 l 1,77,78
 1249 353 1249 353 1244.5 337 c 128,-1,79
 1240 321 1240 321 1238 302 c 0,80,81
 1236 287 1236 287 1236.5 272.5 c 128,-1,82
 1237 258 1237 258 1242 246.5 c 128,-1,83
 1247 235 1247 235 1258.5 227.5 c 128,-1,84
 1270 220 1270 220 1289 220 c 0,85,86
 1334 220 1334 220 1385.5 241 c 128,-1,87
 1437 262 1437 262 1488 301 c 128,-1,88
 1539 340 1539 340 1586.5 395.5 c 128,-1,89
 1634 451 1634 451 1670.5 521 c 128,-1,90
 1707 591 1707 591 1728.5 672.5 c 128,-1,91
 1750 754 1750 754 1750 846 c 0,92,93
 1750 966 1750 966 1703 1058.5 c 128,-1,94
 1656 1151 1656 1151 1577.5 1213.5 c 128,-1,95
 1499 1276 1499 1276 1397 1308.5 c 128,-1,96
 1295 1341 1295 1341 1186 1341 c 0,0,1
1176 799 m 1,97,98
 1177 807 1177 807 1177.5 814 c 128,-1,99
 1178 821 1178 821 1178 828 c 0,100,101
 1178 866 1178 866 1161 891 c 128,-1,102
 1144 916 1144 916 1108 916 c 0,103,104
 1056 916 1056 916 1012.5 882.5 c 128,-1,105
 969 849 969 849 934.5 796.5 c 128,-1,106
 900 744 900 744 874.5 678.5 c 128,-1,107
 849 613 849 613 831.5 548.5 c 128,-1,108
 814 484 814 484 805.5 427.5 c 128,-1,109
 797 371 797 371 797 337 c 0,110,111
 797 317 797 317 799 296.5 c 128,-1,112
 801 276 801 276 807 259.5 c 128,-1,113
 813 243 813 243 823.5 232.5 c 128,-1,114
 834 222 834 222 850 222 c 0,115,116
 868 222 868 222 891 233.5 c 128,-1,117
 914 245 914 245 938 267.5 c 128,-1,118
 962 290 962 290 985.5 324.5 c 128,-1,119
 1009 359 1009 359 1028 404 c 1,120,-1
 1176 799 l 1,97,98
EndSplineSet
EndChar

StartChar: A
Encoding: 65 65 35
Width: 1552
GlyphClass: 2
Flags: W
LayerCount: 2
Fore
SplineSet
942 408 m 1,0,-1
 391 408 l 1,1,-1
 260 142 l 2,2,3
 252 125 252 125 252 119 c 0,4,5
 252 107 252 107 265.5 102 c 128,-1,6
 279 97 279 97 299.5 95.5 c 128,-1,7
 320 94 320 94 343.5 93.5 c 128,-1,8
 367 93 367 93 387.5 90 c 128,-1,9
 408 87 408 87 421.5 80 c 128,-1,10
 435 73 435 73 435 57 c 0,11,12
 435 55 435 55 433.5 45.5 c 128,-1,13
 432 36 432 36 427.5 26 c 128,-1,14
 423 16 423 16 415.5 8 c 128,-1,15
 408 0 408 0 396 0 c 2,16,-1
 -73 0 l 2,17,18
 -88 0 -88 0 -93.5 16 c 128,-1,19
 -99 32 -99 32 -99 45 c 0,20,21
 -99 71 -99 71 -90.5 78.5 c 128,-1,22
 -82 86 -82 86 -61 88 c 0,23,24
 -42 90 -42 90 -18 90 c 128,-1,25
 6 90 6 90 31.5 96 c 128,-1,26
 57 102 57 102 80.5 117 c 128,-1,27
 104 132 104 132 121 165 c 2,28,-1
 800 1451 l 1,29,-1
 976 1451 l 1,30,-1
 1382 165 l 2,31,32
 1395 124 1395 124 1428 106 c 128,-1,33
 1461 88 1461 88 1523 88 c 0,34,35
 1547 88 1547 88 1557 84.5 c 128,-1,36
 1567 81 1567 81 1567 61 c 2,37,-1
 1567 51 l 1,38,39
 1566 45 1566 45 1563 36.5 c 128,-1,40
 1560 28 1560 28 1555 20 c 128,-1,41
 1550 12 1550 12 1543 6 c 128,-1,42
 1536 0 1536 0 1528 0 c 2,43,-1
 862 0 l 2,44,45
 854 0 854 0 848.5 5 c 128,-1,46
 843 10 843 10 839.5 17.5 c 128,-1,47
 836 25 836 25 834.5 33.5 c 128,-1,48
 833 42 833 42 833 48 c 0,49,50
 833 65 833 65 841 75.5 c 128,-1,51
 849 86 849 86 869 88 c 0,52,53
 901 91 901 91 928 91.5 c 128,-1,54
 955 92 955 92 975 94.5 c 128,-1,55
 995 97 995 97 1006.5 103 c 128,-1,56
 1018 109 1018 109 1018 122 c 0,57,58
 1018 124 1018 124 1017.5 129 c 128,-1,59
 1017 134 1017 134 1015 142 c 2,60,-1
 942 408 l 1,0,-1
434 494 m 1,61,-1
 919 494 l 1,62,-1
 747 1126 l 1,63,-1
 434 494 l 1,61,-1
EndSplineSet
EndChar

StartChar: B
Encoding: 66 66 36
Width: 1554
GlyphClass: 2
Flags: W
LayerCount: 2
Fore
SplineSet
19 51 m 0,0,1
 21 66 21 66 29 76 c 128,-1,2
 37 86 37 86 57 88 c 0,3,4
 85 90 85 90 112.5 94 c 128,-1,5
 140 98 140 98 162 105.5 c 128,-1,6
 184 113 184 113 198.5 124 c 128,-1,7
 213 135 213 135 216 152 c 2,8,-1
 391 1234 l 2,9,10
 392 1239 392 1239 392 1248 c 0,11,12
 392 1275 392 1275 378 1291 c 128,-1,13
 364 1307 364 1307 342.5 1315 c 128,-1,14
 321 1323 321 1323 294.5 1326 c 128,-1,15
 268 1329 268 1329 244 1331 c 0,16,17
 227 1333 227 1333 219.5 1337 c 128,-1,18
 212 1341 212 1341 213 1355 c 0,19,20
 213 1363 213 1363 214 1368 c 0,21,22
 215 1374 215 1374 218.5 1382.5 c 128,-1,23
 222 1391 222 1391 227.5 1399 c 128,-1,24
 233 1407 233 1407 240 1413 c 128,-1,25
 247 1419 247 1419 256 1419 c 2,26,-1
 925 1419 l 2,27,28
 1078 1419 1078 1419 1190.5 1404 c 128,-1,29
 1303 1389 1303 1389 1376.5 1353.5 c 128,-1,30
 1450 1318 1450 1318 1485 1259.5 c 128,-1,31
 1520 1201 1520 1201 1519 1114 c 1,32,33
 1517 1050 1517 1050 1488 990 c 128,-1,34
 1459 930 1459 930 1403.5 882 c 128,-1,35
 1348 834 1348 834 1268.5 803 c 128,-1,36
 1189 772 1189 772 1087 765 c 1,37,38
 1178 761 1178 761 1252.5 742 c 128,-1,39
 1327 723 1327 723 1380 685.5 c 128,-1,40
 1433 648 1433 648 1461 590 c 128,-1,41
 1489 532 1489 532 1488 450 c 0,42,43
 1486 344 1486 344 1440.5 260.5 c 128,-1,44
 1395 177 1395 177 1302.5 119 c 128,-1,45
 1210 61 1210 61 1070 30.5 c 128,-1,46
 930 0 930 0 738 0 c 2,47,-1
 46 0 l 2,48,49
 37 0 37 0 31.5 5.5 c 128,-1,50
 26 11 26 11 23 19.5 c 128,-1,51
 20 28 20 28 19.5 36.5 c 128,-1,52
 19 45 19 45 19 51 c 0,0,1
825 801 m 2,53,54
 884 801 884 801 942 813.5 c 128,-1,55
 1000 826 1000 826 1046.5 861.5 c 128,-1,56
 1093 897 1093 897 1122 961 c 128,-1,57
 1151 1025 1151 1025 1152 1128 c 0,58,59
 1153 1188 1153 1188 1136.5 1227 c 128,-1,60
 1120 1266 1120 1266 1084 1289 c 128,-1,61
 1048 1312 1048 1312 991 1321.5 c 128,-1,62
 934 1331 934 1331 854 1331 c 2,63,-1
 748 1331 l 1,64,-1
 669 801 l 1,65,-1
 825 801 l 2,53,54
560 137 m 1,66,67
 560 125 560 125 582 117.5 c 128,-1,68
 604 110 604 110 633.5 106 c 128,-1,69
 663 102 663 102 691.5 101 c 128,-1,70
 720 100 720 100 732 100 c 0,71,72
 772 100 772 100 815.5 104 c 128,-1,73
 859 108 859 108 901.5 120.5 c 128,-1,74
 944 133 944 133 982.5 156.5 c 128,-1,75
 1021 180 1021 180 1050.5 220 c 128,-1,76
 1080 260 1080 260 1097.5 318 c 128,-1,77
 1115 376 1115 376 1117 458 c 1,78,79
 1118 547 1118 547 1095 598.5 c 128,-1,80
 1072 650 1072 650 1031.5 676 c 128,-1,81
 991 702 991 702 935.5 708.5 c 128,-1,82
 880 715 880 715 814 715 c 2,83,-1
 655 715 l 1,84,-1
 560 137 l 1,66,67
EndSplineSet
EndChar

StartChar: C
Encoding: 67 67 37
Width: 1464
GlyphClass: 2
Flags: W
LayerCount: 2
Fore
SplineSet
78 574 m 0,0,1
 71 713 71 713 101 831.5 c 128,-1,2
 131 950 131 950 189.5 1047.5 c 128,-1,3
 248 1145 248 1145 331 1220 c 128,-1,4
 414 1295 414 1295 515.5 1345.5 c 128,-1,5
 617 1396 617 1396 731.5 1422.5 c 128,-1,6
 846 1449 846 1449 968 1449 c 0,7,8
 1067 1449 1067 1449 1145.5 1439.5 c 128,-1,9
 1224 1430 1224 1430 1283.5 1416.5 c 128,-1,10
 1343 1403 1343 1403 1384 1388 c 128,-1,11
 1425 1373 1425 1373 1449 1361 c 1,12,-1
 1411 1051 l 1,13,14
 1411 1039 1411 1039 1401.5 1031.5 c 128,-1,15
 1392 1024 1392 1024 1380 1019 c 128,-1,16
 1368 1014 1368 1014 1356 1012 c 128,-1,17
 1344 1010 1344 1010 1338 1010 c 0,18,19
 1324 1010 1324 1010 1311.5 1021 c 128,-1,20
 1299 1032 1299 1032 1297 1049 c 1,21,22
 1304 1198 1304 1198 1217.5 1275.5 c 128,-1,23
 1131 1353 1131 1353 954 1353 c 0,24,25
 893 1353 893 1353 830 1332.5 c 128,-1,26
 767 1312 767 1312 709 1269.5 c 128,-1,27
 651 1227 651 1227 601 1161.5 c 128,-1,28
 551 1096 551 1096 515.5 1005.5 c 128,-1,29
 480 915 480 915 461.5 799.5 c 128,-1,30
 443 684 443 684 448 542 c 0,31,32
 452 444 452 444 469.5 370 c 128,-1,33
 487 296 487 296 514 243 c 128,-1,34
 541 190 541 190 575 155.5 c 128,-1,35
 609 121 609 121 646 101 c 128,-1,36
 683 81 683 81 720 73 c 128,-1,37
 757 65 757 65 790 65 c 0,38,39
 879 65 879 65 945.5 90 c 128,-1,40
 1012 115 1012 115 1062.5 157.5 c 128,-1,41
 1113 200 1113 200 1151 255.5 c 128,-1,42
 1189 311 1189 311 1221 373 c 0,43,44
 1231 392 1231 392 1238.5 399 c 128,-1,45
 1246 406 1246 406 1263 406 c 0,46,47
 1269 406 1269 406 1281.5 404 c 128,-1,48
 1294 402 1294 402 1306.5 398.5 c 128,-1,49
 1319 395 1319 395 1329 389 c 128,-1,50
 1339 383 1339 383 1339 375 c 2,51,-1
 1339 372 l 1,52,-1
 1268 98 l 2,53,54
 1265 87 1265 87 1227 66 c 128,-1,55
 1189 45 1189 45 1126 23.5 c 128,-1,56
 1063 2 1063 2 978 -14 c 128,-1,57
 893 -30 893 -30 796 -30 c 0,58,59
 632 -30 632 -30 502 10 c 128,-1,60
 372 50 372 50 280 127.5 c 128,-1,61
 188 205 188 205 136.5 317.5 c 128,-1,62
 85 430 85 430 78 574 c 0,0,1
EndSplineSet
EndChar

StartChar: D
Encoding: 68 68 38
Width: 1708
GlyphClass: 2
Flags: W
LayerCount: 2
Fore
SplineSet
35 51 m 0,0,1
 37 67 37 67 45 76.5 c 128,-1,2
 53 86 53 86 73 88 c 0,3,4
 97 90 97 90 123.5 94 c 128,-1,5
 150 98 150 98 172.5 105.5 c 128,-1,6
 195 113 195 113 210.5 124 c 128,-1,7
 226 135 226 135 228 152 c 2,8,-1
 400 1234 l 2,9,10
 405 1266 405 1266 392.5 1284.5 c 128,-1,11
 380 1303 380 1303 359 1313 c 128,-1,12
 338 1323 338 1323 311.5 1326 c 128,-1,13
 285 1329 285 1329 263 1331 c 0,14,15
 243 1333 243 1333 236.5 1339 c 128,-1,16
 230 1345 230 1345 234 1368 c 1,17,18
 234 1374 234 1374 237.5 1382.5 c 128,-1,19
 241 1391 241 1391 246.5 1399 c 128,-1,20
 252 1407 252 1407 259.5 1413 c 128,-1,21
 267 1419 267 1419 276 1419 c 2,22,-1
 973 1419 l 1,23,24
 1158 1418 1158 1418 1289.5 1373 c 128,-1,25
 1421 1328 1421 1328 1504.5 1253 c 128,-1,26
 1588 1178 1588 1178 1627 1080 c 128,-1,27
 1666 982 1666 982 1666 877 c 0,28,29
 1666 740 1666 740 1634.5 622 c 128,-1,30
 1603 504 1603 504 1546.5 406.5 c 128,-1,31
 1490 309 1490 309 1411 233 c 128,-1,32
 1332 157 1332 157 1237.5 105.5 c 128,-1,33
 1143 54 1143 54 1035 27 c 128,-1,34
 927 0 927 0 812 0 c 2,35,-1
 62 0 l 2,36,37
 54 0 54 0 48 6 c 128,-1,38
 42 12 42 12 39 20 c 128,-1,39
 36 28 36 28 35 36.5 c 128,-1,40
 34 45 34 45 35 51 c 0,0,1
578 158 m 2,41,42
 576 147 576 147 574 135.5 c 128,-1,43
 572 124 572 124 586 114 c 128,-1,44
 600 104 600 104 639 97.5 c 128,-1,45
 678 91 678 91 758 91 c 0,46,47
 872 91 872 91 971 138.5 c 128,-1,48
 1070 186 1070 186 1143.5 285.5 c 128,-1,49
 1217 385 1217 385 1259 538.5 c 128,-1,50
 1301 692 1301 692 1301 904 c 0,51,52
 1301 1034 1301 1034 1269.5 1117 c 128,-1,53
 1238 1200 1238 1200 1182 1247.5 c 128,-1,54
 1126 1295 1126 1295 1047.5 1313 c 128,-1,55
 969 1331 969 1331 876 1331 c 2,56,-1
 762 1331 l 1,57,-1
 578 158 l 2,41,42
EndSplineSet
EndChar

StartChar: E
Encoding: 69 69 39
Width: 1477
GlyphClass: 2
Flags: W
LayerCount: 2
Fore
SplineSet
5 51 m 0,0,1
 7 67 7 67 15 76.5 c 128,-1,2
 23 86 23 86 43 88 c 0,3,4
 67 90 67 90 96.5 94 c 128,-1,5
 126 98 126 98 152.5 105.5 c 128,-1,6
 179 113 179 113 197.5 124 c 128,-1,7
 216 135 216 135 218 152 c 2,8,-1
 390 1234 l 2,9,10
 395 1266 395 1266 379.5 1284.5 c 128,-1,11
 364 1303 364 1303 339 1313 c 128,-1,12
 314 1323 314 1323 284.5 1326 c 128,-1,13
 255 1329 255 1329 233 1331 c 0,14,15
 212 1333 212 1333 206 1339 c 128,-1,16
 200 1345 200 1345 204 1368 c 1,17,18
 204 1374 204 1374 207.5 1382.5 c 128,-1,19
 211 1391 211 1391 216.5 1399 c 128,-1,20
 222 1407 222 1407 229.5 1413 c 128,-1,21
 237 1419 237 1419 246 1419 c 2,22,-1
 1444 1419 l 1,23,-1
 1419 1104 l 1,24,25
 1417 1095 1417 1095 1411 1089 c 128,-1,26
 1405 1083 1405 1083 1396.5 1078.5 c 128,-1,27
 1388 1074 1388 1074 1379.5 1072 c 128,-1,28
 1371 1070 1371 1070 1364 1070 c 0,29,30
 1348 1070 1348 1070 1331.5 1076.5 c 128,-1,31
 1315 1083 1315 1083 1315 1103 c 0,32,33
 1315 1113 1315 1113 1313.5 1134 c 128,-1,34
 1312 1155 1312 1155 1306.5 1180.5 c 128,-1,35
 1301 1206 1301 1206 1290.5 1232.5 c 128,-1,36
 1280 1259 1280 1259 1262 1281 c 128,-1,37
 1244 1303 1244 1303 1218 1317 c 128,-1,38
 1192 1331 1192 1331 1155 1331 c 2,39,-1
 752 1331 l 1,40,-1
 665 778 l 1,41,-1
 942 778 l 1,42,43
 962 781 962 781 982 802 c 128,-1,44
 1002 823 1002 823 1019 850.5 c 128,-1,45
 1036 878 1036 878 1048.5 905.5 c 128,-1,46
 1061 933 1061 933 1065 948 c 0,47,48
 1070 968 1070 968 1087.5 974.5 c 128,-1,49
 1105 981 1105 981 1121 981 c 0,50,51
 1127 981 1127 981 1134 979 c 128,-1,52
 1141 977 1141 977 1147 972.5 c 128,-1,53
 1153 968 1153 968 1156 962 c 128,-1,54
 1159 956 1159 956 1158 947 c 2,55,-1
 1088 504 l 2,56,57
 1085 487 1085 487 1068.5 478.5 c 128,-1,58
 1052 470 1052 470 1041 470 c 0,59,60
 1033 470 1033 470 1024.5 471.5 c 128,-1,61
 1016 473 1016 473 1009.5 476.5 c 128,-1,62
 1003 480 1003 480 998.5 486.5 c 128,-1,63
 994 493 994 493 995 503 c 1,64,65
 995 519 995 519 992 549 c 128,-1,66
 989 579 989 579 981 608.5 c 128,-1,67
 973 638 973 638 959 660 c 128,-1,68
 945 682 945 682 924 682 c 2,69,-1
 650 682 l 1,70,-1
 572 197 l 2,71,72
 567 170 567 170 572 152 c 128,-1,73
 577 134 577 134 588.5 123 c 128,-1,74
 600 112 600 112 615 107 c 128,-1,75
 630 102 630 102 647 101 c 1,76,-1
 1022 101 l 2,77,78
 1063 101 1063 101 1098 118.5 c 128,-1,79
 1133 136 1133 136 1162 162.5 c 128,-1,80
 1191 189 1191 189 1214 221.5 c 128,-1,81
 1237 254 1237 254 1253.5 284 c 128,-1,82
 1270 314 1270 314 1280 338.5 c 128,-1,83
 1290 363 1290 363 1294 373 c 0,84,85
 1301 392 1301 392 1318.5 399 c 128,-1,86
 1336 406 1336 406 1352 406 c 0,87,88
 1375 406 1375 406 1388.5 397.5 c 128,-1,89
 1402 389 1402 389 1401 372 c 1,90,-1
 1332 0 l 1,91,-1
 32 0 l 2,92,93
 23 0 23 0 17.5 6 c 128,-1,94
 12 12 12 12 9 20 c 128,-1,95
 6 28 6 28 5 36.5 c 128,-1,96
 4 45 4 45 5 51 c 0,0,1
EndSplineSet
EndChar

StartChar: F
Encoding: 70 70 40
Width: 1374
GlyphClass: 2
Flags: W
LayerCount: 2
Fore
SplineSet
5 51 m 0,0,1
 7 67 7 67 15 76.5 c 128,-1,2
 23 86 23 86 43 88 c 0,3,4
 73 90 73 90 103 94 c 128,-1,5
 133 98 133 98 158 105.5 c 128,-1,6
 183 113 183 113 199.5 124 c 128,-1,7
 216 135 216 135 218 152 c 2,8,-1
 390 1234 l 2,9,10
 395 1266 395 1266 381 1284.5 c 128,-1,11
 367 1303 367 1303 343 1313 c 128,-1,12
 319 1323 319 1323 289.5 1326 c 128,-1,13
 260 1329 260 1329 233 1331 c 0,14,15
 212 1333 212 1333 206 1339 c 128,-1,16
 200 1345 200 1345 204 1368 c 1,17,18
 204 1374 204 1374 207.5 1382.5 c 128,-1,19
 211 1391 211 1391 216.5 1399 c 128,-1,20
 222 1407 222 1407 229.5 1413 c 128,-1,21
 237 1419 237 1419 246 1419 c 2,22,-1
 1410 1419 l 1,23,-1
 1392 1070 l 1,24,25
 1389 1061 1389 1061 1381 1055 c 128,-1,26
 1373 1049 1373 1049 1363 1044.5 c 128,-1,27
 1353 1040 1353 1040 1342.5 1038 c 128,-1,28
 1332 1036 1332 1036 1324 1036 c 0,29,30
 1308 1036 1308 1036 1297 1042.5 c 128,-1,31
 1286 1049 1286 1049 1288 1069 c 0,32,33
 1288 1079 1288 1079 1283 1102 c 128,-1,34
 1278 1125 1278 1125 1268 1154.5 c 128,-1,35
 1258 1184 1258 1184 1243.5 1215.5 c 128,-1,36
 1229 1247 1229 1247 1210.5 1272.5 c 128,-1,37
 1192 1298 1192 1298 1169 1315 c 128,-1,38
 1146 1332 1146 1332 1120 1332 c 2,39,-1
 741 1332 l 1,40,-1
 649 741 l 1,41,-1
 913 741 l 1,42,43
 932 744 932 744 952 766 c 128,-1,44
 972 788 972 788 989 816.5 c 128,-1,45
 1006 845 1006 845 1018.5 873 c 128,-1,46
 1031 901 1031 901 1036 916 c 1,47,48
 1041 936 1041 936 1058.5 942.5 c 128,-1,49
 1076 949 1076 949 1092 949 c 0,50,51
 1103 949 1103 949 1116.5 940.5 c 128,-1,52
 1130 932 1130 932 1128 915 c 2,53,-1
 1057 472 l 2,54,55
 1056 463 1056 463 1051 457 c 128,-1,56
 1046 451 1046 451 1039 446.5 c 128,-1,57
 1032 442 1032 442 1024.5 440 c 128,-1,58
 1017 438 1017 438 1011 438 c 0,59,60
 995 438 995 438 979.5 444.5 c 128,-1,61
 964 451 964 451 964 471 c 1,62,63
 965 487 965 487 962 518 c 128,-1,64
 959 549 959 549 950.5 579.5 c 128,-1,65
 942 610 942 610 928 632.5 c 128,-1,66
 914 655 914 655 893 655 c 2,67,-1
 635 655 l 1,68,-1
 562 197 l 2,69,70
 556 165 556 165 567.5 145 c 128,-1,71
 579 125 579 125 610 114 c 128,-1,72
 641 103 641 103 692.5 97.5 c 128,-1,73
 744 92 744 92 817 88 c 0,74,75
 834 87 834 87 842.5 80.5 c 128,-1,76
 851 74 851 74 848 51 c 0,77,78
 847 45 847 45 844.5 36.5 c 128,-1,79
 842 28 842 28 838.5 20 c 128,-1,80
 835 12 835 12 829 6 c 128,-1,81
 823 0 823 0 814 0 c 2,82,-1
 32 0 l 2,83,84
 23 0 23 0 17.5 6 c 128,-1,85
 12 12 12 12 9 20 c 128,-1,86
 6 28 6 28 5 36.5 c 128,-1,87
 4 45 4 45 5 51 c 0,0,1
EndSplineSet
EndChar

StartChar: G
Encoding: 71 71 41
Width: 1653
GlyphClass: 2
Flags: W
LayerCount: 2
Fore
SplineSet
100 575 m 0,0,1
 95 717 95 717 128 837.5 c 128,-1,2
 161 958 161 958 222 1055 c 128,-1,3
 283 1152 283 1152 368 1225.5 c 128,-1,4
 453 1299 453 1299 552 1349 c 128,-1,5
 651 1399 651 1399 760 1424 c 128,-1,6
 869 1449 869 1449 979 1449 c 0,7,8
 1114 1449 1114 1449 1206.5 1439.5 c 128,-1,9
 1299 1430 1299 1430 1361 1416.5 c 128,-1,10
 1423 1403 1423 1403 1462 1388 c 128,-1,11
 1501 1373 1501 1373 1529 1361 c 1,12,-1
 1480 1051 l 1,13,14
 1480 1039 1480 1039 1473 1031.5 c 128,-1,15
 1466 1024 1466 1024 1456.5 1019 c 128,-1,16
 1447 1014 1447 1014 1437.5 1012 c 128,-1,17
 1428 1010 1428 1010 1422 1010 c 0,18,19
 1398 1010 1398 1010 1381.5 1014 c 128,-1,20
 1365 1018 1365 1018 1360 1039 c 1,21,22
 1348 1147 1348 1147 1309 1209.5 c 128,-1,23
 1270 1272 1270 1272 1214 1304 c 128,-1,24
 1158 1336 1158 1336 1090 1344.5 c 128,-1,25
 1022 1353 1022 1353 953 1353 c 0,26,27
 866 1353 866 1353 795.5 1318.5 c 128,-1,28
 725 1284 725 1284 670.5 1225 c 128,-1,29
 616 1166 616 1166 577 1087.5 c 128,-1,30
 538 1009 538 1009 513.5 922 c 128,-1,31
 489 835 489 835 478.5 743.5 c 128,-1,32
 468 652 468 652 470 568 c 0,33,34
 472 473 472 473 487.5 398.5 c 128,-1,35
 503 324 503 324 527.5 268 c 128,-1,36
 552 212 552 212 583.5 173.5 c 128,-1,37
 615 135 615 135 649.5 111 c 128,-1,38
 684 87 684 87 719 76 c 128,-1,39
 754 65 754 65 785 65 c 0,40,41
 849 65 849 65 898.5 75.5 c 128,-1,42
 948 86 948 86 983 102 c 128,-1,43
 1018 118 1018 118 1038 136.5 c 128,-1,44
 1058 155 1058 155 1064 170 c 1,45,-1
 1119 456 l 1,46,47
 1118 461 1118 461 1118.5 465.5 c 128,-1,48
 1119 470 1119 470 1120 475 c 1,49,50
 1119 500 1119 500 1100.5 515 c 128,-1,51
 1082 530 1082 530 1055 537.5 c 128,-1,52
 1028 545 1028 545 997 548 c 128,-1,53
 966 551 966 551 939 553 c 1,54,55
 909 554 909 554 908 574 c 1,56,57
 909 572 909 572 910.5 582.5 c 128,-1,58
 912 593 912 593 916 606 c 128,-1,59
 920 619 920 619 928.5 630 c 128,-1,60
 937 641 937 641 953 641 c 2,61,-1
 1605 641 l 2,62,63
 1618 641 1618 641 1624 628.5 c 128,-1,64
 1630 616 1630 616 1630 603 c 0,65,66
 1631 583 1631 583 1622 569 c 128,-1,67
 1613 555 1613 555 1590 553 c 0,68,69
 1566 551 1566 551 1542 547 c 128,-1,70
 1518 543 1518 543 1498.5 535.5 c 128,-1,71
 1479 528 1479 528 1466.5 516.5 c 128,-1,72
 1454 505 1454 505 1454 489 c 1,73,-1
 1391 123 l 1,74,75
 1378 106 1378 106 1330.5 80.5 c 128,-1,76
 1283 55 1283 55 1207 30 c 128,-1,77
 1131 5 1131 5 1030.5 -12.5 c 128,-1,78
 930 -30 930 -30 812 -30 c 0,79,80
 733 -30 733 -30 650.5 -16.5 c 128,-1,81
 568 -3 568 -3 490.5 27 c 128,-1,82
 413 57 413 57 343.5 104 c 128,-1,83
 274 151 274 151 221 218.5 c 128,-1,84
 168 286 168 286 135.5 374.5 c 128,-1,85
 103 463 103 463 100 575 c 0,0,1
EndSplineSet
EndChar

StartChar: H
Encoding: 72 72 42
Width: 1870
GlyphClass: 2
Flags: W
LayerCount: 2
Fore
SplineSet
1287 682 m 1,0,-1
 630 682 l 1,1,-1
 553 185 l 1,2,3
 547 153 547 153 558.5 134.5 c 128,-1,4
 570 116 570 116 591 106 c 128,-1,5
 612 96 612 96 638 93 c 128,-1,6
 664 90 664 90 687 88 c 0,7,8
 707 86 707 86 714 80 c 128,-1,9
 721 74 721 74 716 51 c 0,10,11
 715 45 715 45 712 36.5 c 128,-1,12
 709 28 709 28 704 20 c 128,-1,13
 699 12 699 12 692.5 6 c 128,-1,14
 686 0 686 0 677 0 c 2,15,-1
 52 0 l 2,16,17
 43 0 43 0 37.5 6 c 128,-1,18
 32 12 32 12 28.5 20 c 128,-1,19
 25 28 25 28 23.5 36.5 c 128,-1,20
 22 45 22 45 23 51 c 0,21,22
 27 67 27 67 35 76.5 c 128,-1,23
 43 86 43 86 63 88 c 0,24,25
 89 90 89 90 115.5 94 c 128,-1,26
 142 98 142 98 163.5 105.5 c 128,-1,27
 185 113 185 113 200.5 124 c 128,-1,28
 216 135 216 135 219 152 c 2,29,-1
 388 1234 l 2,30,31
 394 1266 394 1266 383 1284.5 c 128,-1,32
 372 1303 372 1303 351.5 1313 c 128,-1,33
 331 1323 331 1323 304.5 1326 c 128,-1,34
 278 1329 278 1329 254 1331 c 0,35,36
 233 1333 233 1333 226.5 1339 c 128,-1,37
 220 1345 220 1345 223 1368 c 0,38,39
 224 1374 224 1374 228 1382.5 c 128,-1,40
 232 1391 232 1391 237.5 1399 c 128,-1,41
 243 1407 243 1407 250 1413 c 128,-1,42
 257 1419 257 1419 266 1419 c 2,43,-1
 891 1419 l 2,44,45
 900 1419 900 1419 905.5 1413 c 128,-1,46
 911 1407 911 1407 914 1399 c 128,-1,47
 917 1391 917 1391 917 1382.5 c 128,-1,48
 917 1374 917 1374 916 1368 c 0,49,50
 914 1352 914 1352 906 1342.5 c 128,-1,51
 898 1333 898 1333 878 1331 c 0,52,53
 853 1329 853 1329 827 1325 c 128,-1,54
 801 1321 801 1321 778.5 1313.5 c 128,-1,55
 756 1306 756 1306 740.5 1294.5 c 128,-1,56
 725 1283 725 1283 722 1267 c 2,57,-1
 645 778 l 1,58,-1
 1302 778 l 1,59,-1
 1373 1234 l 1,60,61
 1379 1266 1379 1266 1368 1284.5 c 128,-1,62
 1357 1303 1357 1303 1336.5 1312.5 c 128,-1,63
 1316 1322 1316 1322 1290 1325.5 c 128,-1,64
 1264 1329 1264 1329 1239 1331 c 0,65,66
 1218 1333 1218 1333 1211.5 1339 c 128,-1,67
 1205 1345 1205 1345 1208 1368 c 0,68,69
 1209 1374 1209 1374 1213 1382.5 c 128,-1,70
 1217 1391 1217 1391 1222.5 1399 c 128,-1,71
 1228 1407 1228 1407 1235 1413 c 128,-1,72
 1242 1419 1242 1419 1251 1419 c 2,73,-1
 1856 1419 l 2,74,75
 1865 1419 1865 1419 1870 1413 c 128,-1,76
 1875 1407 1875 1407 1878 1399 c 128,-1,77
 1881 1391 1881 1391 1881.5 1382.5 c 128,-1,78
 1882 1374 1882 1374 1881 1368 c 0,79,80
 1879 1352 1879 1352 1871 1342.5 c 128,-1,81
 1863 1333 1863 1333 1843 1331 c 0,82,83
 1821 1329 1821 1329 1798 1325 c 128,-1,84
 1775 1321 1775 1321 1755.5 1313.5 c 128,-1,85
 1736 1306 1736 1306 1722.5 1294.5 c 128,-1,86
 1709 1283 1709 1283 1707 1267 c 2,87,-1
 1538 185 l 1,88,89
 1531 153 1531 153 1544.5 134.5 c 128,-1,90
 1558 116 1558 116 1582.5 106 c 128,-1,91
 1607 96 1607 96 1636.5 93 c 128,-1,92
 1666 90 1666 90 1692 88 c 0,93,94
 1712 86 1712 86 1719 80 c 128,-1,95
 1726 74 1726 74 1721 51 c 1,96,97
 1721 45 1721 45 1718 36.5 c 128,-1,98
 1715 28 1715 28 1710 20 c 128,-1,99
 1705 12 1705 12 1698 6 c 128,-1,100
 1691 0 1691 0 1682 0 c 2,101,-1
 1037 0 l 2,102,103
 1028 0 1028 0 1022.5 6 c 128,-1,104
 1017 12 1017 12 1013.5 20 c 128,-1,105
 1010 28 1010 28 1008.5 36.5 c 128,-1,106
 1007 45 1007 45 1008 51 c 0,107,108
 1012 67 1012 67 1020 76.5 c 128,-1,109
 1028 86 1028 86 1048 88 c 0,110,111
 1072 90 1072 90 1098.5 94 c 128,-1,112
 1125 98 1125 98 1147.5 105.5 c 128,-1,113
 1170 113 1170 113 1185.5 124 c 128,-1,114
 1201 135 1201 135 1204 152 c 2,115,-1
 1287 682 l 1,0,-1
EndSplineSet
EndChar

StartChar: I
Encoding: 73 73 43
Width: 924
GlyphClass: 2
Flags: W
LayerCount: 2
Fore
SplineSet
33 51 m 0,0,1
 35 67 35 67 43 76.5 c 128,-1,2
 51 86 51 86 71 88 c 0,3,4
 95 90 95 90 122 94 c 128,-1,5
 149 98 149 98 171.5 105.5 c 128,-1,6
 194 113 194 113 209.5 124 c 128,-1,7
 225 135 225 135 227 152 c 2,8,-1
 400 1234 l 2,9,10
 406 1266 406 1266 393 1284.5 c 128,-1,11
 380 1303 380 1303 357 1313 c 128,-1,12
 334 1323 334 1323 306.5 1326 c 128,-1,13
 279 1329 279 1329 257 1331 c 0,14,15
 236 1333 236 1333 229.5 1339 c 128,-1,16
 223 1345 223 1345 228 1368 c 0,17,18
 229 1374 229 1374 233 1382.5 c 128,-1,19
 237 1391 237 1391 243 1399 c 128,-1,20
 249 1407 249 1407 256.5 1413 c 128,-1,21
 264 1419 264 1419 273 1419 c 2,22,-1
 918 1419 l 2,23,24
 927 1419 927 1419 932 1413 c 128,-1,25
 937 1407 937 1407 939 1399 c 128,-1,26
 941 1391 941 1391 941.5 1382.5 c 128,-1,27
 942 1374 942 1374 941 1368 c 0,28,29
 939 1352 939 1352 930 1342.5 c 128,-1,30
 921 1333 921 1333 901 1331 c 0,31,32
 875 1329 875 1329 850.5 1325 c 128,-1,33
 826 1321 826 1321 805.5 1313.5 c 128,-1,34
 785 1306 785 1306 770.5 1294.5 c 128,-1,35
 756 1283 756 1283 752 1267 c 1,36,-1
 581 185 l 2,37,38
 575 153 575 153 588 134.5 c 128,-1,39
 601 116 601 116 624 106 c 128,-1,40
 647 96 647 96 674.5 93 c 128,-1,41
 702 90 702 90 725 88 c 0,42,43
 745 86 745 86 752 80 c 128,-1,44
 759 74 759 74 754 51 c 0,45,46
 753 45 753 45 749.5 36.5 c 128,-1,47
 746 28 746 28 740.5 20 c 128,-1,48
 735 12 735 12 727.5 6 c 128,-1,49
 720 0 720 0 711 0 c 2,50,-1
 56 0 l 2,51,52
 47 0 47 0 42 6 c 128,-1,53
 37 12 37 12 35 20 c 128,-1,54
 33 28 33 28 32.5 36.5 c 128,-1,55
 32 45 32 45 33 51 c 0,0,1
EndSplineSet
EndChar

StartChar: J
Encoding: 74 74 44
Width: 1219
GlyphClass: 2
Flags: W
LayerCount: 2
Fore
SplineSet
444 -30 m 0,0,1
 375 -30 375 -30 297 -9.5 c 128,-1,2
 219 11 219 11 152.5 55.5 c 128,-1,3
 86 100 86 100 42.5 170.5 c 128,-1,4
 -1 241 -1 241 -1 340 c 0,5,6
 -1 380 -1 380 13 427.5 c 128,-1,7
 27 475 27 475 56 515.5 c 128,-1,8
 85 556 85 556 129.5 583.5 c 128,-1,9
 174 611 174 611 235 611 c 0,10,11
 263 611 263 611 288 603.5 c 128,-1,12
 313 596 313 596 331 583.5 c 128,-1,13
 349 571 349 571 359.5 556 c 128,-1,14
 370 541 370 541 370 526 c 1,15,-1
 300 177 l 1,16,17
 300 150 300 150 312 128 c 128,-1,18
 324 106 324 106 344.5 90.5 c 128,-1,19
 365 75 365 75 392 67 c 128,-1,20
 419 59 419 59 449 59 c 0,21,22
 500 59 500 59 541.5 79 c 128,-1,23
 583 99 583 99 615 141 c 128,-1,24
 647 183 647 183 670.5 248.5 c 128,-1,25
 694 314 694 314 708 406 c 2,26,-1
 842 1234 l 2,27,28
 843 1239 843 1239 843 1248 c 0,29,30
 843 1275 843 1275 831 1291 c 128,-1,31
 819 1307 819 1307 793 1315 c 128,-1,32
 767 1323 767 1323 725.5 1326 c 128,-1,33
 684 1329 684 1329 625 1331 c 0,34,35
 594 1332 594 1332 594 1352 c 0,36,37
 594 1361 594 1361 596.5 1372.5 c 128,-1,38
 599 1384 599 1384 604.5 1394.5 c 128,-1,39
 610 1405 610 1405 618.5 1412 c 128,-1,40
 627 1419 627 1419 638 1419 c 2,41,-1
 1383 1419 l 2,42,43
 1391 1419 1391 1419 1396 1414 c 128,-1,44
 1401 1409 1401 1409 1404 1402 c 128,-1,45
 1407 1395 1407 1395 1408 1386.5 c 128,-1,46
 1409 1378 1409 1378 1409 1372 c 0,47,48
 1409 1355 1409 1355 1398.5 1344 c 128,-1,49
 1388 1333 1388 1333 1369 1331 c 0,50,51
 1346 1329 1346 1329 1317 1325 c 128,-1,52
 1288 1321 1288 1321 1261.5 1313.5 c 128,-1,53
 1235 1306 1235 1306 1215.5 1294.5 c 128,-1,54
 1196 1283 1196 1283 1193 1267 c 2,55,-1
 1061 439 l 1,56,57
 1042 341 1042 341 1006 268.5 c 128,-1,58
 970 196 970 196 922 144 c 128,-1,59
 874 92 874 92 816.5 58 c 128,-1,60
 759 24 759 24 697 4.5 c 128,-1,61
 635 -15 635 -15 570.5 -22.5 c 128,-1,62
 506 -30 506 -30 444 -30 c 0,0,1
EndSplineSet
EndChar

StartChar: K
Encoding: 75 75 45
Width: 1673
GlyphClass: 2
Flags: W
LayerCount: 2
Fore
SplineSet
25 51 m 0,0,1
 27 67 27 67 35 76.5 c 128,-1,2
 43 86 43 86 63 88 c 0,3,4
 87 90 87 90 113.5 94 c 128,-1,5
 140 98 140 98 162.5 105.5 c 128,-1,6
 185 113 185 113 200 124 c 128,-1,7
 215 135 215 135 218 152 c 2,8,-1
 390 1234 l 2,9,10
 395 1266 395 1266 383 1284.5 c 128,-1,11
 371 1303 371 1303 349.5 1313 c 128,-1,12
 328 1323 328 1323 301.5 1326 c 128,-1,13
 275 1329 275 1329 253 1331 c 0,14,15
 232 1333 232 1333 226 1339 c 128,-1,16
 220 1345 220 1345 224 1368 c 1,17,18
 224 1374 224 1374 227.5 1382.5 c 128,-1,19
 231 1391 231 1391 236.5 1399 c 128,-1,20
 242 1407 242 1407 249.5 1413 c 128,-1,21
 257 1419 257 1419 266 1419 c 2,22,-1
 891 1419 l 2,23,24
 900 1419 900 1419 905 1413 c 128,-1,25
 910 1407 910 1407 913 1399 c 128,-1,26
 916 1391 916 1391 916.5 1382.5 c 128,-1,27
 917 1374 917 1374 917 1368 c 1,28,29
 914 1352 914 1352 905.5 1342.5 c 128,-1,30
 897 1333 897 1333 877 1331 c 0,31,32
 851 1329 851 1329 826.5 1325 c 128,-1,33
 802 1321 802 1321 781.5 1313.5 c 128,-1,34
 761 1306 761 1306 748 1295 c 128,-1,35
 735 1284 735 1284 732 1267 c 2,36,-1
 560 185 l 2,37,38
 555 153 555 153 568 134.5 c 128,-1,39
 581 116 581 116 605 106 c 128,-1,40
 629 96 629 96 659 93 c 128,-1,41
 689 90 689 90 717 88 c 0,42,43
 737 86 737 86 744 80 c 128,-1,44
 751 74 751 74 748 51 c 0,45,46
 747 45 747 45 743.5 36.5 c 128,-1,47
 740 28 740 28 734.5 20 c 128,-1,48
 729 12 729 12 722 6 c 128,-1,49
 715 0 715 0 707 0 c 2,50,-1
 52 0 l 2,51,52
 43 0 43 0 37.5 6 c 128,-1,53
 32 12 32 12 29 20 c 128,-1,54
 26 28 26 28 25 36.5 c 128,-1,55
 24 45 24 45 25 51 c 0,0,1
1239 1246 m 2,56,57
 1254 1260 1254 1260 1254 1275 c 0,58,59
 1254 1285 1254 1285 1243.5 1294.5 c 128,-1,60
 1233 1304 1233 1304 1215.5 1311 c 128,-1,61
 1198 1318 1198 1318 1174.5 1323 c 128,-1,62
 1151 1328 1151 1328 1125 1330 c 0,63,64
 1106 1332 1106 1332 1102.5 1341.5 c 128,-1,65
 1099 1351 1099 1351 1102 1367 c 1,66,67
 1102 1373 1102 1373 1105.5 1381.5 c 128,-1,68
 1109 1390 1109 1390 1114.5 1398 c 128,-1,69
 1120 1406 1120 1406 1127.5 1412 c 128,-1,70
 1135 1418 1135 1418 1144 1418 c 2,71,-1
 1666 1418 l 2,72,73
 1675 1418 1675 1418 1680 1412 c 128,-1,74
 1685 1406 1685 1406 1688 1398 c 128,-1,75
 1691 1390 1691 1390 1691.5 1381.5 c 128,-1,76
 1692 1373 1692 1373 1692 1367 c 1,77,78
 1684 1330 1684 1330 1651 1330 c 0,79,80
 1591 1330 1591 1330 1542.5 1316 c 128,-1,81
 1494 1302 1494 1302 1458 1283 c 128,-1,82
 1422 1264 1422 1264 1397.5 1244 c 128,-1,83
 1373 1224 1373 1224 1360 1211 c 2,84,-1
 986 846 l 1,85,86
 1074 736 1074 736 1134.5 653.5 c 128,-1,87
 1195 571 1195 571 1238 508.5 c 128,-1,88
 1281 446 1281 446 1310.5 400 c 128,-1,89
 1340 354 1340 354 1366 317 c 0,90,91
 1385 290 1385 290 1413.5 252 c 128,-1,92
 1442 214 1442 214 1475.5 179 c 128,-1,93
 1509 144 1509 144 1545 118.5 c 128,-1,94
 1581 93 1581 93 1617 89 c 0,95,96
 1639 87 1639 87 1643.5 71 c 128,-1,97
 1648 55 1648 55 1644 32 c 0,98,99
 1642 21 1642 21 1633 10.5 c 128,-1,100
 1624 0 1624 0 1607 0 c 2,101,-1
 1189 0 l 2,102,103
 1164 0 1164 0 1147.5 7 c 128,-1,104
 1131 14 1131 14 1119.5 24.5 c 128,-1,105
 1108 35 1108 35 1101.5 47 c 128,-1,106
 1095 59 1095 59 1089 70 c 0,107,108
 1004 229 1004 229 942.5 337 c 128,-1,109
 881 445 881 445 834.5 515.5 c 128,-1,110
 788 586 788 586 753.5 626.5 c 128,-1,111
 719 667 719 667 688 692 c 1,112,-1
 1239 1246 l 2,56,57
EndSplineSet
EndChar

StartChar: L
Encoding: 76 76 46
Width: 1405
GlyphClass: 2
Flags: W
LayerCount: 2
Fore
SplineSet
25 51 m 0,0,1
 27 67 27 67 35 76.5 c 128,-1,2
 43 86 43 86 63 88 c 0,3,4
 87 90 87 90 113.5 94 c 128,-1,5
 140 98 140 98 162.5 105.5 c 128,-1,6
 185 113 185 113 200.5 124 c 128,-1,7
 216 135 216 135 218 152 c 2,8,-1
 390 1234 l 2,9,10
 395 1266 395 1266 382.5 1284.5 c 128,-1,11
 370 1303 370 1303 349 1313 c 128,-1,12
 328 1323 328 1323 301.5 1326 c 128,-1,13
 275 1329 275 1329 253 1331 c 0,14,15
 232 1333 232 1333 226 1339 c 128,-1,16
 220 1345 220 1345 224 1368 c 1,17,18
 224 1374 224 1374 227.5 1382.5 c 128,-1,19
 231 1391 231 1391 236.5 1399 c 128,-1,20
 242 1407 242 1407 249.5 1413 c 128,-1,21
 257 1419 257 1419 266 1419 c 2,22,-1
 931 1419 l 2,23,24
 940 1419 940 1419 945 1413 c 128,-1,25
 950 1407 950 1407 953 1399 c 128,-1,26
 956 1391 956 1391 956.5 1382.5 c 128,-1,27
 957 1374 957 1374 957 1368 c 1,28,29
 954 1352 954 1352 945.5 1341.5 c 128,-1,30
 937 1331 937 1331 917 1331 c 0,31,32
 891 1331 891 1331 863.5 1326.5 c 128,-1,33
 836 1322 836 1322 811.5 1311.5 c 128,-1,34
 787 1301 787 1301 769.5 1283 c 128,-1,35
 752 1265 752 1265 747 1237 c 2,36,-1
 578 177 l 2,37,38
 575 154 575 154 579 139.5 c 128,-1,39
 583 125 583 125 593 116.5 c 128,-1,40
 603 108 603 108 617.5 104.5 c 128,-1,41
 632 101 632 101 649 101 c 2,42,-1
 929 101 l 2,43,44
 974 101 974 101 1016.5 133.5 c 128,-1,45
 1059 166 1059 166 1097.5 216.5 c 128,-1,46
 1136 267 1136 267 1170 326.5 c 128,-1,47
 1204 386 1204 386 1232 440 c 1,48,49
 1240 458 1240 458 1259 465.5 c 128,-1,50
 1278 473 1278 473 1294 473 c 0,51,52
 1303 473 1303 473 1314 471 c 128,-1,53
 1325 469 1325 469 1333.5 464.5 c 128,-1,54
 1342 460 1342 460 1347 454 c 128,-1,55
 1352 448 1352 448 1350 439 c 2,56,-1
 1243 0 l 1,57,-1
 52 0 l 2,58,59
 43 0 43 0 37.5 6 c 128,-1,60
 32 12 32 12 29 20 c 128,-1,61
 26 28 26 28 25 36.5 c 128,-1,62
 24 45 24 45 25 51 c 0,0,1
EndSplineSet
EndChar

StartChar: M
Encoding: 77 77 47
Width: 2116
GlyphClass: 2
Flags: W
LayerCount: 2
Fore
SplineSet
824 0 m 1,0,-1
 824 2 l 1,1,-1
 548 1281 l 1,2,-1
 512 1281 l 1,3,-1
 290 185 l 2,4,5
 284 153 284 153 300.5 134.5 c 128,-1,6
 317 116 317 116 345.5 106.5 c 128,-1,7
 374 97 374 97 407.5 93.5 c 128,-1,8
 441 90 441 90 468 88 c 0,9,10
 488 86 488 86 495 80 c 128,-1,11
 502 74 502 74 499 51 c 0,12,13
 498 45 498 45 495 36.5 c 128,-1,14
 492 28 492 28 486.5 20 c 128,-1,15
 481 12 481 12 474 6 c 128,-1,16
 467 0 467 0 458 0 c 2,17,-1
 -37 0 l 2,18,19
 -45 0 -45 0 -50 6 c 128,-1,20
 -55 12 -55 12 -58 20 c 128,-1,21
 -61 28 -61 28 -61.5 36.5 c 128,-1,22
 -62 45 -62 45 -61 51 c 0,23,24
 -59 67 -59 67 -51.5 76.5 c 128,-1,25
 -44 86 -44 86 -24 88 c 0,26,27
 5 90 5 90 40 93.5 c 128,-1,28
 75 97 75 97 106.5 106.5 c 128,-1,29
 138 116 138 116 162 134.5 c 128,-1,30
 186 153 186 153 192 184 c 2,31,-1
 408 1234 l 2,32,33
 414 1266 414 1266 396 1284.5 c 128,-1,34
 378 1303 378 1303 348 1312.5 c 128,-1,35
 318 1322 318 1322 283 1325.5 c 128,-1,36
 248 1329 248 1329 221 1331 c 0,37,38
 200 1333 200 1333 193.5 1339 c 128,-1,39
 187 1345 187 1345 190 1368 c 0,40,41
 191 1374 191 1374 194 1382.5 c 128,-1,42
 197 1391 197 1391 202.5 1399 c 128,-1,43
 208 1407 208 1407 216 1413 c 128,-1,44
 224 1419 224 1419 233 1419 c 2,45,-1
 867 1419 l 1,46,-1
 1042 447 l 1,47,-1
 1054 447 l 1,48,-1
 1474 1246 l 1,49,50
 1502 1306 1502 1306 1521 1345 c 128,-1,51
 1540 1384 1540 1384 1553 1419 c 1,52,-1
 2152 1419 l 2,53,54
 2161 1419 2161 1419 2166 1413 c 128,-1,55
 2171 1407 2171 1407 2174 1399 c 128,-1,56
 2177 1391 2177 1391 2177.5 1382.5 c 128,-1,57
 2178 1374 2178 1374 2177 1368 c 0,58,59
 2175 1352 2175 1352 2167 1342.5 c 128,-1,60
 2159 1333 2159 1333 2139 1331 c 0,61,62
 2115 1329 2115 1329 2085 1325 c 128,-1,63
 2055 1321 2055 1321 2028.5 1313.5 c 128,-1,64
 2002 1306 2002 1306 1983.5 1294.5 c 128,-1,65
 1965 1283 1965 1283 1963 1267 c 2,66,-1
 1844 185 l 2,67,68
 1840 153 1840 153 1857.5 134.5 c 128,-1,69
 1875 116 1875 116 1902 106 c 128,-1,70
 1929 96 1929 96 1959 93 c 128,-1,71
 1989 90 1989 90 2012 88 c 0,72,73
 2032 86 2032 86 2039 80 c 128,-1,74
 2046 74 2046 74 2043 51 c 0,75,76
 2042 45 2042 45 2038.5 36.5 c 128,-1,77
 2035 28 2035 28 2029.5 20 c 128,-1,78
 2024 12 2024 12 2017 6 c 128,-1,79
 2010 0 2010 0 2002 0 c 2,80,-1
 1289 0 l 2,81,82
 1281 0 1281 0 1275.5 6 c 128,-1,83
 1270 12 1270 12 1266.5 20 c 128,-1,84
 1263 28 1263 28 1262 36.5 c 128,-1,85
 1261 45 1261 45 1262 51 c 0,86,87
 1264 67 1264 67 1272 76.5 c 128,-1,88
 1280 86 1280 86 1300 88 c 0,89,90
 1324 90 1324 90 1357 94 c 128,-1,91
 1390 98 1390 98 1419.5 105.5 c 128,-1,92
 1449 113 1449 113 1470.5 124 c 128,-1,93
 1492 135 1492 135 1494 152 c 2,94,-1
 1622 1281 l 1,95,-1
 1593 1281 l 1,96,-1
 926 0 l 1,97,-1
 826 0 l 1,98,-1
 824 0 l 1,0,-1
EndSplineSet
EndChar

StartChar: N
Encoding: 78 78 48
Width: 1700
GlyphClass: 2
Flags: W
LayerCount: 2
Fore
SplineSet
-30 51 m 0,0,1
 -27 67 -27 67 -18.5 76.5 c 128,-1,2
 -10 86 -10 86 10 88 c 0,3,4
 34 90 34 90 67.5 94.5 c 128,-1,5
 101 99 101 99 133.5 108 c 128,-1,6
 166 117 166 117 190.5 132.5 c 128,-1,7
 215 148 215 148 220 172 c 1,8,-1
 388 1204 l 2,9,10
 394 1236 394 1236 379.5 1259.5 c 128,-1,11
 365 1283 365 1283 340 1298 c 128,-1,12
 315 1313 315 1313 285.5 1321 c 128,-1,13
 256 1329 256 1329 234 1331 c 0,14,15
 213 1333 213 1333 207 1339 c 128,-1,16
 201 1345 201 1345 205 1368 c 0,17,18
 206 1374 206 1374 210 1382.5 c 128,-1,19
 214 1391 214 1391 219.5 1399 c 128,-1,20
 225 1407 225 1407 232.5 1413 c 128,-1,21
 240 1419 240 1419 249 1419 c 2,22,-1
 750 1419 l 1,23,-1
 1322 308 l 1,24,-1
 1334 308 l 1,25,-1
 1486 1234 l 2,26,27
 1492 1266 1492 1266 1468 1284.5 c 128,-1,28
 1444 1303 1444 1303 1408 1313 c 128,-1,29
 1372 1323 1372 1323 1333.5 1326 c 128,-1,30
 1295 1329 1295 1329 1273 1331 c 0,31,32
 1252 1333 1252 1333 1246 1339 c 128,-1,33
 1240 1345 1240 1345 1244 1368 c 0,34,35
 1245 1374 1245 1374 1249 1382.5 c 128,-1,36
 1253 1391 1253 1391 1258.5 1399 c 128,-1,37
 1264 1407 1264 1407 1271.5 1413 c 128,-1,38
 1279 1419 1279 1419 1288 1419 c 2,39,-1
 1813 1419 l 2,40,41
 1822 1419 1822 1419 1827 1413 c 128,-1,42
 1832 1407 1832 1407 1834.5 1399 c 128,-1,43
 1837 1391 1837 1391 1837.5 1382.5 c 128,-1,44
 1838 1374 1838 1374 1837 1368 c 0,45,46
 1834 1352 1834 1352 1825.5 1342.5 c 128,-1,47
 1817 1333 1817 1333 1797 1331 c 0,48,49
 1774 1329 1774 1329 1741 1325.5 c 128,-1,50
 1708 1322 1708 1322 1675.5 1312.5 c 128,-1,51
 1643 1303 1643 1303 1618 1284.5 c 128,-1,52
 1593 1266 1593 1266 1586 1234 c 1,53,-1
 1395 113 l 2,54,55
 1393 104 1393 104 1392.5 96.5 c 128,-1,56
 1392 89 1392 89 1391.5 81.5 c 128,-1,57
 1391 74 1391 74 1390 64 c 128,-1,58
 1389 54 1389 54 1388 40 c 1,59,60
 1375 -2 1375 -2 1331.5 -16 c 128,-1,61
 1288 -30 1288 -30 1230 -30 c 0,62,63
 1222 -30 1222 -30 1203.5 -28.5 c 128,-1,64
 1185 -27 1185 -27 1165 -24 c 128,-1,65
 1145 -21 1145 -21 1128.5 -17 c 128,-1,66
 1112 -13 1112 -13 1109 -8 c 2,67,-1
 498 1180 l 1,68,-1
 481 1180 l 1,69,-1
 322 185 l 2,70,71
 318 164 318 164 327 148.5 c 128,-1,72
 336 133 336 133 353.5 122.5 c 128,-1,73
 371 112 371 112 394.5 106 c 128,-1,74
 418 100 418 100 442 96.5 c 128,-1,75
 466 93 466 93 488 91 c 128,-1,76
 510 89 510 89 525 88 c 0,77,78
 545 86 545 86 552 80 c 128,-1,79
 559 74 559 74 554 51 c 0,80,81
 553 45 553 45 549.5 36.5 c 128,-1,82
 546 28 546 28 541 20 c 128,-1,83
 536 12 536 12 529 6 c 128,-1,84
 522 0 522 0 513 0 c 2,85,-1
 -5 0 l 2,86,87
 -14 0 -14 0 -19 6 c 128,-1,88
 -24 12 -24 12 -27 20 c 128,-1,89
 -30 28 -30 28 -30.5 36.5 c 128,-1,90
 -31 45 -31 45 -30 51 c 0,0,1
EndSplineSet
EndChar

StartChar: O
Encoding: 79 79 49
Width: 1679
GlyphClass: 2
Flags: W
LayerCount: 2
Fore
SplineSet
106 596 m 0,0,1
 106 708 106 708 132 815 c 128,-1,2
 158 922 158 922 208.5 1016.5 c 128,-1,3
 259 1111 259 1111 332.5 1190.5 c 128,-1,4
 406 1270 406 1270 500.5 1327.5 c 128,-1,5
 595 1385 595 1385 710 1417 c 128,-1,6
 825 1449 825 1449 959 1449 c 0,7,8
 1134 1449 1134 1449 1262 1402 c 128,-1,9
 1390 1355 1390 1355 1473.5 1272.5 c 128,-1,10
 1557 1190 1557 1190 1597.5 1078.5 c 128,-1,11
 1638 967 1638 967 1638 838 c 0,12,13
 1638 726 1638 726 1611.5 618 c 128,-1,14
 1585 510 1585 510 1533.5 414 c 128,-1,15
 1482 318 1482 318 1407 236.5 c 128,-1,16
 1332 155 1332 155 1235.5 96 c 128,-1,17
 1139 37 1139 37 1021 4 c 128,-1,18
 903 -29 903 -29 767 -29 c 0,19,20
 597 -29 597 -29 473 20 c 128,-1,21
 349 69 349 69 267 153.5 c 128,-1,22
 185 238 185 238 145.5 352 c 128,-1,23
 106 466 106 466 106 596 c 0,0,1
793 65 m 0,24,25
 886 65 886 65 957.5 100.5 c 128,-1,26
 1029 136 1029 136 1082 198 c 128,-1,27
 1135 260 1135 260 1171 343 c 128,-1,28
 1207 426 1207 426 1229 522 c 128,-1,29
 1251 618 1251 618 1260.5 721 c 128,-1,30
 1270 824 1270 824 1270 925 c 256,31,32
 1270 1026 1270 1026 1254 1106 c 128,-1,33
 1238 1186 1238 1186 1201.5 1241.5 c 128,-1,34
 1165 1297 1165 1297 1106 1326.5 c 128,-1,35
 1047 1356 1047 1356 961 1356 c 0,36,37
 865 1356 865 1356 792 1320.5 c 128,-1,38
 719 1285 719 1285 664.5 1224 c 128,-1,39
 610 1163 610 1163 573.5 1080 c 128,-1,40
 537 997 537 997 515 901.5 c 128,-1,41
 493 806 493 806 483.5 703 c 128,-1,42
 474 600 474 600 474 499 c 256,43,44
 474 398 474 398 490.5 318 c 128,-1,45
 507 238 507 238 545 181.5 c 128,-1,46
 583 125 583 125 643.5 95 c 128,-1,47
 704 65 704 65 793 65 c 0,24,25
EndSplineSet
EndChar

StartChar: P
Encoding: 80 80 50
Width: 1446
GlyphClass: 2
Flags: W
LayerCount: 2
Fore
SplineSet
25 51 m 0,0,1
 27 67 27 67 35 76.5 c 128,-1,2
 43 86 43 86 63 88 c 0,3,4
 87 90 87 90 113.5 94 c 128,-1,5
 140 98 140 98 162.5 105.5 c 128,-1,6
 185 113 185 113 200 124 c 128,-1,7
 215 135 215 135 218 152 c 2,8,-1
 390 1234 l 2,9,10
 395 1266 395 1266 383 1284.5 c 128,-1,11
 371 1303 371 1303 349.5 1313 c 128,-1,12
 328 1323 328 1323 301.5 1326 c 128,-1,13
 275 1329 275 1329 253 1331 c 0,14,15
 232 1333 232 1333 226 1339 c 128,-1,16
 220 1345 220 1345 224 1368 c 1,17,18
 224 1374 224 1374 227.5 1382.5 c 128,-1,19
 231 1391 231 1391 236.5 1399 c 128,-1,20
 242 1407 242 1407 249.5 1413 c 128,-1,21
 257 1419 257 1419 266 1419 c 2,22,-1
 938 1419 l 2,23,24
 1062 1419 1062 1419 1153.5 1405 c 128,-1,25
 1245 1391 1245 1391 1311 1366.5 c 128,-1,26
 1377 1342 1377 1342 1419 1308.5 c 128,-1,27
 1461 1275 1461 1275 1485 1236 c 128,-1,28
 1509 1197 1509 1197 1518.5 1154.5 c 128,-1,29
 1528 1112 1528 1112 1528 1069 c 0,30,31
 1528 944 1528 944 1477 848.5 c 128,-1,32
 1426 753 1426 753 1332 687.5 c 128,-1,33
 1238 622 1238 622 1105 588.5 c 128,-1,34
 972 555 972 555 809 555 c 2,35,-1
 620 555 l 1,36,-1
 560 185 l 2,37,38
 555 153 555 153 577.5 134.5 c 128,-1,39
 600 116 600 116 635 106 c 128,-1,40
 670 96 670 96 709 93 c 128,-1,41
 748 90 748 90 777 88 c 0,42,43
 797 86 797 86 804 80 c 128,-1,44
 811 74 811 74 808 51 c 0,45,46
 807 45 807 45 803.5 36.5 c 128,-1,47
 800 28 800 28 795 20 c 128,-1,48
 790 12 790 12 783 6 c 128,-1,49
 776 0 776 0 767 0 c 2,50,-1
 52 0 l 2,51,52
 43 0 43 0 37.5 6 c 128,-1,53
 32 12 32 12 29 20 c 128,-1,54
 26 28 26 28 25 36.5 c 128,-1,55
 24 45 24 45 25 51 c 0,0,1
738 641 m 2,56,57
 833 641 833 641 909.5 667 c 128,-1,58
 986 693 986 693 1039.5 746 c 128,-1,59
 1093 799 1093 799 1122 880 c 128,-1,60
 1151 961 1151 961 1151 1071 c 0,61,62
 1151 1130 1151 1130 1139 1178 c 128,-1,63
 1127 1226 1127 1226 1091.5 1260 c 128,-1,64
 1056 1294 1056 1294 992 1312.5 c 128,-1,65
 928 1331 928 1331 824 1331 c 2,66,-1
 742 1331 l 1,67,-1
 632 641 l 1,68,-1
 738 641 l 2,56,57
EndSplineSet
EndChar

StartChar: Q
Encoding: 81 81 51
Width: 1679
GlyphClass: 2
Flags: W
LayerCount: 2
Fore
SplineSet
106 596 m 0,0,1
 106 708 106 708 132 815 c 128,-1,2
 158 922 158 922 208.5 1016.5 c 128,-1,3
 259 1111 259 1111 332.5 1190.5 c 128,-1,4
 406 1270 406 1270 500.5 1327.5 c 128,-1,5
 595 1385 595 1385 710 1417 c 128,-1,6
 825 1449 825 1449 959 1449 c 0,7,8
 1134 1449 1134 1449 1262 1402 c 128,-1,9
 1390 1355 1390 1355 1473.5 1272.5 c 128,-1,10
 1557 1190 1557 1190 1597.5 1078.5 c 128,-1,11
 1638 967 1638 967 1638 838 c 0,12,13
 1638 685 1638 685 1589 542 c 128,-1,14
 1540 399 1540 399 1447 282.5 c 128,-1,15
 1354 166 1354 166 1219 86.5 c 128,-1,16
 1084 7 1084 7 912 -18 c 1,17,18
 904 -63 904 -63 916.5 -117 c 128,-1,19
 929 -171 929 -171 970.5 -217.5 c 128,-1,20
 1012 -264 1012 -264 1088 -294.5 c 128,-1,21
 1164 -325 1164 -325 1284 -323 c 1,22,-1
 1272 -393 l 1,23,24
 1241 -401 1241 -401 1198 -406 c 0,25,26
 1161 -411 1161 -411 1105.5 -415 c 128,-1,27
 1050 -419 1050 -419 977 -419 c 0,28,29
 923 -419 923 -419 865.5 -409.5 c 128,-1,30
 808 -400 808 -400 754 -379 c 128,-1,31
 700 -358 700 -358 653 -325 c 128,-1,32
 606 -292 606 -292 574.5 -245.5 c 128,-1,33
 543 -199 543 -199 530 -138 c 128,-1,34
 517 -77 517 -77 530 1 c 1,35,36
 422 31 422 31 342 88.5 c 128,-1,37
 262 146 262 146 209.5 224 c 128,-1,38
 157 302 157 302 131.5 396.5 c 128,-1,39
 106 491 106 491 106 596 c 0,0,1
793 65 m 0,40,41
 886 65 886 65 957.5 100.5 c 128,-1,42
 1029 136 1029 136 1082 198 c 128,-1,43
 1135 260 1135 260 1171 343 c 128,-1,44
 1207 426 1207 426 1229 522 c 128,-1,45
 1251 618 1251 618 1260.5 721 c 128,-1,46
 1270 824 1270 824 1270 925 c 256,47,48
 1270 1026 1270 1026 1254 1106 c 128,-1,49
 1238 1186 1238 1186 1201.5 1241.5 c 128,-1,50
 1165 1297 1165 1297 1106 1326.5 c 128,-1,51
 1047 1356 1047 1356 961 1356 c 0,52,53
 865 1356 865 1356 792 1320.5 c 128,-1,54
 719 1285 719 1285 664.5 1224 c 128,-1,55
 610 1163 610 1163 573.5 1080 c 128,-1,56
 537 997 537 997 515 901.5 c 128,-1,57
 493 806 493 806 483.5 703 c 128,-1,58
 474 600 474 600 474 499 c 256,59,60
 474 398 474 398 490.5 318 c 128,-1,61
 507 238 507 238 545 181.5 c 128,-1,62
 583 125 583 125 643.5 95 c 128,-1,63
 704 65 704 65 793 65 c 0,40,41
EndSplineSet
EndChar

StartChar: R
Encoding: 82 82 52
Width: 1632
GlyphClass: 2
Flags: W
LayerCount: 2
Fore
SplineSet
7 51 m 0,0,1
 9 66 9 66 16.5 76 c 128,-1,2
 24 86 24 86 43 88 c 0,3,4
 67 90 67 90 96.5 94 c 128,-1,5
 126 98 126 98 152 105.5 c 128,-1,6
 178 113 178 113 196.5 124 c 128,-1,7
 215 135 215 135 218 152 c 2,8,-1
 390 1234 l 2,9,10
 394 1264 394 1264 383.5 1281 c 128,-1,11
 373 1298 373 1298 354.5 1307.5 c 128,-1,12
 336 1317 336 1317 313 1321 c 128,-1,13
 290 1325 290 1325 270 1328 c 128,-1,14
 250 1331 250 1331 236 1335.5 c 128,-1,15
 222 1340 222 1340 222 1352 c 0,16,17
 222 1356 222 1356 222.5 1359.5 c 128,-1,18
 223 1363 223 1363 224 1368 c 1,19,20
 224 1374 224 1374 227.5 1382.5 c 128,-1,21
 231 1391 231 1391 236.5 1399 c 128,-1,22
 242 1407 242 1407 249.5 1413 c 128,-1,23
 257 1419 257 1419 266 1419 c 2,24,-1
 960 1419 l 2,25,26
 1085 1419 1085 1419 1177.5 1406.5 c 128,-1,27
 1270 1394 1270 1394 1336 1372 c 128,-1,28
 1402 1350 1402 1350 1444 1319.5 c 128,-1,29
 1486 1289 1486 1289 1510 1253.5 c 128,-1,30
 1534 1218 1534 1218 1543 1178.5 c 128,-1,31
 1552 1139 1552 1139 1552 1098 c 0,32,33
 1552 1005 1552 1005 1512 921.5 c 128,-1,34
 1472 838 1472 838 1401 774.5 c 128,-1,35
 1330 711 1330 711 1232.5 672 c 128,-1,36
 1135 633 1135 633 1020 628 c 1,37,38
 1097 614 1097 614 1152 590.5 c 128,-1,39
 1207 567 1207 567 1246.5 535.5 c 128,-1,40
 1286 504 1286 504 1313 465.5 c 128,-1,41
 1340 427 1340 427 1361 384 c 128,-1,42
 1382 341 1382 341 1400 294 c 128,-1,43
 1418 247 1418 247 1440 199 c 0,44,45
 1454 167 1454 167 1466 147 c 128,-1,46
 1478 127 1478 127 1493 114.5 c 128,-1,47
 1508 102 1508 102 1528.5 96.5 c 128,-1,48
 1549 91 1549 91 1582 89 c 0,49,50
 1599 88 1599 88 1605.5 82 c 128,-1,51
 1612 76 1612 76 1612 63 c 0,52,53
 1611 45 1611 45 1607 31 c 0,54,55
 1603 19 1603 19 1594.5 9.5 c 128,-1,56
 1586 0 1586 0 1572 0 c 2,57,-1
 1215 0 l 2,58,59
 1174 0 1174 0 1141.5 16.5 c 128,-1,60
 1109 33 1109 33 1084 62 c 128,-1,61
 1059 91 1059 91 1041.5 129 c 128,-1,62
 1024 167 1024 167 1012 211 c 1,63,64
 997 256 997 256 984 304.5 c 128,-1,65
 971 353 971 353 956.5 399 c 128,-1,66
 942 445 942 445 924.5 486 c 128,-1,67
 907 527 907 527 882 558 c 128,-1,68
 857 589 857 589 823 607 c 128,-1,69
 789 625 789 625 743 625 c 2,70,-1
 650 625 l 1,71,-1
 580 168 l 2,72,73
 576 142 576 142 592 127 c 128,-1,74
 608 112 608 112 634 104 c 128,-1,75
 660 96 660 96 691 93 c 128,-1,76
 722 90 722 90 747 88 c 0,77,78
 763 86 763 86 770.5 82 c 128,-1,79
 778 78 778 78 778 66 c 0,80,81
 778 64 778 64 776.5 53.5 c 128,-1,82
 775 43 775 43 771 31 c 128,-1,83
 767 19 767 19 759 9.5 c 128,-1,84
 751 0 751 0 737 0 c 2,85,-1
 32 0 l 2,86,87
 18 0 18 0 12 14.5 c 128,-1,88
 6 29 6 29 6 42 c 0,89,90
 6 48 6 48 7 51 c 0,0,1
764 711 m 2,91,92
 882 711 882 711 964.5 738 c 128,-1,93
 1047 765 1047 765 1097.5 816.5 c 128,-1,94
 1148 868 1148 868 1169 942 c 128,-1,95
 1190 1016 1190 1016 1187 1109 c 0,96,97
 1184 1176 1184 1176 1161.5 1219.5 c 128,-1,98
 1139 1263 1139 1263 1097 1288 c 128,-1,99
 1055 1313 1055 1313 994 1322.5 c 128,-1,100
 933 1332 933 1332 852 1332 c 2,101,-1
 762 1332 l 1,102,-1
 663 711 l 1,103,-1
 764 711 l 2,91,92
EndSplineSet
EndChar

StartChar: S
Encoding: 83 83 53
Width: 1337
GlyphClass: 2
Flags: W
LayerCount: 2
Fore
SplineSet
85 72 m 0,0,1
 97 125 97 125 107 183 c 128,-1,2
 117 241 117 241 125 295 c 128,-1,3
 133 349 133 349 137.5 395 c 128,-1,4
 142 441 142 441 144 471 c 1,5,6
 145 503 145 503 159 511.5 c 128,-1,7
 173 520 173 520 193 520 c 0,8,9
 202 520 202 520 212 517 c 128,-1,10
 222 514 222 514 231 509 c 128,-1,11
 240 504 240 504 246 496 c 128,-1,12
 252 488 252 488 252 478 c 0,13,14
 253 465 253 465 253.5 448 c 128,-1,15
 254 431 254 431 258 407 c 128,-1,16
 262 383 262 383 270.5 351 c 128,-1,17
 279 319 279 319 296 277 c 0,18,19
 317 223 317 223 349.5 182 c 128,-1,20
 382 141 382 141 424 114 c 128,-1,21
 466 87 466 87 515.5 73 c 128,-1,22
 565 59 565 59 620 59 c 0,23,24
 687 59 687 59 741.5 70.5 c 128,-1,25
 796 82 796 82 833.5 108.5 c 128,-1,26
 871 135 871 135 891.5 177 c 128,-1,27
 912 219 912 219 912 279 c 0,28,29
 912 332 912 332 885 376 c 128,-1,30
 858 420 858 420 814 460 c 128,-1,31
 770 500 770 500 712.5 538 c 128,-1,32
 655 576 655 576 595 617 c 0,33,34
 538 657 538 657 484.5 701.5 c 128,-1,35
 431 746 431 746 389 799 c 128,-1,36
 347 852 347 852 321.5 915 c 128,-1,37
 296 978 296 978 296 1055 c 0,38,39
 296 1140 296 1140 334 1212 c 128,-1,40
 372 1284 372 1284 442.5 1336.5 c 128,-1,41
 513 1389 513 1389 614 1419 c 128,-1,42
 715 1449 715 1449 840 1449 c 0,43,44
 894 1449 894 1449 942.5 1442 c 128,-1,45
 991 1435 991 1435 1029.5 1425.5 c 128,-1,46
 1068 1416 1068 1416 1095 1406 c 128,-1,47
 1122 1396 1122 1396 1133 1391 c 1,48,49
 1139 1387 1139 1387 1146 1387.5 c 128,-1,50
 1153 1388 1153 1388 1158 1388 c 0,51,52
 1173 1388 1173 1388 1183.5 1395 c 128,-1,53
 1194 1402 1194 1402 1203.5 1410 c 128,-1,54
 1213 1418 1213 1418 1223 1425 c 128,-1,55
 1233 1432 1233 1432 1247 1432 c 0,56,57
 1266 1432 1266 1432 1285.5 1422 c 128,-1,58
 1305 1412 1305 1412 1305 1398 c 256,59,60
 1305 1384 1305 1384 1301.5 1350.5 c 128,-1,61
 1298 1317 1298 1317 1293 1273.5 c 128,-1,62
 1288 1230 1288 1230 1283.5 1181 c 128,-1,63
 1279 1132 1279 1132 1277 1087 c 0,64,65
 1276 1066 1276 1066 1271.5 1054.5 c 128,-1,66
 1267 1043 1267 1043 1259.5 1037 c 128,-1,67
 1252 1031 1252 1031 1242.5 1029.5 c 128,-1,68
 1233 1028 1233 1028 1223 1028 c 0,69,70
 1207 1028 1207 1028 1189.5 1034.5 c 128,-1,71
 1172 1041 1172 1041 1171 1050 c 0,72,73
 1160 1139 1160 1139 1132 1200.5 c 128,-1,74
 1104 1262 1104 1262 1062.5 1299.5 c 128,-1,75
 1021 1337 1021 1337 968.5 1353.5 c 128,-1,76
 916 1370 916 1370 858 1370 c 0,77,78
 733 1370 733 1370 667.5 1324.5 c 128,-1,79
 602 1279 602 1279 602 1173 c 0,80,81
 602 1120 602 1120 625.5 1076.5 c 128,-1,82
 649 1033 649 1033 688.5 995.5 c 128,-1,83
 728 958 728 958 779.5 924 c 128,-1,84
 831 890 831 890 887 855 c 0,85,86
 950 816 950 816 1009.5 771 c 128,-1,87
 1069 726 1069 726 1115.5 671.5 c 128,-1,88
 1162 617 1162 617 1190 550.5 c 128,-1,89
 1218 484 1218 484 1218 402 c 0,90,91
 1218 325 1218 325 1183.5 247.5 c 128,-1,92
 1149 170 1149 170 1077.5 108.5 c 128,-1,93
 1006 47 1006 47 895.5 8.5 c 128,-1,94
 785 -30 785 -30 633 -30 c 0,95,96
 565 -30 565 -30 503.5 -19 c 128,-1,97
 442 -8 442 -8 391.5 8.5 c 128,-1,98
 341 25 341 25 303 44 c 128,-1,99
 265 63 265 63 243 78 c 0,100,101
 238 82 238 82 228 77 c 128,-1,102
 218 72 218 72 210 61 c 0,103,104
 193 39 193 39 171.5 29.5 c 128,-1,105
 150 20 150 20 135 20 c 0,106,107
 124 20 124 20 114.5 24.5 c 128,-1,108
 105 29 105 29 97.5 36.5 c 128,-1,109
 90 44 90 44 86.5 53.5 c 128,-1,110
 83 63 83 63 85 72 c 0,0,1
EndSplineSet
EndChar

StartChar: T
Encoding: 84 84 54
Width: 1401
GlyphClass: 2
Flags: W
LayerCount: 2
Fore
SplineSet
223 51 m 0,0,1
 225 67 225 67 233 76.5 c 128,-1,2
 241 86 241 86 261 88 c 0,3,4
 297 90 297 90 335 94.5 c 128,-1,5
 373 99 373 99 405 109 c 128,-1,6
 437 119 437 119 459 136.5 c 128,-1,7
 481 154 481 154 485 182 c 2,8,-1
 650 1331 l 1,9,-1
 445 1331 l 2,10,11
 417 1331 417 1331 389 1312.5 c 128,-1,12
 361 1294 361 1294 335.5 1264.5 c 128,-1,13
 310 1235 310 1235 287.5 1199 c 128,-1,14
 265 1163 265 1163 248 1128.5 c 128,-1,15
 231 1094 231 1094 219.5 1064.5 c 128,-1,16
 208 1035 208 1035 204 1019 c 0,17,18
 198 999 198 999 182 992.5 c 128,-1,19
 166 986 166 986 150 986 c 0,20,21
 144 986 144 986 133 988 c 128,-1,22
 122 990 122 990 111 994.5 c 128,-1,23
 100 999 100 999 92 1005 c 128,-1,24
 84 1011 84 1011 86 1020 c 0,25,26
 92 1053 92 1053 100.5 1095 c 128,-1,27
 109 1137 109 1137 119.5 1181.5 c 128,-1,28
 130 1226 130 1226 140.5 1268.5 c 128,-1,29
 151 1311 151 1311 160.5 1344.5 c 128,-1,30
 170 1378 170 1378 177.5 1398.5 c 128,-1,31
 185 1419 185 1419 189 1419 c 2,32,-1
 1476 1419 l 2,33,34
 1480 1419 1480 1419 1480.5 1398.5 c 128,-1,35
 1481 1378 1481 1378 1480 1344.5 c 128,-1,36
 1479 1311 1479 1311 1476 1268.5 c 128,-1,37
 1473 1226 1473 1226 1469 1181.5 c 128,-1,38
 1465 1137 1465 1137 1461 1095 c 128,-1,39
 1457 1053 1457 1053 1453 1020 c 0,40,41
 1451 1011 1451 1011 1444 1005 c 128,-1,42
 1437 999 1437 999 1428 994.5 c 128,-1,43
 1419 990 1419 990 1410 988 c 128,-1,44
 1401 986 1401 986 1395 986 c 0,45,46
 1387 986 1387 986 1379 987.5 c 128,-1,47
 1371 989 1371 989 1364 992.5 c 128,-1,48
 1357 996 1357 996 1353 1002.5 c 128,-1,49
 1349 1009 1349 1009 1350 1019 c 1,50,51
 1350 1035 1350 1035 1347 1064.5 c 128,-1,52
 1344 1094 1344 1094 1337.5 1128.5 c 128,-1,53
 1331 1163 1331 1163 1319 1199 c 128,-1,54
 1307 1235 1307 1235 1289.5 1264.5 c 128,-1,55
 1272 1294 1272 1294 1247.5 1312.5 c 128,-1,56
 1223 1331 1223 1331 1191 1331 c 2,57,-1
 997 1331 l 1,58,-1
 833 185 l 2,59,60
 830 164 830 164 839.5 148.5 c 128,-1,61
 849 133 849 133 867 122.5 c 128,-1,62
 885 112 885 112 909 106 c 128,-1,63
 933 100 933 100 959 96.5 c 128,-1,64
 985 93 985 93 1010 91 c 128,-1,65
 1035 89 1035 89 1055 88 c 0,66,67
 1075 86 1075 86 1082 80 c 128,-1,68
 1089 74 1089 74 1086 51 c 0,69,70
 1085 45 1085 45 1081.5 36.5 c 128,-1,71
 1078 28 1078 28 1073 20 c 128,-1,72
 1068 12 1068 12 1061 6 c 128,-1,73
 1054 0 1054 0 1045 0 c 2,74,-1
 250 0 l 2,75,76
 241 0 241 0 235.5 6 c 128,-1,77
 230 12 230 12 227 20 c 128,-1,78
 224 28 224 28 223 36.5 c 128,-1,79
 222 45 222 45 223 51 c 0,0,1
EndSplineSet
EndChar

StartChar: U
Encoding: 85 85 55
Width: 1706
GlyphClass: 2
Flags: W
LayerCount: 2
Fore
SplineSet
384 1256 m 2,0,1
 388 1279 388 1279 377.5 1292.5 c 128,-1,2
 367 1306 367 1306 348.5 1313 c 128,-1,3
 330 1320 330 1320 307.5 1323 c 128,-1,4
 285 1326 285 1326 264.5 1329 c 128,-1,5
 244 1332 244 1332 230 1336.5 c 128,-1,6
 216 1341 216 1341 216 1352 c 0,7,8
 216 1356 216 1356 216.5 1359.5 c 128,-1,9
 217 1363 217 1363 218 1368 c 1,10,11
 218 1374 218 1374 221.5 1382.5 c 128,-1,12
 225 1391 225 1391 230.5 1399 c 128,-1,13
 236 1407 236 1407 243.5 1413 c 128,-1,14
 251 1419 251 1419 260 1419 c 2,15,-1
 925 1419 l 2,16,17
 939 1419 939 1419 944.5 1405 c 128,-1,18
 950 1391 950 1391 950 1378 c 1,19,20
 952 1358 952 1358 942 1345 c 128,-1,21
 932 1332 932 1332 911 1331 c 0,22,23
 828 1329 828 1329 785 1314.5 c 128,-1,24
 742 1300 742 1300 736 1267 c 2,25,-1
 606 564 l 1,26,27
 603 539 603 539 600 507.5 c 128,-1,28
 597 476 597 476 594.5 444.5 c 128,-1,29
 592 413 592 413 591 384.5 c 128,-1,30
 590 356 590 356 590 337 c 0,31,32
 593 256 593 256 614.5 203 c 128,-1,33
 636 150 636 150 674.5 119.5 c 128,-1,34
 713 89 713 89 767.5 77 c 128,-1,35
 822 65 822 65 891 65 c 0,36,37
 976 65 976 65 1039.5 83.5 c 128,-1,38
 1103 102 1103 102 1150.5 135.5 c 128,-1,39
 1198 169 1198 169 1230.5 214.5 c 128,-1,40
 1263 260 1263 260 1286 314.5 c 128,-1,41
 1309 369 1309 369 1323.5 430 c 128,-1,42
 1338 491 1338 491 1350 554 c 2,43,-1
 1476 1244 l 2,44,45
 1477 1247 1477 1247 1477 1254 c 0,46,47
 1477 1276 1477 1276 1467.5 1290 c 128,-1,48
 1458 1304 1458 1304 1437.5 1312 c 128,-1,49
 1417 1320 1417 1320 1386 1324.5 c 128,-1,50
 1355 1329 1355 1329 1313 1331 c 0,51,52
 1296 1332 1296 1332 1289 1336 c 128,-1,53
 1282 1340 1282 1340 1282 1352 c 0,54,55
 1282 1356 1282 1356 1282.5 1359.5 c 128,-1,56
 1283 1363 1283 1363 1284 1368 c 1,57,58
 1284 1374 1284 1374 1287.5 1382.5 c 128,-1,59
 1291 1391 1291 1391 1296.5 1399 c 128,-1,60
 1302 1407 1302 1407 1309.5 1413 c 128,-1,61
 1317 1419 1317 1419 1326 1419 c 2,62,-1
 1782 1419 l 2,63,64
 1796 1419 1796 1419 1801.5 1405 c 128,-1,65
 1807 1391 1807 1391 1807 1378 c 0,66,67
 1808 1358 1808 1358 1798.5 1345 c 128,-1,68
 1789 1332 1789 1332 1768 1331 c 0,69,70
 1683 1327 1683 1327 1633.5 1302.5 c 128,-1,71
 1584 1278 1584 1278 1577 1230 c 1,72,-1
 1451 556 l 1,73,74
 1430 406 1430 406 1383.5 296 c 128,-1,75
 1337 186 1337 186 1263 113.5 c 128,-1,76
 1189 41 1189 41 1086.5 6 c 128,-1,77
 984 -29 984 -29 852 -29 c 0,78,79
 565 -29 565 -29 408 78 c 128,-1,80
 251 185 251 185 243 394 c 0,81,82
 241 438 241 438 247 479.5 c 128,-1,83
 253 521 253 521 253 556 c 1,84,-1
 384 1256 l 2,0,1
EndSplineSet
EndChar

StartChar: V
Encoding: 86 86 56
Width: 1561
GlyphClass: 2
Flags: W
LayerCount: 2
Fore
SplineSet
298 1254 m 2,0,1
 292 1287 292 1287 275 1302.5 c 128,-1,2
 258 1318 258 1318 237 1323.5 c 128,-1,3
 216 1329 216 1329 193 1329 c 128,-1,4
 170 1329 170 1329 152 1331 c 0,5,6
 131 1333 131 1333 125 1339 c 128,-1,7
 119 1345 119 1345 123 1368 c 0,8,9
 124 1374 124 1374 128 1382.5 c 128,-1,10
 132 1391 132 1391 138 1399 c 128,-1,11
 144 1407 144 1407 151.5 1413 c 128,-1,12
 159 1419 159 1419 167 1419 c 2,13,-1
 842 1419 l 2,14,15
 851 1419 851 1419 856 1413 c 128,-1,16
 861 1407 861 1407 863.5 1399 c 128,-1,17
 866 1391 866 1391 866.5 1382.5 c 128,-1,18
 867 1374 867 1374 866 1368 c 0,19,20
 863 1352 863 1352 854.5 1342.5 c 128,-1,21
 846 1333 846 1333 826 1331 c 0,22,23
 740 1324 740 1324 704.5 1305 c 128,-1,24
 669 1286 669 1286 674 1250 c 2,25,-1
 795 222 l 1,26,-1
 1476 1257 l 1,27,28
 1492 1292 1492 1292 1460 1308.5 c 128,-1,29
 1428 1325 1428 1325 1333 1331 c 0,30,31
 1313 1333 1313 1333 1308.5 1342.5 c 128,-1,32
 1304 1352 1304 1352 1307 1368 c 0,33,34
 1308 1374 1308 1374 1312 1382.5 c 128,-1,35
 1316 1391 1316 1391 1321.5 1399 c 128,-1,36
 1327 1407 1327 1407 1334.5 1413 c 128,-1,37
 1342 1419 1342 1419 1351 1419 c 2,38,-1
 1806 1419 l 2,39,40
 1814 1419 1814 1419 1819.5 1413 c 128,-1,41
 1825 1407 1825 1407 1827.5 1399 c 128,-1,42
 1830 1391 1830 1391 1830.5 1382.5 c 128,-1,43
 1831 1374 1831 1374 1830 1368 c 0,44,45
 1826 1345 1826 1345 1817 1339 c 128,-1,46
 1808 1333 1808 1333 1787 1331 c 0,47,48
 1768 1329 1768 1329 1746 1328.5 c 128,-1,49
 1724 1328 1724 1328 1700.5 1322 c 128,-1,50
 1677 1316 1677 1316 1654 1301 c 128,-1,51
 1631 1286 1631 1286 1611 1254 c 1,52,-1
 748 -18 l 1,53,-1
 502 -18 l 1,54,-1
 298 1254 l 2,0,1
EndSplineSet
EndChar

StartChar: W
Encoding: 87 87 57
Width: 2306
GlyphClass: 2
Flags: W
LayerCount: 2
Fore
SplineSet
334 1254 m 2,0,1
 331 1287 331 1287 311.5 1302.5 c 128,-1,2
 292 1318 292 1318 266 1324 c 128,-1,3
 240 1330 240 1330 213 1329.5 c 128,-1,4
 186 1329 186 1329 168 1331 c 0,5,6
 147 1333 147 1333 141 1339 c 128,-1,7
 135 1345 135 1345 139 1368 c 0,8,9
 140 1374 140 1374 144 1382.5 c 128,-1,10
 148 1391 148 1391 154 1399 c 128,-1,11
 160 1407 160 1407 167.5 1413 c 128,-1,12
 175 1419 175 1419 183 1419 c 2,13,-1
 883 1419 l 2,14,15
 892 1419 892 1419 897 1413 c 128,-1,16
 902 1407 902 1407 904.5 1399 c 128,-1,17
 907 1391 907 1391 907.5 1382.5 c 128,-1,18
 908 1374 908 1374 907 1368 c 0,19,20
 904 1352 904 1352 895.5 1341.5 c 128,-1,21
 887 1331 887 1331 867 1331 c 0,22,23
 825 1331 825 1331 790.5 1327 c 128,-1,24
 756 1323 756 1323 731.5 1314 c 128,-1,25
 707 1305 707 1305 694 1292 c 128,-1,26
 681 1279 681 1279 683 1261 c 1,27,-1
 723 291 l 1,28,-1
 1345 1399 l 1,29,-1
 1603 1399 l 1,30,-1
 1623 291 l 1,31,-1
 2208 1267 l 2,32,33
 2218 1283 2218 1283 2204.5 1295 c 128,-1,34
 2191 1307 2191 1307 2163.5 1315 c 128,-1,35
 2136 1323 2136 1323 2097.5 1327 c 128,-1,36
 2059 1331 2059 1331 2019 1331 c 0,37,38
 1999 1331 1999 1331 1994.5 1341.5 c 128,-1,39
 1990 1352 1990 1352 1993 1368 c 0,40,41
 1994 1374 1994 1374 1998 1382.5 c 128,-1,42
 2002 1391 2002 1391 2007.5 1399 c 128,-1,43
 2013 1407 2013 1407 2020.5 1413 c 128,-1,44
 2028 1419 2028 1419 2037 1419 c 2,45,-1
 2582 1419 l 2,46,47
 2590 1419 2590 1419 2595.5 1413 c 128,-1,48
 2601 1407 2601 1407 2603.5 1399 c 128,-1,49
 2606 1391 2606 1391 2606.5 1382.5 c 128,-1,50
 2607 1374 2607 1374 2606 1368 c 0,51,52
 2602 1345 2602 1345 2593 1339 c 128,-1,53
 2584 1333 2584 1333 2563 1331 c 0,54,55
 2544 1329 2544 1329 2519 1326.5 c 128,-1,56
 2494 1324 2494 1324 2468 1316.5 c 128,-1,57
 2442 1309 2442 1309 2418 1294.5 c 128,-1,58
 2394 1280 2394 1280 2377 1254 c 2,59,-1
 1569 -18 l 1,60,-1
 1294 -18 l 1,61,-1
 1280 1023 l 1,62,-1
 676 -18 l 1,63,-1
 423 -18 l 1,64,-1
 334 1254 l 2,0,1
EndSplineSet
EndChar

StartChar: X
Encoding: 88 88 58
Width: 1642
GlyphClass: 2
Flags: W
LayerCount: 2
Fore
SplineSet
-82 51 m 0,0,1
 -75 73 -75 73 -66.5 79.5 c 128,-1,2
 -58 86 -58 86 -36 88 c 0,3,4
 -17 90 -17 90 8.5 92 c 128,-1,5
 34 94 34 94 63.5 101 c 128,-1,6
 93 108 93 108 123.5 123 c 128,-1,7
 154 138 154 138 183 165 c 2,8,-1
 707 663 l 1,9,-1
 400 1254 l 2,10,11
 385 1282 385 1282 360.5 1297 c 128,-1,12
 336 1312 336 1312 308.5 1319 c 128,-1,13
 281 1326 281 1326 254.5 1327.5 c 128,-1,14
 228 1329 228 1329 210 1331 c 0,15,16
 189 1333 189 1333 183 1339 c 128,-1,17
 177 1345 177 1345 181 1368 c 0,18,19
 183 1374 183 1374 187.5 1382.5 c 128,-1,20
 192 1391 192 1391 198.5 1399 c 128,-1,21
 205 1407 205 1407 212.5 1413 c 128,-1,22
 220 1419 220 1419 228 1419 c 2,23,-1
 910 1419 l 2,24,25
 919 1419 919 1419 924 1413 c 128,-1,26
 929 1407 929 1407 931.5 1399 c 128,-1,27
 934 1391 934 1391 933.5 1382.5 c 128,-1,28
 933 1374 933 1374 931 1368 c 0,29,30
 928 1352 928 1352 919.5 1341.5 c 128,-1,31
 911 1331 911 1331 891 1331 c 0,32,33
 863 1331 863 1331 838 1329.5 c 128,-1,34
 813 1328 813 1328 796 1323.5 c 128,-1,35
 779 1319 779 1319 771.5 1310.5 c 128,-1,36
 764 1302 764 1302 771 1287 c 2,37,-1
 978 862 l 1,38,-1
 1358 1257 l 2,39,40
 1373 1273 1373 1273 1371.5 1286.5 c 128,-1,41
 1370 1300 1370 1300 1355 1310 c 128,-1,42
 1340 1320 1340 1320 1313 1325.5 c 128,-1,43
 1286 1331 1286 1331 1251 1331 c 0,44,45
 1231 1331 1231 1331 1226.5 1341.5 c 128,-1,46
 1222 1352 1222 1352 1225 1368 c 0,47,48
 1227 1374 1227 1374 1231.5 1382.5 c 128,-1,49
 1236 1391 1236 1391 1242 1399 c 128,-1,50
 1248 1407 1248 1407 1255.5 1413 c 128,-1,51
 1263 1419 1263 1419 1272 1419 c 2,52,-1
 1737 1419 l 2,53,54
 1745 1419 1745 1419 1750.5 1413 c 128,-1,55
 1756 1407 1756 1407 1758 1399 c 128,-1,56
 1760 1391 1760 1391 1760 1382.5 c 128,-1,57
 1760 1374 1760 1374 1758 1368 c 0,58,59
 1754 1345 1754 1345 1745 1339 c 128,-1,60
 1736 1333 1736 1333 1715 1331 c 0,61,62
 1696 1329 1696 1329 1672.5 1327 c 128,-1,63
 1649 1325 1649 1325 1622 1318 c 128,-1,64
 1595 1311 1595 1311 1566 1296.5 c 128,-1,65
 1537 1282 1537 1282 1508 1254 c 2,66,-1
 1015 781 l 1,67,-1
 1333 165 l 2,68,69
 1348 136 1348 136 1370 121.5 c 128,-1,70
 1392 107 1392 107 1416 100 c 128,-1,71
 1440 93 1440 93 1464 91.5 c 128,-1,72
 1488 90 1488 90 1506 88 c 0,73,74
 1526 86 1526 86 1532.5 80 c 128,-1,75
 1539 74 1539 74 1532 51 c 0,76,77
 1531 45 1531 45 1527 36.5 c 128,-1,78
 1523 28 1523 28 1517.5 20 c 128,-1,79
 1512 12 1512 12 1504.5 6 c 128,-1,80
 1497 0 1497 0 1489 0 c 2,81,-1
 787 0 l 2,82,83
 778 0 778 0 773 6 c 128,-1,84
 768 12 768 12 765 20 c 128,-1,85
 762 28 762 28 761.5 36.5 c 128,-1,86
 761 45 761 45 762 51 c 0,87,88
 767 67 767 67 776 76.5 c 128,-1,89
 785 86 785 86 805 88 c 0,90,91
 839 90 839 90 869.5 91.5 c 128,-1,92
 900 93 900 93 921 96.5 c 128,-1,93
 942 100 942 100 951.5 108.5 c 128,-1,94
 961 117 961 117 954 132 c 2,95,-1
 743 585 l 1,96,-1
 337 162 l 2,97,98
 309 133 309 133 339.5 112.5 c 128,-1,99
 370 92 370 92 468 88 c 1,100,101
 487 86 487 86 491.5 76.5 c 128,-1,102
 496 67 496 67 491 51 c 0,103,104
 490 45 490 45 486.5 36.5 c 128,-1,105
 483 28 483 28 477 20 c 128,-1,106
 471 12 471 12 464 6 c 128,-1,107
 457 0 457 0 448 0 c 2,108,-1
 -57 0 l 2,109,110
 -65 0 -65 0 -70.5 6 c 128,-1,111
 -76 12 -76 12 -79 20 c 128,-1,112
 -82 28 -82 28 -82.5 36.5 c 128,-1,113
 -83 45 -83 45 -82 51 c 0,0,1
EndSplineSet
EndChar

StartChar: Y
Encoding: 89 89 59
Width: 1499
GlyphClass: 2
Flags: W
LayerCount: 2
Fore
SplineSet
247 51 m 0,0,1
 251 67 251 67 264.5 76.5 c 128,-1,2
 278 86 278 86 298 88 c 0,3,4
 323 90 323 90 352.5 90.5 c 128,-1,5
 382 91 382 91 407.5 95.5 c 128,-1,6
 433 100 433 100 452 112.5 c 128,-1,7
 471 125 471 125 476 152 c 2,8,-1
 557 534 l 1,9,-1
 277 1254 l 1,10,11
 267 1285 267 1285 247 1302 c 128,-1,12
 227 1319 227 1319 204 1327 c 128,-1,13
 181 1335 181 1335 157 1337 c 128,-1,14
 133 1339 133 1339 115 1341 c 0,15,16
 94 1343 94 1343 88 1349 c 128,-1,17
 82 1355 82 1355 87 1378 c 0,18,19
 88 1384 88 1384 91.5 1391 c 128,-1,20
 95 1398 95 1398 100.5 1404 c 128,-1,21
 106 1410 106 1410 113.5 1414.5 c 128,-1,22
 121 1419 121 1419 129 1419 c 2,23,-1
 808 1419 l 2,24,25
 817 1419 817 1419 822.5 1414.5 c 128,-1,26
 828 1410 828 1410 831 1404 c 128,-1,27
 834 1398 834 1398 834.5 1391 c 128,-1,28
 835 1384 835 1384 834 1378 c 0,29,30
 830 1362 830 1362 817.5 1346.5 c 128,-1,31
 805 1331 805 1331 785 1331 c 0,32,33
 754 1331 754 1331 721 1330.5 c 128,-1,34
 688 1330 688 1330 662.5 1326 c 128,-1,35
 637 1322 637 1322 622.5 1313 c 128,-1,36
 608 1304 608 1304 613 1287 c 2,37,-1
 841 639 l 1,38,-1
 1308 1258 l 2,39,40
 1320 1274 1320 1274 1320 1287.5 c 128,-1,41
 1320 1301 1320 1301 1306.5 1311 c 128,-1,42
 1293 1321 1293 1321 1264.5 1326 c 128,-1,43
 1236 1331 1236 1331 1189 1331 c 0,44,45
 1169 1331 1169 1331 1160 1346.5 c 128,-1,46
 1151 1362 1151 1362 1155 1378 c 0,47,48
 1157 1389 1157 1389 1168.5 1404 c 128,-1,49
 1180 1419 1180 1419 1197 1419 c 2,50,-1
 1642 1419 l 2,51,52
 1659 1419 1659 1419 1664.5 1404 c 128,-1,53
 1670 1389 1670 1389 1668 1378 c 0,54,55
 1663 1355 1663 1355 1654 1349 c 128,-1,56
 1645 1343 1645 1343 1624 1341 c 0,57,58
 1605 1339 1605 1339 1585 1337 c 128,-1,59
 1565 1335 1565 1335 1544 1326.5 c 128,-1,60
 1523 1318 1523 1318 1500.5 1301.5 c 128,-1,61
 1478 1285 1478 1285 1454 1254 c 2,62,-1
 904 547 l 1,63,-1
 830 165 l 2,64,65
 824 133 824 133 841 117.5 c 128,-1,66
 858 102 858 102 886.5 96.5 c 128,-1,67
 915 91 915 91 948 90.5 c 128,-1,68
 981 90 981 90 1006 88 c 0,69,70
 1026 86 1026 86 1037.5 80 c 128,-1,71
 1049 74 1049 74 1044 51 c 0,72,73
 1043 45 1043 45 1039 36.5 c 128,-1,74
 1035 28 1035 28 1029.5 20 c 128,-1,75
 1024 12 1024 12 1016.5 6 c 128,-1,76
 1009 0 1009 0 1001 0 c 2,77,-1
 272 0 l 2,78,79
 263 0 263 0 258 6 c 128,-1,80
 253 12 253 12 250 20 c 128,-1,81
 247 28 247 28 246.5 36.5 c 128,-1,82
 246 45 246 45 247 51 c 0,0,1
EndSplineSet
EndChar

StartChar: Z
Encoding: 90 90 60
Width: 1411
GlyphClass: 2
Flags: W
LayerCount: 2
Fore
SplineSet
24 50 m 2,0,1
 24 56 24 56 26.5 63 c 128,-1,2
 29 70 29 70 35.5 80 c 128,-1,3
 42 90 42 90 53 104 c 128,-1,4
 64 118 64 118 82 138 c 1,5,-1
 1000 1331 l 1,6,-1
 563 1331 l 2,7,8
 537 1331 537 1331 508 1311.5 c 128,-1,9
 479 1292 479 1292 449.5 1261 c 128,-1,10
 420 1230 420 1230 392 1193 c 128,-1,11
 364 1156 364 1156 342 1121.5 c 128,-1,12
 320 1087 320 1087 305 1059 c 128,-1,13
 290 1031 290 1031 286 1019 c 1,14,15
 277 999 277 999 261 992.5 c 128,-1,16
 245 986 245 986 222 986 c 0,17,18
 211 986 211 986 198 994.5 c 128,-1,19
 185 1003 185 1003 188 1020 c 1,20,-1
 286 1378 l 1,21,22
 311 1417 311 1417 341 1419 c 1,23,-1
 1382 1419 l 2,24,25
 1394 1419 1394 1419 1405 1411 c 128,-1,26
 1416 1403 1416 1403 1416 1389 c 2,27,-1
 1416 1361 l 2,28,29
 1416 1351 1416 1351 1411 1344.5 c 128,-1,30
 1406 1338 1406 1338 1401 1330 c 2,31,-1
 437 83 l 1,32,-1
 912 83 l 2,33,34
 945 83 945 83 982 105.5 c 128,-1,35
 1019 128 1019 128 1055 162.5 c 128,-1,36
 1091 197 1091 197 1124 238.5 c 128,-1,37
 1157 280 1157 280 1183 318.5 c 128,-1,38
 1209 357 1209 357 1226 387.5 c 128,-1,39
 1243 418 1243 418 1247 430 c 1,40,41
 1256 450 1256 450 1272 456.5 c 128,-1,42
 1288 463 1288 463 1311 463 c 0,43,44
 1317 463 1317 463 1325 461 c 128,-1,45
 1333 459 1333 459 1340 454.5 c 128,-1,46
 1347 450 1347 450 1351.5 444 c 128,-1,47
 1356 438 1356 438 1355 429 c 1,48,-1
 1230 41 l 1,49,50
 1204 1 1204 1 1176 0 c 1,51,-1
 63 0 l 2,52,53
 24 0 24 0 24 31 c 2,54,-1
 24 50 l 2,0,1
EndSplineSet
EndChar

StartChar: bracketleft
Encoding: 91 91 61
Width: 915
GlyphClass: 2
Flags: W
LayerCount: 2
Fore
SplineSet
386 1535 m 1,0,-1
 945 1536 l 1,1,-1
 932 1439 l 1,2,-1
 683 1439 l 1,3,-1
 448 -231 l 1,4,-1
 697 -231 l 1,5,-1
 683 -328 l 1,6,-1
 125 -327 l 1,7,-1
 386 1535 l 1,0,-1
EndSplineSet
EndChar

StartChar: backslash
Encoding: 92 92 62
Width: 967
GlyphClass: 2
Flags: W
LayerCount: 2
Fore
SplineSet
929 -340 m 1,0,-1
 794 -340 l 1,1,-1
 121 1547 l 1,2,-1
 258 1547 l 1,3,-1
 929 -340 l 1,0,-1
EndSplineSet
EndChar

StartChar: bracketright
Encoding: 93 93 63
Width: 915
GlyphClass: 2
Flags: W
LayerCount: 2
Fore
SplineSet
514 -327 m 1,0,-1
 -45 -328 l 1,1,-1
 -32 -231 l 1,2,-1
 217 -231 l 1,3,-1
 452 1439 l 1,4,-1
 203 1439 l 1,5,-1
 217 1536 l 1,6,-1
 775 1535 l 1,7,-1
 514 -327 l 1,0,-1
EndSplineSet
EndChar

StartChar: asciicircum
Encoding: 94 94 64
Width: 1440
GlyphClass: 2
Flags: W
LayerCount: 2
Fore
SplineSet
1001 299 m 1,0,-1
 786 1130 l 1,1,-1
 356 299 l 1,2,-1
 136 299 l 1,3,-1
 769 1428 l 1,4,-1
 888 1428 l 1,5,-1
 1207 299 l 1,6,-1
 1001 299 l 1,0,-1
EndSplineSet
EndChar

StartChar: underscore
Encoding: 95 95 65
Width: 1440
GlyphClass: 2
Flags: W
LayerCount: 2
Fore
SplineSet
1403 -190 m 1,0,-1
 1388 -296 l 1,1,-1
 -158 -296 l 1,2,-1
 -143 -190 l 1,3,-1
 1403 -190 l 1,0,-1
EndSplineSet
EndChar

StartChar: grave
Encoding: 96 96 66
Width: 1024
GlyphClass: 2
Flags: W
LayerCount: 2
Fore
SplineSet
771 1101 m 1,0,1
 694 1158 694 1158 627.5 1202 c 128,-1,2
 561 1246 561 1246 509 1278 c 128,-1,3
 457 1310 457 1310 422.5 1331 c 128,-1,4
 388 1352 388 1352 376 1363 c 0,5,6
 362 1376 362 1376 353 1396.5 c 128,-1,7
 344 1417 344 1417 342.5 1441 c 128,-1,8
 341 1465 341 1465 348.5 1489.5 c 128,-1,9
 356 1514 356 1514 375 1534 c 256,10,11
 394 1554 394 1554 419 1561 c 128,-1,12
 444 1568 444 1568 469 1566 c 128,-1,13
 494 1564 494 1564 516.5 1554 c 128,-1,14
 539 1544 539 1544 553 1531 c 0,15,16
 565 1520 565 1520 587.5 1487 c 128,-1,17
 610 1454 610 1454 644 1404.5 c 128,-1,18
 678 1355 678 1355 723.5 1292.5 c 128,-1,19
 769 1230 769 1230 827 1159 c 1,20,-1
 771 1101 l 1,0,1
EndSplineSet
EndChar

StartChar: a
Encoding: 97 97 67
Width: 1352
GlyphClass: 2
Flags: W
LayerCount: 2
Fore
SplineSet
399 295 m 0,0,1
 399 253 399 253 406.5 225.5 c 128,-1,2
 414 198 414 198 427.5 182 c 128,-1,3
 441 166 441 166 459.5 159.5 c 128,-1,4
 478 153 478 153 501 153 c 0,5,6
 530 153 530 153 563 171 c 128,-1,7
 596 189 596 189 630 218 c 128,-1,8
 664 247 664 247 697 283.5 c 128,-1,9
 730 320 730 320 758 357 c 128,-1,10
 786 394 786 394 807.5 427 c 128,-1,11
 829 460 829 460 841 483 c 1,12,-1
 922 873 l 1,13,14
 914 886 914 886 895.5 896 c 128,-1,15
 877 906 877 906 853 912.5 c 128,-1,16
 829 919 829 919 802 922.5 c 128,-1,17
 775 926 775 926 750 926 c 0,18,19
 699 926 699 926 653 897.5 c 128,-1,20
 607 869 607 869 568 821 c 128,-1,21
 529 773 529 773 498 709.5 c 128,-1,22
 467 646 467 646 445 576 c 128,-1,23
 423 506 423 506 411 433.5 c 128,-1,24
 399 361 399 361 399 295 c 0,0,1
761 1011 m 0,25,26
 841 1011 841 1011 910.5 991.5 c 128,-1,27
 980 972 980 972 1024 937 c 1,28,-1
 1197 994 l 1,29,30
 1214 1001 1214 1001 1222 990 c 128,-1,31
 1230 979 1230 979 1230 966 c 0,32,33
 1230 964 1230 964 1229.5 962 c 128,-1,34
 1229 960 1229 960 1229 958 c 2,35,-1
 1090 183 l 2,36,37
 1088 170 1088 170 1087 160 c 128,-1,38
 1086 150 1086 150 1086 141 c 0,39,40
 1086 112 1086 112 1094 100 c 128,-1,41
 1102 88 1102 88 1115 88 c 0,42,43
 1122 88 1122 88 1137 90.5 c 128,-1,44
 1152 93 1152 93 1168.5 97 c 128,-1,45
 1185 101 1185 101 1201 104.5 c 128,-1,46
 1217 108 1217 108 1227 111 c 0,47,48
 1229 112 1229 112 1234 112 c 0,49,50
 1246 112 1246 112 1253 100 c 128,-1,51
 1260 88 1260 88 1260 74 c 0,52,53
 1260 58 1260 58 1253 52 c 1,54,55
 1245 47 1245 47 1210 34 c 128,-1,56
 1175 21 1175 21 1124.5 8 c 128,-1,57
 1074 -5 1074 -5 1014.5 -15 c 128,-1,58
 955 -25 955 -25 897 -25 c 0,59,60
 862 -25 862 -25 838.5 -16 c 128,-1,61
 815 -7 815 -7 800.5 8 c 128,-1,62
 786 23 786 23 779.5 43.5 c 128,-1,63
 773 64 773 64 773 88 c 0,64,65
 773 106 773 106 779.5 138 c 128,-1,66
 786 170 786 170 794.5 205.5 c 128,-1,67
 803 241 803 241 811.5 273.5 c 128,-1,68
 820 306 820 306 824 324 c 1,69,70
 772 256 772 256 716.5 192.5 c 128,-1,71
 661 129 661 129 601.5 80.5 c 128,-1,72
 542 32 542 32 477.5 2.5 c 128,-1,73
 413 -27 413 -27 342 -27 c 0,74,75
 288 -27 288 -27 238 -15 c 128,-1,76
 188 -3 188 -3 150.5 30.5 c 128,-1,77
 113 64 113 64 91.5 124.5 c 128,-1,78
 70 185 70 185 73 281 c 0,79,80
 76 374 76 374 102 464.5 c 128,-1,81
 128 555 128 555 173.5 636.5 c 128,-1,82
 219 718 219 718 281.5 786.5 c 128,-1,83
 344 855 344 855 419.5 905 c 128,-1,84
 495 955 495 955 581.5 983 c 128,-1,85
 668 1011 668 1011 761 1011 c 0,25,26
EndSplineSet
Substitution2: "Single Substitution lookup 12 subtable" ordfeminine
Substitution2: "'aalt' Access All Alternates in Latin lookup 0 subtable" ordfeminine
EndChar

StartChar: b
Encoding: 98 98 68
Width: 1329
GlyphClass: 2
Flags: W
LayerCount: 2
Fore
SplineSet
277 1329 m 2,0,1
 284 1375 284 1375 270 1398.5 c 128,-1,2
 256 1422 256 1422 232.5 1432.5 c 128,-1,3
 209 1443 209 1443 182 1446 c 128,-1,4
 155 1449 155 1449 136 1454 c 1,5,6
 126 1459 126 1459 120.5 1467 c 128,-1,7
 115 1475 115 1475 117 1494 c 0,8,9
 119 1506 119 1506 127.5 1521.5 c 128,-1,10
 136 1537 136 1537 148 1538 c 0,11,12
 218 1541 218 1541 284 1543 c 128,-1,13
 350 1545 350 1545 406 1546 c 128,-1,14
 462 1547 462 1547 507.5 1547.5 c 128,-1,15
 553 1548 553 1548 583 1548 c 0,16,17
 591 1548 591 1548 601 1540 c 128,-1,18
 611 1532 611 1532 607 1508 c 2,19,-1
 551 1104 l 1,20,-1
 504 825 l 1,21,22
 542 873 542 873 586.5 908.5 c 128,-1,23
 631 944 631 944 678.5 967 c 128,-1,24
 726 990 726 990 774.5 1001.5 c 128,-1,25
 823 1013 823 1013 868 1013 c 0,26,27
 988 1013 988 1013 1068.5 970.5 c 128,-1,28
 1149 928 1149 928 1194 856.5 c 128,-1,29
 1239 785 1239 785 1251 690.5 c 128,-1,30
 1263 596 1263 596 1248 492 c 1,31,32
 1231 391 1231 391 1184.5 297 c 128,-1,33
 1138 203 1138 203 1059.5 130 c 128,-1,34
 981 57 981 57 867.5 13.5 c 128,-1,35
 754 -30 754 -30 604 -30 c 0,36,37
 519 -30 519 -30 435.5 -13.5 c 128,-1,38
 352 3 352 3 282 27 c 128,-1,39
 212 51 212 51 161.5 78 c 128,-1,40
 111 105 111 105 92 126 c 1,41,-1
 277 1329 l 2,0,1
413 165 m 1,42,43
 418 144 418 144 433 126 c 128,-1,44
 448 108 448 108 470.5 94.5 c 128,-1,45
 493 81 493 81 521 73 c 128,-1,46
 549 65 549 65 581 65 c 0,47,48
 651 65 651 65 704 98 c 128,-1,49
 757 131 757 131 795 188.5 c 128,-1,50
 833 246 833 246 856.5 324 c 128,-1,51
 880 402 880 402 892 492 c 1,52,53
 901 575 901 575 901 644 c 128,-1,54
 901 713 901 713 886 762 c 128,-1,55
 871 811 871 811 837 838 c 128,-1,56
 803 865 803 865 745 865 c 0,57,58
 703 865 703 865 666 849 c 128,-1,59
 629 833 629 833 597 809 c 128,-1,60
 565 785 565 785 539 756 c 128,-1,61
 513 727 513 727 494 702 c 1,62,-1
 413 165 l 1,42,43
EndSplineSet
EndChar

StartChar: c
Encoding: 99 99 69
Width: 1098
GlyphClass: 2
Flags: W
LayerCount: 2
Fore
SplineSet
706 1014 m 0,0,1
 895 1014 895 1014 984.5 955.5 c 128,-1,2
 1074 897 1074 897 1074 787 c 0,3,4
 1074 756 1074 756 1052 732.5 c 128,-1,5
 1030 709 1030 709 997.5 693.5 c 128,-1,6
 965 678 965 678 928 670 c 128,-1,7
 891 662 891 662 860 662 c 0,8,9
 845 662 845 662 835.5 662.5 c 128,-1,10
 826 663 826 663 819.5 666.5 c 128,-1,11
 813 670 813 670 808.5 679 c 128,-1,12
 804 688 804 688 800 705 c 2,13,-1
 746 914 l 1,14,15
 737 922 737 922 713 927.5 c 128,-1,16
 689 933 689 933 660 933 c 0,17,18
 614 933 614 933 570 896 c 128,-1,19
 526 859 526 859 492 789.5 c 128,-1,20
 458 720 458 720 437.5 619 c 128,-1,21
 417 518 417 518 417 390 c 0,22,23
 417 315 417 315 436.5 262.5 c 128,-1,24
 456 210 456 210 488.5 177 c 128,-1,25
 521 144 521 144 563 129.5 c 128,-1,26
 605 115 605 115 649 115 c 0,27,28
 692 115 692 115 729 122.5 c 128,-1,29
 766 130 766 130 800.5 145 c 128,-1,30
 835 160 835 160 868 182.5 c 128,-1,31
 901 205 901 205 936 235 c 1,32,33
 941 241 941 241 946 245.5 c 128,-1,34
 951 250 951 250 958 245 c 2,35,-1
 995 212 l 2,36,37
 1000 208 1000 208 1000 204 c 128,-1,38
 1000 200 1000 200 998 196.5 c 128,-1,39
 996 193 996 193 993 190 c 128,-1,40
 990 187 990 187 989 184 c 1,41,42
 950 137 950 137 902.5 98 c 128,-1,43
 855 59 855 59 798.5 31 c 128,-1,44
 742 3 742 3 677 -12.5 c 128,-1,45
 612 -28 612 -28 538 -28 c 0,46,47
 426 -28 426 -28 339 3 c 128,-1,48
 252 34 252 34 192 91.5 c 128,-1,49
 132 149 132 149 101 230 c 128,-1,50
 70 311 70 311 70 411 c 0,51,52
 70 539 70 539 119 649 c 128,-1,53
 168 759 168 759 254 840 c 128,-1,54
 340 921 340 921 456 967.5 c 128,-1,55
 572 1014 572 1014 706 1014 c 0,0,1
EndSplineSet
EndChar

StartChar: d
Encoding: 100 100 70
Width: 1358
GlyphClass: 2
Flags: W
LayerCount: 2
Fore
SplineSet
1255 34 m 0,0,1
 1141 -2 1141 -2 1062.5 -12 c 128,-1,2
 984 -22 984 -22 932 -15.5 c 128,-1,3
 880 -9 880 -9 851.5 10.5 c 128,-1,4
 823 30 823 30 810 53.5 c 128,-1,5
 797 77 797 77 795.5 101 c 128,-1,6
 794 125 794 125 796 141 c 1,7,8
 766 103 766 103 723 71.5 c 128,-1,9
 680 40 680 40 632.5 18 c 128,-1,10
 585 -4 585 -4 536 -16 c 128,-1,11
 487 -28 487 -28 444 -28 c 0,12,13
 340 -28 340 -28 268 5.5 c 128,-1,14
 196 39 196 39 151 95.5 c 128,-1,15
 106 152 106 152 86 226.5 c 128,-1,16
 66 301 66 301 66 383 c 0,17,18
 66 506 66 506 112.5 620 c 128,-1,19
 159 734 159 734 244 822 c 128,-1,20
 329 910 329 910 448.5 962.5 c 128,-1,21
 568 1015 568 1015 714 1015 c 0,22,23
 747 1015 747 1015 779 1013 c 128,-1,24
 811 1011 811 1011 840.5 1007.5 c 128,-1,25
 870 1004 870 1004 895 999.5 c 128,-1,26
 920 995 920 995 938 990 c 1,27,-1
 952 1104 l 1,28,-1
 985 1329 l 2,29,30
 992 1375 992 1375 973.5 1398.5 c 128,-1,31
 955 1422 955 1422 926 1432.5 c 128,-1,32
 897 1443 897 1443 865 1446 c 128,-1,33
 833 1449 833 1449 814 1454 c 1,34,35
 804 1459 804 1459 798.5 1467 c 128,-1,36
 793 1475 793 1475 795 1494 c 0,37,38
 797 1506 797 1506 805.5 1521.5 c 128,-1,39
 814 1537 814 1537 826 1538 c 0,40,41
 893 1541 893 1541 964 1543 c 128,-1,42
 1035 1545 1035 1545 1098 1546 c 128,-1,43
 1161 1547 1161 1547 1212 1547.5 c 128,-1,44
 1263 1548 1263 1548 1292 1548 c 0,45,46
 1296 1548 1296 1548 1301 1546 c 128,-1,47
 1306 1544 1306 1544 1310 1539.5 c 128,-1,48
 1314 1535 1314 1535 1316 1527.5 c 128,-1,49
 1318 1520 1318 1520 1316 1508 c 2,50,-1
 1117 175 l 2,51,52
 1112 139 1112 139 1124 123.5 c 128,-1,53
 1136 108 1136 108 1156 104 c 128,-1,54
 1176 100 1176 100 1199.5 104.5 c 128,-1,55
 1223 109 1223 109 1241 112 c 0,56,57
 1258 115 1258 115 1266.5 111 c 128,-1,58
 1275 107 1275 107 1279 85 c 0,59,60
 1281 74 1281 74 1276.5 56.5 c 128,-1,61
 1272 39 1272 39 1255 34 c 0,0,1
735 920 m 0,62,63
 675 920 675 920 622 890.5 c 128,-1,64
 569 861 569 861 527.5 805.5 c 128,-1,65
 486 750 486 750 458 670.5 c 128,-1,66
 430 591 430 591 420 492 c 1,67,68
 408 405 408 405 409.5 343.5 c 128,-1,69
 411 282 411 282 421.5 240.5 c 128,-1,70
 432 199 432 199 449.5 175 c 128,-1,71
 467 151 467 151 487 139 c 128,-1,72
 507 127 507 127 528 123.5 c 128,-1,73
 549 120 549 120 567 120 c 0,74,75
 606 120 606 120 644 135 c 128,-1,76
 682 150 682 150 715.5 174 c 128,-1,77
 749 198 749 198 776 227.5 c 128,-1,78
 803 257 803 257 821 286 c 1,79,-1
 903 802 l 1,80,81
 898 818 898 818 886.5 838.5 c 128,-1,82
 875 859 875 859 855.5 877 c 128,-1,83
 836 895 836 895 806.5 907.5 c 128,-1,84
 777 920 777 920 735 920 c 0,62,63
EndSplineSet
EndChar

StartChar: e
Encoding: 101 101 71
Width: 1141
GlyphClass: 2
Flags: W
LayerCount: 2
Fore
SplineSet
1088 781 m 0,0,1
 1088 697 1088 697 1047.5 634.5 c 128,-1,2
 1007 572 1007 572 923.5 527 c 128,-1,3
 840 482 840 482 713.5 453 c 128,-1,4
 587 424 587 424 416 407 c 1,5,6
 415 396 415 396 415 384 c 128,-1,7
 415 372 415 372 415 360 c 0,8,9
 415 290 415 290 435.5 241.5 c 128,-1,10
 456 193 456 193 489.5 162.5 c 128,-1,11
 523 132 523 132 565.5 118.5 c 128,-1,12
 608 105 608 105 652 105 c 0,13,14
 704 105 704 105 749 112 c 128,-1,15
 794 119 794 119 836 133 c 128,-1,16
 878 147 878 147 918 167.5 c 128,-1,17
 958 188 958 188 999 215 c 1,18,19
 1004 221 1004 221 1009 225.5 c 128,-1,20
 1014 230 1014 230 1021 225 c 2,21,-1
 1058 192 l 2,22,23
 1063 188 1063 188 1063 184 c 128,-1,24
 1063 180 1063 180 1061 176.5 c 128,-1,25
 1059 173 1059 173 1056 170 c 128,-1,26
 1053 167 1053 167 1052 164 c 1,27,28
 1001 121 1001 121 951 85.5 c 128,-1,29
 901 50 901 50 844 24.5 c 128,-1,30
 787 -1 787 -1 718.5 -15 c 128,-1,31
 650 -29 650 -29 561 -29 c 0,32,33
 449 -29 449 -29 359.5 0 c 128,-1,34
 270 29 270 29 207.5 83 c 128,-1,35
 145 137 145 137 111.5 212.5 c 128,-1,36
 78 288 78 288 78 381 c 0,37,38
 78 516 78 516 130 631.5 c 128,-1,39
 182 747 182 747 271.5 832 c 128,-1,40
 361 917 361 917 479 965.5 c 128,-1,41
 597 1014 597 1014 729 1014 c 0,42,43
 832 1014 832 1014 901.5 991 c 128,-1,44
 971 968 971 968 1012 933 c 128,-1,45
 1053 898 1053 898 1070.5 857 c 128,-1,46
 1088 816 1088 816 1088 781 c 0,0,1
683 933 m 0,47,48
 637 933 637 933 594 903 c 128,-1,49
 551 873 551 873 516 815 c 128,-1,50
 481 757 481 757 456 673.5 c 128,-1,51
 431 590 431 590 421 484 c 1,52,53
 508 503 508 503 576.5 531 c 128,-1,54
 645 559 645 559 691.5 598 c 128,-1,55
 738 637 738 637 762.5 689 c 128,-1,56
 787 741 787 741 787 808 c 0,57,58
 787 832 787 832 782.5 854.5 c 128,-1,59
 778 877 778 877 766.5 894.5 c 128,-1,60
 755 912 755 912 735 922.5 c 128,-1,61
 715 933 715 933 683 933 c 0,47,48
EndSplineSet
EndChar

StartChar: f
Encoding: 102 102 72
Width: 780
GlyphClass: 2
Flags: W
LayerCount: 2
Fore
SplineSet
254 892 m 1,0,-1
 81 892 l 2,1,2
 75 892 75 892 71.5 897.5 c 128,-1,3
 68 903 68 903 66 910.5 c 128,-1,4
 64 918 64 918 63.5 926.5 c 128,-1,5
 63 935 63 935 63 941 c 0,6,7
 66 960 66 960 74 969.5 c 128,-1,8
 82 979 82 979 93 984 c 1,9,-1
 266 994 l 1,10,-1
 267 994 l 1,11,-1
 279 1075 l 2,12,13
 294 1171 294 1171 337.5 1260.5 c 128,-1,14
 381 1350 381 1350 451.5 1419.5 c 128,-1,15
 522 1489 522 1489 618 1531 c 128,-1,16
 714 1573 714 1573 834 1573 c 0,17,18
 903 1573 903 1573 945.5 1560.5 c 128,-1,19
 988 1548 988 1548 1011 1527.5 c 128,-1,20
 1034 1507 1034 1507 1042 1481.5 c 128,-1,21
 1050 1456 1050 1456 1049 1431 c 1,22,23
 1049 1401 1049 1401 1030.5 1378.5 c 128,-1,24
 1012 1356 1012 1356 985 1340 c 128,-1,25
 958 1324 958 1324 928 1316.5 c 128,-1,26
 898 1309 898 1309 875 1309 c 0,27,28
 868 1309 868 1309 865 1312 c 1,29,-1
 775 1475 l 1,30,31
 751 1475 751 1475 724.5 1461.5 c 128,-1,32
 698 1448 698 1448 673 1408.5 c 128,-1,33
 648 1369 648 1369 626 1297 c 128,-1,34
 604 1225 604 1225 590 1107 c 1,35,-1
 575 994 l 1,36,-1
 830 994 l 1,37,38
 842 993 842 993 847 982.5 c 128,-1,39
 852 972 852 972 849 960 c 1,40,41
 847 941 847 941 837.5 919 c 128,-1,42
 828 897 828 897 817 892 c 1,43,-1
 562 892 l 1,44,-1
 457 56 l 1,45,46
 439 -39 439 -39 394 -129 c 128,-1,47
 349 -219 349 -219 278.5 -288.5 c 128,-1,48
 208 -358 208 -358 113.5 -400 c 128,-1,49
 19 -442 19 -442 -99 -442 c 0,50,51
 -168 -442 -168 -442 -210.5 -428 c 128,-1,52
 -253 -414 -253 -414 -276 -392.5 c 128,-1,53
 -299 -371 -299 -371 -306.5 -344.5 c 128,-1,54
 -314 -318 -314 -318 -314 -292 c 0,55,56
 -314 -262 -314 -262 -295.5 -234.5 c 128,-1,57
 -277 -207 -277 -207 -251.5 -186 c 128,-1,58
 -226 -165 -226 -165 -197.5 -152.5 c 128,-1,59
 -169 -140 -169 -140 -148 -140 c 0,60,61
 -141 -140 -141 -140 -136 -143 c 1,62,-1
 -60 -344 l 1,63,64
 -31 -343 -31 -343 -1.5 -327 c 128,-1,65
 28 -311 28 -311 54.5 -270.5 c 128,-1,66
 81 -230 81 -230 104.5 -160 c 128,-1,67
 128 -90 128 -90 145 20 c 1,68,-1
 254 892 l 1,0,-1
EndSplineSet
EndChar

StartChar: g
Encoding: 103 103 73
Width: 1329
GlyphClass: 2
Flags: W
LayerCount: 2
Fore
SplineSet
154 648 m 0,0,1
 154 745 154 745 194 814.5 c 128,-1,2
 234 884 234 884 302.5 928.5 c 128,-1,3
 371 973 371 973 462.5 993.5 c 128,-1,4
 554 1014 554 1014 656 1014 c 0,5,6
 783 1014 783 1014 866.5 990 c 128,-1,7
 950 966 950 966 1001 924 c 1,8,9
 1053 964 1053 964 1120 989 c 128,-1,10
 1187 1014 1187 1014 1258 1014 c 0,11,12
 1318 1014 1318 1014 1351.5 982.5 c 128,-1,13
 1385 951 1385 951 1385 893 c 0,14,15
 1385 886 1385 886 1384.5 879 c 128,-1,16
 1384 872 1384 872 1383 864 c 0,17,18
 1374 809 1374 809 1342 778.5 c 128,-1,19
 1310 748 1310 748 1271 748 c 0,20,21
 1251 748 1251 748 1239.5 750.5 c 128,-1,22
 1228 753 1228 753 1220.5 759 c 128,-1,23
 1213 765 1213 765 1207.5 774.5 c 128,-1,24
 1202 784 1202 784 1194 798 c 1,25,26
 1183 827 1183 827 1172.5 855.5 c 128,-1,27
 1162 884 1162 884 1155 905 c 1,28,29
 1129 903 1129 903 1102 891 c 128,-1,30
 1075 879 1075 879 1052 862 c 1,31,32
 1081 809 1081 809 1081 745 c 0,33,34
 1081 647 1081 647 1042.5 576 c 128,-1,35
 1004 505 1004 505 937 459 c 128,-1,36
 870 413 870 413 779.5 391 c 128,-1,37
 689 369 689 369 585 369 c 0,38,39
 531 369 531 369 484.5 374 c 128,-1,40
 438 379 438 379 398 388 c 1,41,42
 370 368 370 368 350.5 338.5 c 128,-1,43
 331 309 331 309 327 280 c 0,44,45
 324 260 324 260 335 248.5 c 128,-1,46
 346 237 346 237 367.5 231.5 c 128,-1,47
 389 226 389 226 419.5 225 c 128,-1,48
 450 224 450 224 487 224 c 2,49,-1
 838 224 l 2,50,51
 910 224 910 224 972 211.5 c 128,-1,52
 1034 199 1034 199 1079.5 169.5 c 128,-1,53
 1125 140 1125 140 1151 91 c 128,-1,54
 1177 42 1177 42 1177 -31 c 0,55,56
 1177 -47 1177 -47 1175.5 -63.5 c 128,-1,57
 1174 -80 1174 -80 1172 -98 c 0,58,59
 1163 -161 1163 -161 1115 -223.5 c 128,-1,60
 1067 -286 1067 -286 984 -336 c 128,-1,61
 901 -386 901 -386 784.5 -417 c 128,-1,62
 668 -448 668 -448 521 -448 c 0,63,64
 380 -448 380 -448 279 -432 c 128,-1,65
 178 -416 178 -416 112.5 -385 c 128,-1,66
 47 -354 47 -354 16 -310 c 128,-1,67
 -15 -266 -15 -266 -15 -210 c 0,68,69
 -15 -194 -15 -194 -12 -174 c 0,70,71
 -6 -133 -6 -133 14.5 -100 c 128,-1,72
 35 -67 35 -67 63.5 -40.5 c 128,-1,73
 92 -14 92 -14 124 5.5 c 128,-1,74
 156 25 156 25 185 39 c 1,75,76
 105 87 105 87 105 186 c 0,77,78
 105 203 105 203 108 223 c 0,79,80
 113 262 113 262 134.5 293.5 c 128,-1,81
 156 325 156 325 185 350 c 128,-1,82
 214 375 214 375 246 392.5 c 128,-1,83
 278 410 278 410 305 420 c 1,84,85
 226 458 226 458 190 517 c 128,-1,86
 154 576 154 576 154 648 c 0,0,1
333 1 m 1,87,88
 320 -24 320 -24 305.5 -62.5 c 128,-1,89
 291 -101 291 -101 283 -155 c 0,90,91
 280 -179 280 -179 280 -198 c 0,92,93
 280 -245 280 -245 298.5 -275 c 128,-1,94
 317 -305 317 -305 350 -322 c 128,-1,95
 383 -339 383 -339 427.5 -345.5 c 128,-1,96
 472 -352 472 -352 524 -352 c 256,97,98
 576 -352 576 -352 632 -343 c 128,-1,99
 688 -334 688 -334 736.5 -310.5 c 128,-1,100
 785 -287 785 -287 820 -245.5 c 128,-1,101
 855 -204 855 -204 865 -139 c 0,102,103
 872 -99 872 -99 861 -72.5 c 128,-1,104
 850 -46 850 -46 822.5 -29.5 c 128,-1,105
 795 -13 795 -13 751 -6 c 128,-1,106
 707 1 707 1 648 1 c 2,107,-1
 341 1 l 1,108,-1
 333 1 l 1,87,88
644 928 m 0,109,110
 594 928 594 928 560 898 c 128,-1,111
 526 868 526 868 506 823 c 128,-1,112
 486 778 486 778 477.5 725.5 c 128,-1,113
 469 673 469 673 469 629 c 0,114,115
 469 594 469 594 475.5 562.5 c 128,-1,116
 482 531 482 531 497 507 c 128,-1,117
 512 483 512 483 536.5 468.5 c 128,-1,118
 561 454 561 454 597 454 c 0,119,120
 649 454 649 454 686 482.5 c 128,-1,121
 723 511 723 511 746.5 554.5 c 128,-1,122
 770 598 770 598 781 649.5 c 128,-1,123
 792 701 792 701 792 746 c 0,124,125
 792 783 792 783 784 816 c 128,-1,126
 776 849 776 849 758 874 c 128,-1,127
 740 899 740 899 712 913.5 c 128,-1,128
 684 928 684 928 644 928 c 0,109,110
EndSplineSet
EndChar

StartChar: h
Encoding: 104 104 74
Width: 1382
GlyphClass: 2
Flags: W
LayerCount: 2
Fore
SplineSet
288 1329 m 2,0,1
 295 1375 295 1375 282.5 1398.5 c 128,-1,2
 270 1422 270 1422 248.5 1432.5 c 128,-1,3
 227 1443 227 1443 201.5 1446 c 128,-1,4
 176 1449 176 1449 157 1454 c 1,5,6
 147 1459 147 1459 141.5 1467 c 128,-1,7
 136 1475 136 1475 138 1494 c 0,8,9
 140 1506 140 1506 148.5 1521.5 c 128,-1,10
 157 1537 157 1537 169 1538 c 0,11,12
 240 1541 240 1541 305 1543 c 128,-1,13
 370 1545 370 1545 425 1546 c 128,-1,14
 480 1547 480 1547 524.5 1547.5 c 128,-1,15
 569 1548 569 1548 599 1548 c 0,16,17
 607 1548 607 1548 616 1540 c 128,-1,18
 625 1532 625 1532 623 1508 c 1,19,-1
 557 1104 l 1,20,-1
 501 785 l 1,21,22
 514 797 514 797 541.5 818.5 c 128,-1,23
 569 840 569 840 606.5 865.5 c 128,-1,24
 644 891 644 891 691 917.5 c 128,-1,25
 738 944 738 944 788.5 965.5 c 128,-1,26
 839 987 839 987 892.5 1000.5 c 128,-1,27
 946 1014 946 1014 998 1014 c 256,28,29
 1050 1014 1050 1014 1095.5 1006.5 c 128,-1,30
 1141 999 1141 999 1174 978.5 c 128,-1,31
 1207 958 1207 958 1226 921 c 128,-1,32
 1245 884 1245 884 1245 825 c 0,33,34
 1245 814 1245 814 1241 782.5 c 128,-1,35
 1237 751 1237 751 1230 706 c 128,-1,36
 1223 661 1223 661 1214 606.5 c 128,-1,37
 1205 552 1205 552 1196 496 c 128,-1,38
 1187 440 1187 440 1178 386 c 128,-1,39
 1169 332 1169 332 1162 288 c 128,-1,40
 1155 244 1155 244 1150.5 214 c 128,-1,41
 1146 184 1146 184 1145 175 c 0,42,43
 1143 153 1143 153 1147 139 c 128,-1,44
 1151 125 1151 125 1159 117 c 128,-1,45
 1167 109 1167 109 1178 106 c 128,-1,46
 1189 103 1189 103 1202 103 c 0,47,48
 1220 103 1220 103 1237.5 106 c 128,-1,49
 1255 109 1255 109 1269 112 c 0,50,51
 1286 115 1286 115 1294.5 111 c 128,-1,52
 1303 107 1303 107 1307 85 c 0,53,54
 1309 74 1309 74 1304.5 56.5 c 128,-1,55
 1300 39 1300 39 1283 34 c 0,56,57
 1192 8 1192 8 1124 -2.5 c 128,-1,58
 1056 -13 1056 -13 1006 -13 c 0,59,60
 946 -13 946 -13 909.5 -1 c 128,-1,61
 873 11 873 11 853.5 29 c 128,-1,62
 834 47 834 47 827.5 67.5 c 128,-1,63
 821 88 821 88 821 105 c 0,64,65
 821 110 821 110 822.5 117.5 c 128,-1,66
 824 125 824 125 828 146 c 128,-1,67
 832 167 832 167 839 206 c 128,-1,68
 846 245 846 245 857 313.5 c 128,-1,69
 868 382 868 382 883 485 c 128,-1,70
 898 588 898 588 919 737 c 1,71,72
 919 750 919 750 917 767 c 128,-1,73
 915 784 915 784 904 800 c 128,-1,74
 893 816 893 816 869 827 c 128,-1,75
 845 838 845 838 800 838 c 0,76,77
 752 838 752 838 704.5 818 c 128,-1,78
 657 798 657 798 616 771 c 128,-1,79
 575 744 575 744 543.5 715.5 c 128,-1,80
 512 687 512 687 494 669 c 1,81,-1
 383 0 l 1,82,-1
 71 0 l 1,83,-1
 288 1329 l 2,0,1
EndSplineSet
EndChar

StartChar: k
Encoding: 107 107 77
Width: 1313
GlyphClass: 2
Flags: W
LayerCount: 2
Fore
SplineSet
494 530 m 1,0,-1
 869 832 l 2,1,2
 891 851 891 851 884.5 864 c 128,-1,3
 878 877 878 877 857.5 885.5 c 128,-1,4
 837 894 837 894 808 899 c 128,-1,5
 779 904 779 904 756 906 c 0,6,7
 736 908 736 908 732.5 920.5 c 128,-1,8
 729 933 729 933 731 949 c 0,9,10
 732 955 732 955 735 962.5 c 128,-1,11
 738 970 738 970 743 977 c 128,-1,12
 748 984 748 984 755 989 c 128,-1,13
 762 994 762 994 771 994 c 2,14,-1
 1304 994 l 2,15,16
 1313 994 1313 994 1318.5 989 c 128,-1,17
 1324 984 1324 984 1327.5 977 c 128,-1,18
 1331 970 1331 970 1332 962.5 c 128,-1,19
 1333 955 1333 955 1332 949 c 0,20,21
 1330 931 1330 931 1320 918.5 c 128,-1,22
 1310 906 1310 906 1293 906 c 0,23,24
 1260 907 1260 907 1220 899 c 128,-1,25
 1180 891 1180 891 1140.5 877.5 c 128,-1,26
 1101 864 1101 864 1065 846 c 128,-1,27
 1029 828 1029 828 1004 808 c 2,28,-1
 828 666 l 1,29,30
 861 628 861 628 892.5 566.5 c 128,-1,31
 924 505 924 505 957 435.5 c 128,-1,32
 990 366 990 366 1026.5 296.5 c 128,-1,33
 1063 227 1063 227 1107 175 c 0,34,35
 1117 164 1117 164 1127.5 151 c 128,-1,36
 1138 138 1138 138 1149.5 127.5 c 128,-1,37
 1161 117 1161 117 1173.5 110 c 128,-1,38
 1186 103 1186 103 1200 103 c 1,39,40
 1212 104 1212 104 1223.5 107 c 128,-1,41
 1235 110 1235 110 1244 112 c 0,42,43
 1261 115 1261 115 1269.5 111 c 128,-1,44
 1278 107 1278 107 1282 85 c 0,45,46
 1284 74 1284 74 1279.5 56.5 c 128,-1,47
 1275 39 1275 39 1258 34 c 0,48,49
 1210 21 1210 21 1168.5 12 c 128,-1,50
 1127 3 1127 3 1085 -2.5 c 128,-1,51
 1043 -8 1043 -8 997.5 -10.5 c 128,-1,52
 952 -13 952 -13 898 -13 c 0,53,54
 855 -13 855 -13 828 2 c 128,-1,55
 801 17 801 17 789 37 c 1,56,57
 768 86 768 86 745 149 c 128,-1,58
 722 212 722 212 697 275 c 128,-1,59
 672 338 672 338 645.5 395 c 128,-1,60
 619 452 619 452 591 490 c 1,61,-1
 486 420 l 1,62,-1
 407 0 l 1,63,-1
 95 0 l 1,64,-1
 321 1329 l 2,65,66
 328 1375 328 1375 315.5 1398.5 c 128,-1,67
 303 1422 303 1422 281.5 1432.5 c 128,-1,68
 260 1443 260 1443 234.5 1446 c 128,-1,69
 209 1449 209 1449 190 1454 c 1,70,71
 180 1459 180 1459 174.5 1467 c 128,-1,72
 169 1475 169 1475 171 1494 c 0,73,74
 173 1506 173 1506 181.5 1521.5 c 128,-1,75
 190 1537 190 1537 202 1538 c 0,76,77
 345 1544 345 1544 451.5 1545.5 c 128,-1,78
 558 1547 558 1547 619 1548 c 0,79,80
 627 1548 627 1548 637 1540 c 128,-1,81
 647 1532 647 1532 643 1508 c 2,82,-1
 527 743 l 1,83,-1
 494 530 l 1,0,-1
EndSplineSet
EndChar

StartChar: l
Encoding: 108 108 78
Width: 725
GlyphClass: 2
Flags: W
LayerCount: 2
Fore
SplineSet
125 142 m 0,0,1
 168 439 168 439 220 735.5 c 128,-1,2
 272 1032 272 1032 314 1329 c 0,3,4
 315 1336 315 1336 315.5 1342.5 c 128,-1,5
 316 1349 316 1349 316 1354 c 0,6,7
 316 1386 316 1386 304 1403 c 128,-1,8
 292 1420 292 1420 274 1428.5 c 128,-1,9
 256 1437 256 1437 234.5 1440.5 c 128,-1,10
 213 1444 213 1444 195 1448 c 128,-1,11
 177 1452 177 1452 165 1459.5 c 128,-1,12
 153 1467 153 1467 153 1485 c 0,13,14
 153 1489 153 1489 155 1498 c 128,-1,15
 157 1507 157 1507 161 1515.5 c 128,-1,16
 165 1524 165 1524 171 1531 c 128,-1,17
 177 1538 177 1538 185 1538 c 0,18,19
 255 1541 255 1541 323.5 1543 c 128,-1,20
 392 1545 392 1545 451 1546 c 128,-1,21
 510 1547 510 1547 558 1547.5 c 128,-1,22
 606 1548 606 1548 636 1548 c 0,23,24
 644 1548 644 1548 652.5 1542 c 128,-1,25
 661 1536 661 1536 661 1518 c 0,26,27
 661 1516 661 1516 660.5 1513.5 c 128,-1,28
 660 1511 660 1511 660 1508 c 2,29,-1
 453 175 l 2,30,31
 451 160 451 160 451.5 147 c 128,-1,32
 452 134 452 134 458 124 c 128,-1,33
 464 114 464 114 476.5 108.5 c 128,-1,34
 489 103 489 103 510 103 c 256,35,36
 531 103 531 103 553.5 108 c 128,-1,37
 576 113 576 113 591 113 c 0,38,39
 600 113 600 113 608 105.5 c 128,-1,40
 616 98 616 98 616 76 c 0,41,42
 616 64 616 64 610.5 51.5 c 128,-1,43
 605 39 605 39 591 34 c 1,44,45
 481 9 481 9 392.5 -2 c 128,-1,46
 304 -13 304 -13 245 -13 c 0,47,48
 201 -13 201 -13 176.5 -1.5 c 128,-1,49
 152 10 152 10 140 27.5 c 128,-1,50
 128 45 128 45 125.5 65 c 128,-1,51
 123 85 123 85 123 102 c 0,52,53
 123 110 123 110 123 117.5 c 128,-1,54
 123 125 123 125 124 130 c 1,55,56
 124 136 124 136 125 142 c 0,0,1
EndSplineSet
EndChar

StartChar: m
Encoding: 109 109 79
Width: 2052
GlyphClass: 2
Flags: W
LayerCount: 2
Fore
SplineSet
1858 195 m 2,0,1
 1850 142 1850 142 1858 121 c 128,-1,2
 1866 100 1866 100 1883 100 c 0,3,4
 1897 100 1897 100 1922 104 c 128,-1,5
 1947 108 1947 108 1966 113 c 0,6,7
 1978 116 1978 116 1986 109.5 c 128,-1,8
 1994 103 1994 103 1997 92.5 c 128,-1,9
 2000 82 2000 82 1999 70.5 c 128,-1,10
 1998 59 1998 59 1992 54 c 1,11,12
 1983 49 1983 49 1956 37.5 c 128,-1,13
 1929 26 1929 26 1887.5 15 c 128,-1,14
 1846 4 1846 4 1792.5 -4.5 c 128,-1,15
 1739 -13 1739 -13 1676 -13 c 1,16,17
 1641 -14 1641 -14 1616.5 -8 c 128,-1,18
 1592 -2 1592 -2 1576 8.5 c 128,-1,19
 1560 19 1560 19 1550.5 33 c 128,-1,20
 1541 47 1541 47 1537 62 c 0,21,22
 1526 96 1526 96 1537 142 c 1,23,-1
 1623 732 l 1,24,25
 1623 745 1623 745 1621 764 c 128,-1,26
 1619 783 1619 783 1608 800.5 c 128,-1,27
 1597 818 1597 818 1573 830.5 c 128,-1,28
 1549 843 1549 843 1504 843 c 0,29,30
 1463 843 1463 843 1426 832 c 128,-1,31
 1389 821 1389 821 1356 803.5 c 128,-1,32
 1323 786 1323 786 1294.5 764.5 c 128,-1,33
 1266 743 1266 743 1241 722 c 1,34,-1
 1138 0 l 1,35,-1
 824 0 l 1,36,-1
 931 732 l 1,37,38
 931 745 931 745 929 764 c 128,-1,39
 927 783 927 783 916 800.5 c 128,-1,40
 905 818 905 818 881 830.5 c 128,-1,41
 857 843 857 843 812 843 c 0,42,43
 764 843 764 843 722.5 827.5 c 128,-1,44
 681 812 681 812 645 789 c 128,-1,45
 609 766 609 766 579.5 739 c 128,-1,46
 550 712 550 712 526 688 c 1,47,-1
 412 0 l 1,48,-1
 100 0 l 1,49,-1
 228 778 l 2,50,51
 235 824 235 824 222.5 847.5 c 128,-1,52
 210 871 210 871 187.5 881.5 c 128,-1,53
 165 892 165 892 139.5 895 c 128,-1,54
 114 898 114 898 96 903 c 1,55,56
 86 908 86 908 81 916 c 128,-1,57
 76 924 76 924 78 943 c 0,58,59
 80 955 80 955 88 970.5 c 128,-1,60
 96 986 96 986 108 987 c 0,61,62
 178 990 178 990 241.5 992 c 128,-1,63
 305 994 305 994 359 995 c 128,-1,64
 413 996 413 996 456.5 996.5 c 128,-1,65
 500 997 500 997 530 997 c 0,66,67
 538 997 538 997 547.5 989 c 128,-1,68
 557 981 557 981 554 957 c 2,69,-1
 528 785 l 1,70,71
 541 797 541 797 564.5 818.5 c 128,-1,72
 588 840 588 840 620.5 865.5 c 128,-1,73
 653 891 653 891 694 917.5 c 128,-1,74
 735 944 735 944 781.5 965.5 c 128,-1,75
 828 987 828 987 879.5 1000.5 c 128,-1,76
 931 1014 931 1014 986 1014 c 0,77,78
 1042 1014 1042 1014 1090 1006.5 c 128,-1,79
 1138 999 1138 999 1173.5 978 c 128,-1,80
 1209 957 1209 957 1229.5 920 c 128,-1,81
 1250 883 1250 883 1251 824 c 1,82,83
 1284 851 1284 851 1330 884 c 128,-1,84
 1376 917 1376 917 1432 946 c 128,-1,85
 1488 975 1488 975 1550.5 994.5 c 128,-1,86
 1613 1014 1613 1014 1679 1014 c 0,87,88
 1740 1014 1740 1014 1793.5 1004.5 c 128,-1,89
 1847 995 1847 995 1884 968 c 128,-1,90
 1921 941 1921 941 1937 892.5 c 128,-1,91
 1953 844 1953 844 1940 766 c 1,92,-1
 1858 195 l 2,0,1
EndSplineSet
EndChar

StartChar: n
Encoding: 110 110 80
Width: 1413
GlyphClass: 2
Flags: W
LayerCount: 2
Fore
SplineSet
1173 195 m 2,0,1
 1165 142 1165 142 1173 121 c 128,-1,2
 1181 100 1181 100 1198 100 c 0,3,4
 1212 100 1212 100 1237 104 c 128,-1,5
 1262 108 1262 108 1281 113 c 0,6,7
 1293 116 1293 116 1301 109.5 c 128,-1,8
 1309 103 1309 103 1312 92.5 c 128,-1,9
 1315 82 1315 82 1314 70.5 c 128,-1,10
 1313 59 1313 59 1307 54 c 1,11,12
 1298 49 1298 49 1270.5 37.5 c 128,-1,13
 1243 26 1243 26 1201 15 c 128,-1,14
 1159 4 1159 4 1105.5 -4.5 c 128,-1,15
 1052 -13 1052 -13 991 -13 c 1,16,17
 956 -14 956 -14 931.5 -8 c 128,-1,18
 907 -2 907 -2 891 8.5 c 128,-1,19
 875 19 875 19 865.5 33 c 128,-1,20
 856 47 856 47 852 62 c 0,21,22
 841 96 841 96 852 142 c 1,23,-1
 939 754 l 2,24,25
 943 781 943 781 939.5 798.5 c 128,-1,26
 936 816 936 816 925.5 826 c 128,-1,27
 915 836 915 836 897 840 c 128,-1,28
 879 844 879 844 853 844 c 0,29,30
 812 844 812 844 766.5 829.5 c 128,-1,31
 721 815 721 815 678 792.5 c 128,-1,32
 635 770 635 770 598 742.5 c 128,-1,33
 561 715 561 715 536 689 c 1,34,-1
 420 0 l 1,35,-1
 108 0 l 1,36,-1
 236 778 l 2,37,38
 243 824 243 824 230 847.5 c 128,-1,39
 217 871 217 871 195 881.5 c 128,-1,40
 173 892 173 892 147.5 895 c 128,-1,41
 122 898 122 898 104 903 c 1,42,43
 93 908 93 908 88.5 916 c 128,-1,44
 84 924 84 924 86 943 c 0,45,46
 88 955 88 955 96 970.5 c 128,-1,47
 104 986 104 986 116 987 c 0,48,49
 186 990 186 990 249.5 992 c 128,-1,50
 313 994 313 994 367.5 995 c 128,-1,51
 422 996 422 996 466 996.5 c 128,-1,52
 510 997 510 997 540 997 c 0,53,54
 548 997 548 997 557.5 989 c 128,-1,55
 567 981 567 981 564 957 c 2,56,-1
 538 785 l 1,57,58
 554 799 554 799 580.5 821.5 c 128,-1,59
 607 844 607 844 642.5 869.5 c 128,-1,60
 678 895 678 895 721.5 921 c 128,-1,61
 765 947 765 947 815 967.5 c 128,-1,62
 865 988 865 988 920 1001 c 128,-1,63
 975 1014 975 1014 1034 1014 c 0,64,65
 1082 1014 1082 1014 1126.5 1004.5 c 128,-1,66
 1171 995 1171 995 1203.5 968 c 128,-1,67
 1236 941 1236 941 1251 892.5 c 128,-1,68
 1266 844 1266 844 1255 766 c 2,69,-1
 1173 195 l 2,0,1
EndSplineSet
EndChar

StartChar: o
Encoding: 111 111 81
Width: 1303
GlyphClass: 2
Flags: W
LayerCount: 2
Fore
SplineSet
75 431 m 0,0,1
 73 502 73 502 89.5 573 c 128,-1,2
 106 644 106 644 139.5 708.5 c 128,-1,3
 173 773 173 773 223.5 829 c 128,-1,4
 274 885 274 885 342 926 c 128,-1,5
 410 967 410 967 494 990.5 c 128,-1,6
 578 1014 578 1014 679 1014 c 0,7,8
 820 1014 820 1014 922 980 c 128,-1,9
 1024 946 1024 946 1091.5 885.5 c 128,-1,10
 1159 825 1159 825 1192 740.5 c 128,-1,11
 1225 656 1225 656 1228 555 c 0,12,13
 1231 437 1231 437 1192.5 331 c 128,-1,14
 1154 225 1154 225 1076 145.5 c 128,-1,15
 998 66 998 66 882 19 c 128,-1,16
 766 -28 766 -28 616 -28 c 0,17,18
 478 -28 478 -28 377 5.5 c 128,-1,19
 276 39 276 39 210 100 c 128,-1,20
 144 161 144 161 111 245.5 c 128,-1,21
 78 330 78 330 75 431 c 0,0,1
600 59 m 0,22,23
 652 59 652 59 693 83 c 128,-1,24
 734 107 734 107 765.5 149 c 128,-1,25
 797 191 797 191 819 248 c 128,-1,26
 841 305 841 305 854.5 370 c 128,-1,27
 868 435 868 435 873.5 505.5 c 128,-1,28
 879 576 879 576 878 646 c 0,29,30
 877 709 877 709 866.5 760.5 c 128,-1,31
 856 812 856 812 834 848.5 c 128,-1,32
 812 885 812 885 777 905.5 c 128,-1,33
 742 926 742 926 691 926 c 0,34,35
 641 926 641 926 601 901.5 c 128,-1,36
 561 877 561 877 531 835 c 128,-1,37
 501 793 501 793 479.5 736 c 128,-1,38
 458 679 458 679 444.5 613.5 c 128,-1,39
 431 548 431 548 425.5 477.5 c 128,-1,40
 420 407 420 407 421 338 c 0,41,42
 422 276 422 276 431.5 224.5 c 128,-1,43
 441 173 441 173 461.5 136.5 c 128,-1,44
 482 100 482 100 516 79.5 c 128,-1,45
 550 59 550 59 600 59 c 0,22,23
EndSplineSet
Substitution2: "Single Substitution lookup 12 subtable" ordmasculine
Substitution2: "'aalt' Access All Alternates in Latin lookup 0 subtable" ordmasculine
EndChar

StartChar: p
Encoding: 112 112 82
Width: 1358
GlyphClass: 2
Flags: W
LayerCount: 2
Fore
SplineSet
637 -30 m 0,0,1
 585 -30 585 -30 533 -23.5 c 128,-1,2
 481 -17 481 -17 431 -6 c 1,3,-1
 424 -108 l 1,4,-1
 387 -302 l 1,5,6
 385 -319 385 -319 399.5 -330 c 128,-1,7
 414 -341 414 -341 439 -348 c 128,-1,8
 464 -355 464 -355 494.5 -359 c 128,-1,9
 525 -363 525 -363 554 -366 c 0,10,11
 574 -368 574 -368 579 -377.5 c 128,-1,12
 584 -387 584 -387 582 -403 c 0,13,14
 580 -414 580 -414 569.5 -429 c 128,-1,15
 559 -444 559 -444 542 -444 c 2,16,-1
 -68 -444 l 2,17,18
 -84 -444 -84 -444 -90.5 -429 c 128,-1,19
 -97 -414 -97 -414 -95 -403 c 0,20,21
 -92 -380 -92 -380 -83.5 -374 c 128,-1,22
 -75 -368 -75 -368 -55 -366 c 0,23,24
 -36 -364 -36 -364 -14 -361 c 128,-1,25
 8 -358 8 -358 27.5 -348 c 128,-1,26
 47 -338 47 -338 61.5 -319.5 c 128,-1,27
 76 -301 76 -301 81 -269 c 2,28,-1
 238 778 l 2,29,30
 244 824 244 824 231 847 c 128,-1,31
 218 870 218 870 196 880.5 c 128,-1,32
 174 891 174 891 149 894 c 128,-1,33
 124 897 124 897 106 903 c 0,34,35
 96 907 96 907 91 915.5 c 128,-1,36
 86 924 86 924 88 943 c 0,37,38
 90 955 90 955 98 970.5 c 128,-1,39
 106 986 106 986 118 987 c 0,40,41
 188 990 188 990 251.5 992 c 128,-1,42
 315 994 315 994 369 995 c 128,-1,43
 423 996 423 996 466.5 996.5 c 128,-1,44
 510 997 510 997 540 997 c 0,45,46
 548 997 548 997 558 989 c 128,-1,47
 568 981 568 981 564 957 c 2,48,-1
 542 815 l 1,49,50
 580 866 580 866 625.5 903.5 c 128,-1,51
 671 941 671 941 719 965.5 c 128,-1,52
 767 990 767 990 816.5 1001.5 c 128,-1,53
 866 1013 866 1013 911 1013 c 0,54,55
 1028 1013 1028 1013 1105.5 970.5 c 128,-1,56
 1183 928 1183 928 1226 856.5 c 128,-1,57
 1269 785 1269 785 1280 690.5 c 128,-1,58
 1291 596 1291 596 1276 492 c 1,59,60
 1259 391 1259 391 1209.5 297 c 128,-1,61
 1160 203 1160 203 1079 130 c 128,-1,62
 998 57 998 57 887 13.5 c 128,-1,63
 776 -30 776 -30 637 -30 c 0,0,1
453 144 m 1,64,65
 454 132 454 132 468 118.5 c 128,-1,66
 482 105 482 105 504.5 93 c 128,-1,67
 527 81 527 81 555.5 73 c 128,-1,68
 584 65 584 65 614 65 c 0,69,70
 684 65 684 65 738 98 c 128,-1,71
 792 131 792 131 830.5 188.5 c 128,-1,72
 869 246 869 246 893.5 324 c 128,-1,73
 918 402 918 402 930 492 c 1,74,75
 938 575 938 575 937.5 644 c 128,-1,76
 937 713 937 713 922 762 c 128,-1,77
 907 811 907 811 874.5 838 c 128,-1,78
 842 865 842 865 788 865 c 0,79,80
 753 865 753 865 717 851.5 c 128,-1,81
 681 838 681 838 648 817 c 128,-1,82
 615 796 615 796 587 770 c 128,-1,83
 559 744 559 744 540 719 c 1,84,-1
 453 144 l 1,64,65
EndSplineSet
EndChar

StartChar: q
Encoding: 113 113 83
Width: 1331
GlyphClass: 2
Flags: W
LayerCount: 2
Fore
SplineSet
933 956 m 1,0,1
 969 963 969 963 994.5 968.5 c 128,-1,2
 1020 974 1020 974 1039 979.5 c 128,-1,3
 1058 985 1058 985 1073.5 989 c 128,-1,4
 1089 993 1089 993 1106 997 c 0,5,6
 1111 998 1111 998 1128.5 1003 c 128,-1,7
 1146 1008 1146 1008 1166.5 1013.5 c 128,-1,8
 1187 1019 1187 1019 1206 1023.5 c 128,-1,9
 1225 1028 1225 1028 1234 1028 c 0,10,11
 1251 1028 1251 1028 1260 1014 c 128,-1,12
 1269 1000 1269 1000 1266 981 c 2,13,-1
 1044 -275 l 1,14,15
 1040 -305 1040 -305 1046 -322.5 c 128,-1,16
 1052 -340 1052 -340 1065 -349 c 128,-1,17
 1078 -358 1078 -358 1096 -361 c 128,-1,18
 1114 -364 1114 -364 1133 -366 c 0,19,20
 1154 -368 1154 -368 1160.5 -374 c 128,-1,21
 1167 -380 1167 -380 1164 -403 c 0,22,23
 1162 -414 1162 -414 1151.5 -429 c 128,-1,24
 1141 -444 1141 -444 1124 -444 c 2,25,-1
 528 -444 l 2,26,27
 511 -444 511 -444 504.5 -429 c 128,-1,28
 498 -414 498 -414 500 -403 c 0,29,30
 502 -387 502 -387 510 -377.5 c 128,-1,31
 518 -368 518 -368 538 -366 c 0,32,33
 566 -363 566 -363 597 -359 c 128,-1,34
 628 -355 628 -355 654 -348 c 128,-1,35
 680 -341 680 -341 698 -330 c 128,-1,36
 716 -319 716 -319 718 -302 c 1,37,-1
 771 -29 l 1,38,-1
 806 138 l 1,39,40
 776 100 776 100 734 69.5 c 128,-1,41
 692 39 692 39 645.5 17 c 128,-1,42
 599 -5 599 -5 551 -16.5 c 128,-1,43
 503 -28 503 -28 460 -28 c 0,44,45
 354 -28 354 -28 281.5 5.5 c 128,-1,46
 209 39 209 39 165 95.5 c 128,-1,47
 121 152 121 152 101.5 226.5 c 128,-1,48
 82 301 82 301 82 383 c 0,49,50
 82 506 82 506 127.5 620 c 128,-1,51
 173 734 173 734 257.5 822 c 128,-1,52
 342 910 342 910 462 962.5 c 128,-1,53
 582 1015 582 1015 730 1015 c 0,54,55
 796 1015 796 1015 846.5 997 c 128,-1,56
 897 979 897 979 933 956 c 1,0,1
751 920 m 0,57,58
 691 920 691 920 638 890.5 c 128,-1,59
 585 861 585 861 543.5 805.5 c 128,-1,60
 502 750 502 750 474 670.5 c 128,-1,61
 446 591 446 591 436 492 c 1,62,63
 424 405 424 405 425.5 343.5 c 128,-1,64
 427 282 427 282 437.5 240.5 c 128,-1,65
 448 199 448 199 465.5 175 c 128,-1,66
 483 151 483 151 503 139 c 128,-1,67
 523 127 523 127 544 123.5 c 128,-1,68
 565 120 565 120 583 120 c 0,69,70
 622 120 622 120 659.5 135 c 128,-1,71
 697 150 697 150 730 174 c 128,-1,72
 763 198 763 198 789.5 227.5 c 128,-1,73
 816 257 816 257 834 286 c 1,74,-1
 916 802 l 1,75,76
 911 818 911 818 900 838.5 c 128,-1,77
 889 859 889 859 870 877 c 128,-1,78
 851 895 851 895 822 907.5 c 128,-1,79
 793 920 793 920 751 920 c 0,57,58
EndSplineSet
EndChar

StartChar: r
Encoding: 114 114 84
Width: 1094
GlyphClass: 2
Flags: W
LayerCount: 2
Fore
SplineSet
566 819 m 1,0,1
 585 840 585 840 621 873 c 128,-1,2
 657 906 657 906 704 937.5 c 128,-1,3
 751 969 751 969 806.5 991.5 c 128,-1,4
 862 1014 862 1014 921 1014 c 0,5,6
 966 1014 966 1014 999 1001.5 c 128,-1,7
 1032 989 1032 989 1053 966.5 c 128,-1,8
 1074 944 1074 944 1084.5 913 c 128,-1,9
 1095 882 1095 882 1095 845 c 0,10,11
 1095 797 1095 797 1081 751 c 128,-1,12
 1067 705 1067 705 1038 669.5 c 128,-1,13
 1009 634 1009 634 963 612.5 c 128,-1,14
 917 591 917 591 853 591 c 0,15,16
 846 591 846 591 832 596.5 c 128,-1,17
 818 602 818 602 815 605 c 1,18,-1
 761 814 l 1,19,20
 740 814 740 814 712 808 c 128,-1,21
 684 802 684 802 656.5 791.5 c 128,-1,22
 629 781 629 781 603.5 767.5 c 128,-1,23
 578 754 578 754 561 738 c 1,24,-1
 441 0 l 1,25,-1
 129 0 l 1,26,-1
 257 778 l 2,27,28
 264 824 264 824 251.5 847.5 c 128,-1,29
 239 871 239 871 216.5 881.5 c 128,-1,30
 194 892 194 892 168.5 895 c 128,-1,31
 143 898 143 898 125 903 c 1,32,33
 115 908 115 908 110 916 c 128,-1,34
 105 924 105 924 107 943 c 0,35,36
 109 955 109 955 117 970.5 c 128,-1,37
 125 986 125 986 137 987 c 0,38,39
 207 990 207 990 270.5 992 c 128,-1,40
 334 994 334 994 388 995 c 128,-1,41
 442 996 442 996 485.5 996.5 c 128,-1,42
 529 997 529 997 559 997 c 0,43,44
 567 997 567 997 577 989 c 128,-1,45
 587 981 587 981 583 957 c 1,46,-1
 566 819 l 1,0,1
EndSplineSet
EndChar

StartChar: s
Encoding: 115 115 85
Width: 1059
GlyphClass: 2
Flags: W
LayerCount: 2
Fore
SplineSet
469 59 m 0,0,1
 519 59 519 59 552.5 70 c 128,-1,2
 586 81 586 81 606 100 c 128,-1,3
 626 119 626 119 634 145 c 128,-1,4
 642 171 642 171 641 201 c 0,5,6
 640 239 640 239 618.5 269.5 c 128,-1,7
 597 300 597 300 562 326.5 c 128,-1,8
 527 353 527 353 483 378.5 c 128,-1,9
 439 404 439 404 392.5 431 c 128,-1,10
 346 458 346 458 302 488.5 c 128,-1,11
 258 519 258 519 223.5 557 c 128,-1,12
 189 595 189 595 168 642 c 128,-1,13
 147 689 147 689 147 749 c 0,14,15
 147 808 147 808 181.5 857 c 128,-1,16
 216 906 216 906 277.5 940.5 c 128,-1,17
 339 975 339 975 425 994 c 128,-1,18
 511 1013 511 1013 613 1013 c 0,19,20
 716 1013 716 1013 787.5 999 c 128,-1,21
 859 985 859 985 904 961 c 128,-1,22
 949 937 949 937 970 904.5 c 128,-1,23
 991 872 991 872 994 836 c 0,24,25
 997 803 997 803 988 779.5 c 128,-1,26
 979 756 979 756 963 741 c 128,-1,27
 947 726 947 726 927.5 719.5 c 128,-1,28
 908 713 908 713 891 713 c 0,29,30
 861 713 861 713 838.5 720.5 c 128,-1,31
 816 728 816 728 803 748 c 1,32,-1
 716 914 l 1,33,34
 709 918 709 918 688 927.5 c 128,-1,35
 667 937 667 937 632 937 c 0,36,37
 581 937 581 937 544 925.5 c 128,-1,38
 507 914 507 914 483 894.5 c 128,-1,39
 459 875 459 875 447.5 850 c 128,-1,40
 436 825 436 825 437 798 c 0,41,42
 438 763 438 763 460.5 733 c 128,-1,43
 483 703 483 703 519.5 675.5 c 128,-1,44
 556 648 556 648 602 621.5 c 128,-1,45
 648 595 648 595 696 566.5 c 128,-1,46
 744 538 744 538 790 505.5 c 128,-1,47
 836 473 836 473 871.5 433.5 c 128,-1,48
 907 394 907 394 929 346.5 c 128,-1,49
 951 299 951 299 951 241 c 0,50,51
 951 197 951 197 921.5 150 c 128,-1,52
 892 103 892 103 835 63 c 128,-1,53
 778 23 778 23 693.5 -2.5 c 128,-1,54
 609 -28 609 -28 498 -28 c 0,55,56
 290 -28 290 -28 178 31 c 128,-1,57
 66 90 66 90 60 194 c 0,58,59
 58 226 58 226 68.5 247.5 c 128,-1,60
 79 269 79 269 95 281.5 c 128,-1,61
 111 294 111 294 129.5 299.5 c 128,-1,62
 148 305 148 305 162 305 c 0,63,64
 173 305 173 305 187 303.5 c 128,-1,65
 201 302 201 302 215 297.5 c 128,-1,66
 229 293 229 293 241.5 284.5 c 128,-1,67
 254 276 254 276 263 262 c 1,68,-1
 355 82 l 1,69,70
 375 65 375 65 404.5 62 c 128,-1,71
 434 59 434 59 469 59 c 0,0,1
EndSplineSet
EndChar

StartChar: t
Encoding: 116 116 86
Width: 854
GlyphClass: 2
Flags: W
LayerCount: 2
Fore
SplineSet
215 892 m 1,0,-1
 90 892 l 2,1,2
 84 892 84 892 80.5 897.5 c 128,-1,3
 77 903 77 903 75 910.5 c 128,-1,4
 73 918 73 918 72.5 926.5 c 128,-1,5
 72 935 72 935 73 941 c 0,6,7
 75 960 75 960 83.5 969.5 c 128,-1,8
 92 979 92 979 103 984 c 1,9,10
 153 988 153 988 186 998 c 128,-1,11
 219 1008 219 1008 246 1033.5 c 128,-1,12
 273 1059 273 1059 300 1105 c 128,-1,13
 327 1151 327 1151 365 1228 c 0,14,15
 383 1263 383 1263 409.5 1277 c 128,-1,16
 436 1291 436 1291 481 1291 c 2,17,-1
 562 1291 l 2,18,19
 575 1291 575 1291 581 1283 c 128,-1,20
 587 1275 587 1275 585 1267 c 2,21,-1
 540 994 l 1,22,-1
 810 994 l 1,23,24
 822 993 822 993 826.5 982.5 c 128,-1,25
 831 972 831 972 829 960 c 0,26,27
 827 941 827 941 817 919 c 128,-1,28
 807 897 807 897 796 892 c 1,29,-1
 526 892 l 1,30,-1
 434 310 l 1,31,32
 425 246 425 246 428.5 208.5 c 128,-1,33
 432 171 432 171 443.5 151.5 c 128,-1,34
 455 132 455 132 472.5 126.5 c 128,-1,35
 490 121 490 121 509 121 c 0,36,37
 539 121 539 121 571 128 c 128,-1,38
 603 135 603 135 633 145.5 c 128,-1,39
 663 156 663 156 688 168 c 128,-1,40
 713 180 713 180 728 189 c 1,41,-1
 753 101 l 1,42,43
 716 76 716 76 661.5 53 c 128,-1,44
 607 30 607 30 546.5 12 c 128,-1,45
 486 -6 486 -6 424 -17 c 128,-1,46
 362 -28 362 -28 310 -28 c 0,47,48
 259 -28 259 -28 217.5 -17.5 c 128,-1,49
 176 -7 176 -7 149 21 c 128,-1,50
 122 49 122 49 111.5 98 c 128,-1,51
 101 147 101 147 111 223 c 1,52,-1
 215 892 l 1,0,-1
EndSplineSet
EndChar

StartChar: u
Encoding: 117 117 87
Width: 1403
GlyphClass: 2
Flags: W
LayerCount: 2
Fore
SplineSet
465 273 m 2,0,1
 461 245 461 245 461.5 218 c 128,-1,2
 462 191 462 191 473.5 170 c 128,-1,3
 485 149 485 149 510 136 c 128,-1,4
 535 123 535 123 579 123 c 0,5,6
 622 123 622 123 656.5 128.5 c 128,-1,7
 691 134 691 134 719 143.5 c 128,-1,8
 747 153 747 153 770.5 166 c 128,-1,9
 794 179 794 179 816 193 c 1,10,-1
 946 993 l 1,11,-1
 1221 994 l 2,12,13
 1242 994 1242 994 1248.5 984 c 128,-1,14
 1255 974 1255 974 1253 958 c 2,15,-1
 1124 183 l 2,16,17
 1116 130 1116 130 1124 109 c 128,-1,18
 1132 88 1132 88 1149 88 c 0,19,20
 1163 88 1163 88 1182 92 c 128,-1,21
 1201 96 1201 96 1221 101 c 0,22,23
 1233 104 1233 104 1241 97.5 c 128,-1,24
 1249 91 1249 91 1252 80.5 c 128,-1,25
 1255 70 1255 70 1254 58.5 c 128,-1,26
 1253 47 1253 47 1247 42 c 1,27,28
 1238 37 1238 37 1214 25.5 c 128,-1,29
 1190 14 1190 14 1152.5 3 c 128,-1,30
 1115 -8 1115 -8 1064.5 -16.5 c 128,-1,31
 1014 -25 1014 -25 951 -25 c 0,32,33
 910 -25 910 -25 883 -13 c 128,-1,34
 856 -1 856 -1 840 19 c 128,-1,35
 824 39 824 39 819 63.5 c 128,-1,36
 814 88 814 88 819 114 c 1,37,38
 799 90 799 90 759 64.5 c 128,-1,39
 719 39 719 39 666.5 18.5 c 128,-1,40
 614 -2 614 -2 552.5 -15 c 128,-1,41
 491 -28 491 -28 429 -28 c 0,42,43
 369 -28 369 -28 314 -17.5 c 128,-1,44
 259 -7 259 -7 220 24 c 128,-1,45
 181 55 181 55 164 112 c 128,-1,46
 147 169 147 169 163 262 c 1,47,-1
 253 822 l 2,48,49
 256 844 256 844 252.5 858 c 128,-1,50
 249 872 249 872 240.5 880 c 128,-1,51
 232 888 232 888 220 891 c 128,-1,52
 208 894 208 894 195 894 c 0,53,54
 178 894 178 894 160.5 890.5 c 128,-1,55
 143 887 143 887 129 885 c 0,56,57
 112 882 112 882 100.5 886 c 128,-1,58
 89 890 89 890 85 912 c 0,59,60
 83 923 83 923 90 937.5 c 128,-1,61
 97 952 97 952 114 957 c 0,62,63
 211 982 211 982 283.5 994.5 c 128,-1,64
 356 1007 356 1007 408 1007 c 0,65,66
 461 1007 461 1007 493 999.5 c 128,-1,67
 525 992 525 992 542.5 979 c 128,-1,68
 560 966 560 966 565 949.5 c 128,-1,69
 570 933 570 933 569.5 916 c 128,-1,70
 569 899 569 899 565 882 c 128,-1,71
 561 865 561 865 560 852 c 1,72,-1
 465 273 l 2,0,1
EndSplineSet
EndChar

StartChar: v
Encoding: 118 118 88
Width: 1253
GlyphClass: 2
Flags: W
LayerCount: 2
Fore
SplineSet
204 799 m 0,0,1
 196 813 196 813 183.5 822.5 c 128,-1,2
 171 832 171 832 154 832 c 0,3,4
 123 832 123 832 105 819.5 c 128,-1,5
 87 807 87 807 65 788 c 0,6,7
 59 782 59 782 51.5 778 c 128,-1,8
 44 774 44 774 36 774 c 0,9,10
 25 774 25 774 12.5 784 c 128,-1,11
 0 794 0 794 0 820 c 0,12,13
 0 833 0 833 6 845 c 1,14,15
 39 892 39 892 78 924 c 128,-1,16
 117 956 117 956 159.5 976 c 128,-1,17
 202 996 202 996 247.5 1005 c 128,-1,18
 293 1014 293 1014 340 1014 c 0,19,20
 399 1014 399 1014 443.5 982 c 128,-1,21
 488 950 488 950 520.5 896 c 128,-1,22
 553 842 553 842 575 772 c 128,-1,23
 597 702 597 702 610 626 c 128,-1,24
 623 550 623 550 628.5 472.5 c 128,-1,25
 634 395 634 395 634 328 c 0,26,27
 634 299 634 299 634.5 273 c 128,-1,28
 635 247 635 247 634 224 c 0,29,30
 634 212 634 212 628 194 c 128,-1,31
 622 176 622 176 615.5 157.5 c 128,-1,32
 609 139 609 139 602.5 122 c 128,-1,33
 596 105 596 105 594 95 c 1,34,35
 642 127 642 127 701 175 c 128,-1,36
 760 223 760 223 812.5 284.5 c 128,-1,37
 865 346 865 346 900.5 420.5 c 128,-1,38
 936 495 936 495 936 580 c 0,39,40
 936 621 936 621 921.5 655 c 128,-1,41
 907 689 907 689 890 723 c 128,-1,42
 873 757 873 757 858.5 793 c 128,-1,43
 844 829 844 829 844 874 c 0,44,45
 844 903 844 903 853.5 928.5 c 128,-1,46
 863 954 863 954 882 973 c 128,-1,47
 901 992 901 992 929 1003 c 128,-1,48
 957 1014 957 1014 994 1014 c 0,49,50
 1048 1014 1048 1014 1086.5 991 c 128,-1,51
 1125 968 1125 968 1149 932 c 128,-1,52
 1173 896 1173 896 1184.5 851 c 128,-1,53
 1196 806 1196 806 1196 761 c 0,54,55
 1196 673 1196 673 1161 584 c 128,-1,56
 1126 495 1126 495 1070.5 411.5 c 128,-1,57
 1015 328 1015 328 946.5 254 c 128,-1,58
 878 180 878 180 810.5 122.5 c 128,-1,59
 743 65 743 65 684.5 26.5 c 128,-1,60
 626 -12 626 -12 591 -23 c 0,61,62
 589 -24 589 -24 585.5 -24 c 128,-1,63
 582 -24 582 -24 575 -24 c 128,-1,64
 568 -24 568 -24 555 -24 c 128,-1,65
 542 -24 542 -24 521 -24 c 0,66,67
 447 -24 447 -24 416.5 -14 c 128,-1,68
 386 -4 386 -4 386 22 c 0,69,70
 386 31 386 31 386.5 48 c 128,-1,71
 387 65 387 65 387 91 c 0,72,73
 387 236 387 236 365 354 c 128,-1,74
 343 472 343 472 313 561 c 128,-1,75
 283 650 283 650 252 709.5 c 128,-1,76
 221 769 221 769 204 799 c 0,0,1
EndSplineSet
EndChar

StartChar: w
Encoding: 119 119 89
Width: 1913
GlyphClass: 2
Flags: W
LayerCount: 2
Fore
SplineSet
197 799 m 0,0,1
 189 813 189 813 176.5 822.5 c 128,-1,2
 164 832 164 832 147 832 c 0,3,4
 116 832 116 832 98 819.5 c 128,-1,5
 80 807 80 807 58 788 c 0,6,7
 52 782 52 782 44.5 778 c 128,-1,8
 37 774 37 774 29 774 c 0,9,10
 18 774 18 774 5.5 784 c 128,-1,11
 -7 794 -7 794 -7 820 c 0,12,13
 -7 833 -7 833 -1 845 c 1,14,15
 32 892 32 892 71 924 c 128,-1,16
 110 956 110 956 152.5 976 c 128,-1,17
 195 996 195 996 240.5 1005 c 128,-1,18
 286 1014 286 1014 333 1014 c 0,19,20
 392 1014 392 1014 436.5 982 c 128,-1,21
 481 950 481 950 513.5 896 c 128,-1,22
 546 842 546 842 568 772 c 128,-1,23
 590 702 590 702 603 626 c 128,-1,24
 616 550 616 550 621.5 472.5 c 128,-1,25
 627 395 627 395 627 328 c 0,26,27
 627 299 627 299 627.5 273 c 128,-1,28
 628 247 628 247 627 224 c 0,29,30
 627 212 627 212 621 194 c 128,-1,31
 615 176 615 176 608.5 157.5 c 128,-1,32
 602 139 602 139 595.5 122 c 128,-1,33
 589 105 589 105 587 95 c 1,34,35
 619 116 619 116 659 148 c 128,-1,36
 699 180 699 180 740 221.5 c 128,-1,37
 781 263 781 263 820.5 311 c 128,-1,38
 860 359 860 359 891 412 c 128,-1,39
 922 465 922 465 941.5 520.5 c 128,-1,40
 961 576 961 576 963 632 c 1,41,42
 943 692 943 692 924 734 c 128,-1,43
 905 776 905 776 892 799 c 0,44,45
 884 813 884 813 871.5 822.5 c 128,-1,46
 859 832 859 832 842 832 c 0,47,48
 828 832 828 832 812 828 c 128,-1,49
 796 824 796 824 774 805 c 0,50,51
 768 799 768 799 760.5 795 c 128,-1,52
 753 791 753 791 745 791 c 0,53,54
 734 791 734 791 721.5 801 c 128,-1,55
 709 811 709 811 709 837 c 0,56,57
 709 850 709 850 715 862 c 1,58,59
 748 909 748 909 784 938.5 c 128,-1,60
 820 968 820 968 856.5 985 c 128,-1,61
 893 1002 893 1002 929 1008 c 128,-1,62
 965 1014 965 1014 998 1014 c 0,63,64
 1057 1014 1057 1014 1101 985.5 c 128,-1,65
 1145 957 1145 957 1177 907.5 c 128,-1,66
 1209 858 1209 858 1230.5 791.5 c 128,-1,67
 1252 725 1252 725 1264.5 649 c 128,-1,68
 1277 573 1277 573 1282 490.5 c 128,-1,69
 1287 408 1287 408 1287 328 c 2,70,-1
 1287 224 l 2,71,72
 1287 212 1287 212 1282 194 c 128,-1,73
 1277 176 1277 176 1271 157.5 c 128,-1,74
 1265 139 1265 139 1259.5 122 c 128,-1,75
 1254 105 1254 105 1252 95 c 1,76,77
 1298 127 1298 127 1355.5 175 c 128,-1,78
 1413 223 1413 223 1464 284.5 c 128,-1,79
 1515 346 1515 346 1549.5 420.5 c 128,-1,80
 1584 495 1584 495 1584 580 c 0,81,82
 1584 621 1584 621 1569.5 655 c 128,-1,83
 1555 689 1555 689 1538 723 c 128,-1,84
 1521 757 1521 757 1506.5 793 c 128,-1,85
 1492 829 1492 829 1492 874 c 0,86,87
 1492 903 1492 903 1501.5 928.5 c 128,-1,88
 1511 954 1511 954 1530 973 c 128,-1,89
 1549 992 1549 992 1577 1003 c 128,-1,90
 1605 1014 1605 1014 1642 1014 c 0,91,92
 1696 1014 1696 1014 1734.5 991 c 128,-1,93
 1773 968 1773 968 1797 932 c 128,-1,94
 1821 896 1821 896 1832.5 851 c 128,-1,95
 1844 806 1844 806 1844 761 c 0,96,97
 1844 673 1844 673 1809.5 584 c 128,-1,98
 1775 495 1775 495 1720.5 411.5 c 128,-1,99
 1666 328 1666 328 1598.5 254 c 128,-1,100
 1531 180 1531 180 1465 122.5 c 128,-1,101
 1399 65 1399 65 1341.5 26.5 c 128,-1,102
 1284 -12 1284 -12 1249 -23 c 0,103,104
 1247 -24 1247 -24 1243.5 -24 c 128,-1,105
 1240 -24 1240 -24 1233 -24 c 128,-1,106
 1226 -24 1226 -24 1213 -24 c 128,-1,107
 1200 -24 1200 -24 1179 -24 c 0,108,109
 1105 -24 1105 -24 1074.5 -14 c 128,-1,110
 1044 -4 1044 -4 1044 22 c 0,111,112
 1044 31 1044 31 1044.5 48 c 128,-1,113
 1045 65 1045 65 1045 91 c 0,114,115
 1045 163 1045 163 1040.5 228 c 128,-1,116
 1036 293 1036 293 1028 351 c 1,117,118
 972 278 972 278 907.5 214.5 c 128,-1,119
 843 151 843 151 782 101.5 c 128,-1,120
 721 52 721 52 668.5 19.5 c 128,-1,121
 616 -13 616 -13 584 -23 c 0,122,123
 582 -24 582 -24 578.5 -24 c 128,-1,124
 575 -24 575 -24 568 -24 c 128,-1,125
 561 -24 561 -24 548 -24 c 128,-1,126
 535 -24 535 -24 514 -24 c 0,127,128
 440 -24 440 -24 409.5 -14 c 128,-1,129
 379 -4 379 -4 379 22 c 0,130,131
 379 31 379 31 379.5 48 c 128,-1,132
 380 65 380 65 380 91 c 0,133,134
 380 236 380 236 358 354 c 128,-1,135
 336 472 336 472 306 561 c 128,-1,136
 276 650 276 650 245 709.5 c 128,-1,137
 214 769 214 769 197 799 c 0,0,1
EndSplineSet
EndChar

StartChar: x
Encoding: 120 120 90
Width: 1194
GlyphClass: 2
Flags: W
LayerCount: 2
Fore
SplineSet
344 77 m 1,0,1
 309 20 309 20 266 -5 c 128,-1,2
 223 -30 223 -30 176 -30 c 0,3,4
 134 -30 134 -30 98.5 -16.5 c 128,-1,5
 63 -3 63 -3 37 20.5 c 128,-1,6
 11 44 11 44 -3.5 75.5 c 128,-1,7
 -18 107 -18 107 -18 142 c 0,8,9
 -18 185 -18 185 0 212.5 c 128,-1,10
 18 240 18 240 44.5 253 c 128,-1,11
 71 266 71 266 102.5 264 c 128,-1,12
 134 262 134 262 161 247 c 2,13,-1
 210 220 l 1,14,-1
 455 462 l 1,15,-1
 297 796 l 2,16,17
 289 811 289 811 279 817 c 128,-1,18
 269 823 269 823 258 823 c 0,19,20
 243 823 243 823 227 814.5 c 128,-1,21
 211 806 211 806 196.5 793.5 c 128,-1,22
 182 781 182 781 170 767 c 128,-1,23
 158 753 158 753 151 743 c 0,24,25
 142 728 142 728 128 731.5 c 128,-1,26
 114 735 114 735 97 751 c 0,27,28
 89 759 89 759 83.5 776.5 c 128,-1,29
 78 794 78 794 85 810 c 1,30,31
 156 904 156 904 246 954 c 128,-1,32
 336 1004 336 1004 452 1004 c 0,33,34
 482 1004 482 1004 503.5 996 c 128,-1,35
 525 988 525 988 542 971.5 c 128,-1,36
 559 955 559 955 572.5 928 c 128,-1,37
 586 901 586 901 600 864 c 2,38,-1
 694 632 l 1,39,-1
 842 887 l 1,40,41
 877 944 877 944 920 969 c 128,-1,42
 963 994 963 994 1010 994 c 0,43,44
 1052 994 1052 994 1087.5 980.5 c 128,-1,45
 1123 967 1123 967 1149 943.5 c 128,-1,46
 1175 920 1175 920 1189.5 888.5 c 128,-1,47
 1204 857 1204 857 1204 822 c 0,48,49
 1204 778 1204 778 1186 751 c 128,-1,50
 1168 724 1168 724 1141.5 711 c 128,-1,51
 1115 698 1115 698 1083.5 700 c 128,-1,52
 1052 702 1052 702 1025 717 c 2,53,-1
 976 744 l 1,54,-1
 725 543 l 1,55,-1
 905 183 l 2,56,57
 915 163 915 163 941 163 c 0,58,59
 957 163 957 163 974.5 169 c 128,-1,60
 992 175 992 175 1008 185.5 c 128,-1,61
 1024 196 1024 196 1037.5 209 c 128,-1,62
 1051 222 1051 222 1059 236 c 0,63,64
 1068 251 1068 251 1077.5 255.5 c 128,-1,65
 1087 260 1087 260 1104 245 c 0,66,67
 1108 241 1108 241 1113.5 231 c 128,-1,68
 1119 221 1119 221 1123 209 c 128,-1,69
 1127 197 1127 197 1128.5 185.5 c 128,-1,70
 1130 174 1130 174 1127 166 c 1,71,72
 1052 72 1052 72 955.5 22 c 128,-1,73
 859 -28 859 -28 750 -28 c 0,74,75
 720 -28 720 -28 699.5 -19.5 c 128,-1,76
 679 -11 679 -11 662.5 6.5 c 128,-1,77
 646 24 646 24 632 50 c 128,-1,78
 618 76 618 76 602 112 c 1,79,-1
 499 364 l 1,80,-1
 344 77 l 1,0,1
EndSplineSet
EndChar

StartChar: y
Encoding: 121 121 91
Width: 1370
GlyphClass: 2
Flags: W
LayerCount: 2
Fore
SplineSet
281 -347 m 1,0,1
 336 -319 336 -319 388.5 -281 c 128,-1,2
 441 -243 441 -243 488.5 -199.5 c 128,-1,3
 536 -156 536 -156 577.5 -110.5 c 128,-1,4
 619 -65 619 -65 652 -23 c 1,5,6
 564 -23 564 -23 515 -16.5 c 128,-1,7
 466 -10 466 -10 466 22 c 0,8,9
 466 31 466 31 467.5 53 c 128,-1,10
 469 75 469 75 467 101 c 0,11,12
 459 263 459 263 436 383.5 c 128,-1,13
 413 504 413 504 384 588.5 c 128,-1,14
 355 673 355 673 325 724 c 128,-1,15
 295 775 295 775 274 799 c 0,16,17
 263 811 263 811 252 821.5 c 128,-1,18
 241 832 241 832 224 832 c 0,19,20
 193 832 193 832 165 819.5 c 128,-1,21
 137 807 137 807 115 788 c 0,22,23
 109 782 109 782 101.5 778 c 128,-1,24
 94 774 94 774 86 774 c 0,25,26
 75 774 75 774 62.5 784 c 128,-1,27
 50 794 50 794 50 820 c 0,28,29
 50 833 50 833 56 845 c 1,30,31
 89 892 89 892 129.5 924 c 128,-1,32
 170 956 170 956 214 976 c 128,-1,33
 258 996 258 996 305.5 1005 c 128,-1,34
 353 1014 353 1014 400 1014 c 0,35,36
 464 1014 464 1014 513.5 974.5 c 128,-1,37
 563 935 563 935 599.5 869.5 c 128,-1,38
 636 804 636 804 660.5 719 c 128,-1,39
 685 634 685 634 700 542.5 c 128,-1,40
 715 451 715 451 721.5 360.5 c 128,-1,41
 728 270 728 270 728 194 c 0,42,43
 728 175 728 175 728 155 c 128,-1,44
 728 135 728 135 728 117 c 128,-1,45
 728 99 728 99 727.5 84 c 128,-1,46
 727 69 727 69 726 59 c 1,47,48
 747 78 747 78 775.5 112.5 c 128,-1,49
 804 147 804 147 835.5 191 c 128,-1,50
 867 235 867 235 897.5 286 c 128,-1,51
 928 337 928 337 952 388.5 c 128,-1,52
 976 440 976 440 991 489.5 c 128,-1,53
 1006 539 1006 539 1006 580 c 256,54,55
 1006 621 1006 621 991.5 655 c 128,-1,56
 977 689 977 689 960 723 c 128,-1,57
 943 757 943 757 928.5 793 c 128,-1,58
 914 829 914 829 914 874 c 0,59,60
 914 903 914 903 923.5 928.5 c 128,-1,61
 933 954 933 954 952 973 c 128,-1,62
 971 992 971 992 999 1003 c 128,-1,63
 1027 1014 1027 1014 1064 1014 c 0,64,65
 1118 1014 1118 1014 1156.5 991 c 128,-1,66
 1195 968 1195 968 1219 932 c 128,-1,67
 1243 896 1243 896 1254.5 851 c 128,-1,68
 1266 806 1266 806 1266 761 c 0,69,70
 1266 694 1266 694 1242.5 621.5 c 128,-1,71
 1219 549 1219 549 1172 464.5 c 128,-1,72
 1125 380 1125 380 1053.5 280 c 128,-1,73
 982 180 982 180 886 59 c 0,74,75
 685 -196 685 -196 527 -322.5 c 128,-1,76
 369 -449 369 -449 258 -449 c 0,77,78
 191 -449 191 -449 141.5 -432.5 c 128,-1,79
 92 -416 92 -416 60 -389.5 c 128,-1,80
 28 -363 28 -363 12 -329 c 128,-1,81
 -4 -295 -4 -295 -4 -260 c 0,82,83
 -4 -236 -4 -236 2.5 -214 c 128,-1,84
 9 -192 9 -192 22.5 -175 c 128,-1,85
 36 -158 36 -158 56.5 -148 c 128,-1,86
 77 -138 77 -138 104 -138 c 0,87,88
 140 -138 140 -138 165.5 -153 c 128,-1,89
 191 -168 191 -168 205 -202 c 1,90,-1
 281 -347 l 1,0,1
EndSplineSet
EndChar

StartChar: z
Encoding: 122 122 92
Width: 1059
GlyphClass: 2
Flags: W
LayerCount: 2
Fore
SplineSet
-1 34 m 0,0,1
 0 45 0 45 3.5 52 c 128,-1,2
 7 59 7 59 13.5 68 c 128,-1,3
 20 77 20 77 30 89.5 c 128,-1,4
 40 102 40 102 55 123 c 2,5,-1
 661 911 l 1,6,-1
 372 911 l 2,7,8
 350 911 350 911 329 895.5 c 128,-1,9
 308 880 308 880 288.5 855.5 c 128,-1,10
 269 831 269 831 252.5 801 c 128,-1,11
 236 771 236 771 223 742.5 c 128,-1,12
 210 714 210 714 201.5 690 c 128,-1,13
 193 666 193 666 190 654 c 0,14,15
 185 634 185 634 170 627.5 c 128,-1,16
 155 621 155 621 139 621 c 0,17,18
 133 621 133 621 124.5 623 c 128,-1,19
 116 625 116 625 108.5 629.5 c 128,-1,20
 101 634 101 634 96 640 c 128,-1,21
 91 646 91 646 93 655 c 2,22,-1
 141 953 l 2,23,24
 144 971 144 971 161.5 982 c 128,-1,25
 179 993 179 993 194 994 c 1,26,-1
 1014 994 l 2,27,28
 1035 994 1035 994 1049.5 987.5 c 128,-1,29
 1064 981 1064 981 1064 967 c 0,30,31
 1064 949 1064 949 1058.5 936 c 128,-1,32
 1053 923 1053 923 1047 915 c 2,33,-1
 400 83 l 1,34,-1
 705 83 l 2,35,36
 727 83 727 83 748 98.5 c 128,-1,37
 769 114 769 114 788.5 138.5 c 128,-1,38
 808 163 808 163 824.5 193 c 128,-1,39
 841 223 841 223 854 251.5 c 128,-1,40
 867 280 867 280 875.5 304 c 128,-1,41
 884 328 884 328 887 340 c 0,42,43
 892 360 892 360 902.5 366.5 c 128,-1,44
 913 373 913 373 929 373 c 0,45,46
 935 373 935 373 943 371 c 128,-1,47
 951 369 951 369 958.5 364.5 c 128,-1,48
 966 360 966 360 970.5 354 c 128,-1,49
 975 348 975 348 974 339 c 2,50,-1
 934 41 l 2,51,52
 932 21 932 21 914.5 11 c 128,-1,53
 897 1 897 1 882 0 c 1,54,-1
 30 0 l 2,55,56
 16 0 16 0 6.5 10 c 128,-1,57
 -3 20 -3 20 -1 34 c 0,0,1
EndSplineSet
EndChar

StartChar: braceleft
Encoding: 123 123 93
Width: 1024
GlyphClass: 2
Flags: W
LayerCount: 2
Fore
SplineSet
321 358 m 2,0,1
 327 399 327 399 316 434 c 128,-1,2
 305 469 305 469 279.5 494.5 c 128,-1,3
 254 520 254 520 216.5 534.5 c 128,-1,4
 179 549 179 549 132 549 c 2,5,-1
 102 549 l 1,6,-1
 119 659 l 1,7,-1
 149 659 l 2,8,9
 196 659 196 659 238.5 673.5 c 128,-1,10
 281 688 281 688 314.5 713.5 c 128,-1,11
 348 739 348 739 370.5 774 c 128,-1,12
 393 809 393 809 399 850 c 2,13,-1
 461 1237 l 2,14,15
 474 1320 474 1320 515.5 1377 c 128,-1,16
 557 1434 557 1434 611.5 1469.5 c 128,-1,17
 666 1505 666 1505 726.5 1520.5 c 128,-1,18
 787 1536 787 1536 840 1536 c 2,19,-1
 1083 1536 l 1,20,-1
 1070 1449 l 1,21,-1
 957 1449 l 2,22,23
 917 1449 917 1449 887 1433.5 c 128,-1,24
 857 1418 857 1418 836 1393 c 128,-1,25
 815 1368 815 1368 802 1338 c 128,-1,26
 789 1308 789 1308 783 1280 c 1,27,-1
 719 873 l 2,28,29
 709 812 709 812 679.5 766 c 128,-1,30
 650 720 650 720 605.5 687 c 128,-1,31
 561 654 561 654 503 633.5 c 128,-1,32
 445 613 445 613 378 603 c 1,33,34
 441 592 441 592 492 572 c 128,-1,35
 543 552 543 552 577.5 519.5 c 128,-1,36
 612 487 612 487 627 441.5 c 128,-1,37
 642 396 642 396 633 335 c 2,38,-1
 568 -72 l 2,39,40
 563 -101 563 -101 566 -130.5 c 128,-1,41
 569 -160 569 -160 582.5 -185 c 128,-1,42
 596 -210 596 -210 621 -225.5 c 128,-1,43
 646 -241 646 -241 687 -241 c 2,44,-1
 800 -241 l 1,45,-1
 786 -328 l 1,46,-1
 543 -328 l 2,47,48
 508 -328 508 -328 471 -321.5 c 128,-1,49
 434 -315 434 -315 399.5 -300 c 128,-1,50
 365 -285 365 -285 335 -261.5 c 128,-1,51
 305 -238 305 -238 285 -205 c 128,-1,52
 265 -172 265 -172 257 -128.5 c 128,-1,53
 249 -85 249 -85 258 -29 c 2,54,-1
 321 358 l 2,0,1
EndSplineSet
EndChar

StartChar: bar
Encoding: 124 124 94
Width: 795
GlyphClass: 2
Flags: W
LayerCount: 2
Fore
SplineSet
514 1535 m 1,0,-1
 514 -367 l 1,1,-1
 369 -367 l 1,2,-1
 369 1535 l 1,3,-1
 514 1535 l 1,0,-1
EndSplineSet
EndChar

StartChar: braceright
Encoding: 125 125 95
Width: 1024
GlyphClass: 2
Flags: W
LayerCount: 2
Fore
SplineSet
688 850 m 2,0,1
 681 809 681 809 691 774 c 128,-1,2
 701 739 701 739 726 713.5 c 128,-1,3
 751 688 751 688 788 673.5 c 128,-1,4
 825 659 825 659 872 659 c 2,5,-1
 902 659 l 1,6,-1
 882 549 l 1,7,-1
 852 549 l 2,8,9
 805 549 805 549 762 534.5 c 128,-1,10
 719 520 719 520 685 494.5 c 128,-1,11
 651 469 651 469 628 434 c 128,-1,12
 605 399 605 399 598 358 c 2,13,-1
 528 -29 l 2,14,15
 512 -112 512 -112 469.5 -169.5 c 128,-1,16
 427 -227 427 -227 371.5 -262 c 128,-1,17
 316 -297 316 -297 254.5 -312.5 c 128,-1,18
 193 -328 193 -328 141 -328 c 2,19,-1
 -100 -328 l 1,20,-1
 -84 -241 l 1,21,-1
 28 -241 l 2,22,23
 68 -241 68 -241 98.5 -225.5 c 128,-1,24
 129 -210 129 -210 151 -185 c 128,-1,25
 173 -160 173 -160 186 -130.5 c 128,-1,26
 199 -101 199 -101 204 -72 c 2,27,-1
 278 335 l 2,28,29
 289 396 289 396 320 442 c 128,-1,30
 351 488 351 488 396.5 521 c 128,-1,31
 442 554 442 554 500.5 574.5 c 128,-1,32
 559 595 559 595 625 605 c 1,33,34
 562 615 562 615 511.5 635.5 c 128,-1,35
 461 656 461 656 427 688.5 c 128,-1,36
 393 721 393 721 379 766.5 c 128,-1,37
 365 812 365 812 376 873 c 2,38,-1
 451 1280 l 2,39,40
 456 1308 456 1308 453.5 1338 c 128,-1,41
 451 1368 451 1368 438.5 1393 c 128,-1,42
 426 1418 426 1418 400.5 1433.5 c 128,-1,43
 375 1449 375 1449 335 1449 c 2,44,-1
 222 1449 l 1,45,-1
 239 1536 l 1,46,-1
 482 1536 l 2,47,48
 534 1536 534 1536 590 1520.5 c 128,-1,49
 646 1505 646 1505 688.5 1469.5 c 128,-1,50
 731 1434 731 1434 752.5 1377 c 128,-1,51
 774 1320 774 1320 759 1237 c 2,52,-1
 688 850 l 2,0,1
EndSplineSet
EndChar

StartChar: asciitilde
Encoding: 126 126 96
Width: 1440
GlyphClass: 2
Flags: W
LayerCount: 2
Fore
SplineSet
1104 490 m 1,0,1
 1089 472 1089 472 1066 456 c 128,-1,2
 1043 440 1043 440 1017 429 c 128,-1,3
 991 418 991 418 963.5 411.5 c 128,-1,4
 936 405 936 405 913 405 c 0,5,6
 870 405 870 405 834.5 414.5 c 128,-1,7
 799 424 799 424 766.5 438.5 c 128,-1,8
 734 453 734 453 702 469.5 c 128,-1,9
 670 486 670 486 635 501 c 1,10,11
 579 529 579 529 536 534 c 128,-1,12
 493 539 493 539 460.5 530.5 c 128,-1,13
 428 522 428 522 404.5 504 c 128,-1,14
 381 486 381 486 362.5 466.5 c 128,-1,15
 344 447 344 447 330 430 c 128,-1,16
 316 413 316 413 303 408 c 1,17,18
 292 406 292 406 276.5 418.5 c 128,-1,19
 261 431 261 431 250 446 c 0,20,21
 243 456 243 456 243 477 c 128,-1,22
 243 498 243 498 249 508 c 0,23,24
 260 526 260 526 269.5 542 c 128,-1,25
 279 558 279 558 289.5 572.5 c 128,-1,26
 300 587 300 587 311.5 601 c 128,-1,27
 323 615 323 615 338 630 c 1,28,29
 353 648 353 648 375.5 665.5 c 128,-1,30
 398 683 398 683 424 696 c 128,-1,31
 450 709 450 709 477 717 c 128,-1,32
 504 725 504 725 529 725 c 0,33,34
 570 725 570 725 604 715.5 c 128,-1,35
 638 706 638 706 669.5 691.5 c 128,-1,36
 701 677 701 677 732 660.5 c 128,-1,37
 763 644 763 644 797 629 c 1,38,39
 853 601 853 601 896.5 596 c 128,-1,40
 940 591 940 591 973.5 599.5 c 128,-1,41
 1007 608 1007 608 1032.5 626 c 128,-1,42
 1058 644 1058 644 1077 663.5 c 128,-1,43
 1096 683 1096 683 1111 700 c 128,-1,44
 1126 717 1126 717 1139 722 c 1,45,46
 1150 724 1150 724 1165.5 711.5 c 128,-1,47
 1181 699 1181 699 1192 684 c 0,48,49
 1195 679 1195 679 1195 670.5 c 128,-1,50
 1195 662 1195 662 1193 653 c 128,-1,51
 1191 644 1191 644 1188 635.5 c 128,-1,52
 1185 627 1185 627 1183 622 c 0,53,54
 1169 585 1169 585 1151.5 552.5 c 128,-1,55
 1134 520 1134 520 1104 490 c 1,0,1
EndSplineSet
EndChar

StartChar: Aring
Encoding: 197 197 98
Width: 1552
Flags: W
LayerCount: 2
Fore
SplineSet
942 408 m 1,0,-1
 391 408 l 1,1,-1
 260 142 l 2,2,3
 252 125 252 125 252 119 c 0,4,5
 252 107 252 107 265.5 102 c 128,-1,6
 279 97 279 97 299.5 95.5 c 128,-1,7
 320 94 320 94 343.5 93.5 c 128,-1,8
 367 93 367 93 387.5 90 c 128,-1,9
 408 87 408 87 421.5 80 c 128,-1,10
 435 73 435 73 435 57 c 0,11,12
 435 55 435 55 433.5 45.5 c 128,-1,13
 432 36 432 36 427.5 26 c 128,-1,14
 423 16 423 16 415.5 8 c 128,-1,15
 408 0 408 0 396 0 c 2,16,-1
 -73 0 l 2,17,18
 -88 0 -88 0 -93.5 16 c 128,-1,19
 -99 32 -99 32 -99 45 c 0,20,21
 -99 71 -99 71 -90.5 78.5 c 128,-1,22
 -82 86 -82 86 -61 88 c 0,23,24
 -42 90 -42 90 -18 90 c 128,-1,25
 6 90 6 90 31.5 96 c 128,-1,26
 57 102 57 102 80.5 117 c 128,-1,27
 104 132 104 132 121 165 c 2,28,-1
 780 1413 l 1,29,30
 741 1424 741 1424 710.5 1444.5 c 128,-1,31
 680 1465 680 1465 659.5 1494 c 128,-1,32
 639 1523 639 1523 630.5 1560 c 128,-1,33
 622 1597 622 1597 628 1641 c 0,34,35
 636 1696 636 1696 663.5 1739.5 c 128,-1,36
 691 1783 691 1783 731.5 1814 c 128,-1,37
 772 1845 772 1845 823.5 1861.5 c 128,-1,38
 875 1878 875 1878 931 1878 c 0,39,40
 986 1878 986 1878 1033 1861 c 128,-1,41
 1080 1844 1080 1844 1112.5 1812.5 c 128,-1,42
 1145 1781 1145 1781 1160 1737 c 128,-1,43
 1175 1693 1175 1693 1168 1638 c 1,44,45
 1162 1599 1162 1599 1146 1565 c 128,-1,46
 1130 1531 1130 1531 1106 1504 c 128,-1,47
 1082 1477 1082 1477 1051 1456.5 c 128,-1,48
 1020 1436 1020 1436 984 1423 c 1,49,-1
 1382 165 l 2,50,51
 1395 124 1395 124 1428 106 c 128,-1,52
 1461 88 1461 88 1523 88 c 0,53,54
 1547 88 1547 88 1557 84.5 c 128,-1,55
 1567 81 1567 81 1567 61 c 2,56,-1
 1567 51 l 1,57,58
 1566 45 1566 45 1563 36.5 c 128,-1,59
 1560 28 1560 28 1555 20 c 128,-1,60
 1550 12 1550 12 1543 6 c 128,-1,61
 1536 0 1536 0 1528 0 c 2,62,-1
 862 0 l 2,63,64
 854 0 854 0 848.5 5 c 128,-1,65
 843 10 843 10 839.5 17.5 c 128,-1,66
 836 25 836 25 834.5 33.5 c 128,-1,67
 833 42 833 42 833 48 c 0,68,69
 833 65 833 65 841 75.5 c 128,-1,70
 849 86 849 86 869 88 c 0,71,72
 901 91 901 91 928 91.5 c 128,-1,73
 955 92 955 92 975 94.5 c 128,-1,74
 995 97 995 97 1006.5 103 c 128,-1,75
 1018 109 1018 109 1018 122 c 0,76,77
 1018 124 1018 124 1017.5 129 c 128,-1,78
 1017 134 1017 134 1015 142 c 2,79,-1
 942 408 l 1,0,-1
434 494 m 1,80,-1
 919 494 l 1,81,-1
 747 1126 l 1,82,-1
 434 494 l 1,80,-1
878 1498 m 256,83,84
 921 1498 921 1498 951 1509.5 c 128,-1,85
 981 1521 981 1521 1001 1540.5 c 128,-1,86
 1021 1560 1021 1560 1032 1586.5 c 128,-1,87
 1043 1613 1043 1613 1047 1642 c 256,88,89
 1051 1671 1051 1671 1047.5 1697 c 128,-1,90
 1044 1723 1044 1723 1029.5 1742.5 c 128,-1,91
 1015 1762 1015 1762 988 1773 c 128,-1,92
 961 1784 961 1784 918 1784 c 256,93,94
 875 1784 875 1784 845 1772.5 c 128,-1,95
 815 1761 815 1761 795.5 1741.5 c 128,-1,96
 776 1722 776 1722 765 1695.5 c 128,-1,97
 754 1669 754 1669 750 1640 c 256,98,99
 746 1611 746 1611 749.5 1585 c 128,-1,100
 753 1559 753 1559 767 1539.5 c 128,-1,101
 781 1520 781 1520 808 1509 c 128,-1,102
 835 1498 835 1498 878 1498 c 256,83,84
EndSplineSet
EndChar

StartChar: Ccedilla
Encoding: 199 199 99
Width: 1464
Flags: W
LayerCount: 2
Fore
SplineSet
664 -23 m 1,0,1
 530 -8 530 -8 424 39 c 128,-1,2
 318 86 318 86 243 161.5 c 128,-1,3
 168 237 168 237 126 341 c 128,-1,4
 84 445 84 445 78 574 c 0,5,6
 71 713 71 713 101 831.5 c 128,-1,7
 131 950 131 950 189.5 1047.5 c 128,-1,8
 248 1145 248 1145 331 1220 c 128,-1,9
 414 1295 414 1295 515.5 1345.5 c 128,-1,10
 617 1396 617 1396 731.5 1422.5 c 128,-1,11
 846 1449 846 1449 968 1449 c 0,12,13
 1067 1449 1067 1449 1145.5 1439.5 c 128,-1,14
 1224 1430 1224 1430 1283.5 1416.5 c 128,-1,15
 1343 1403 1343 1403 1384 1388 c 128,-1,16
 1425 1373 1425 1373 1449 1361 c 1,17,-1
 1411 1051 l 1,18,19
 1411 1039 1411 1039 1401.5 1031.5 c 128,-1,20
 1392 1024 1392 1024 1380 1019 c 128,-1,21
 1368 1014 1368 1014 1356 1012 c 128,-1,22
 1344 1010 1344 1010 1338 1010 c 0,23,24
 1324 1010 1324 1010 1311.5 1021 c 128,-1,25
 1299 1032 1299 1032 1297 1049 c 1,26,27
 1304 1198 1304 1198 1217.5 1275.5 c 128,-1,28
 1131 1353 1131 1353 954 1353 c 0,29,30
 893 1353 893 1353 830 1332.5 c 128,-1,31
 767 1312 767 1312 709 1269.5 c 128,-1,32
 651 1227 651 1227 601 1161.5 c 128,-1,33
 551 1096 551 1096 515.5 1005.5 c 128,-1,34
 480 915 480 915 461.5 799.5 c 128,-1,35
 443 684 443 684 448 542 c 0,36,37
 452 444 452 444 469.5 370 c 128,-1,38
 487 296 487 296 514 243 c 128,-1,39
 541 190 541 190 575 155.5 c 128,-1,40
 609 121 609 121 646 101 c 128,-1,41
 683 81 683 81 720 73 c 128,-1,42
 757 65 757 65 790 65 c 0,43,44
 879 65 879 65 945.5 90 c 128,-1,45
 1012 115 1012 115 1062.5 157.5 c 128,-1,46
 1113 200 1113 200 1151 255.5 c 128,-1,47
 1189 311 1189 311 1221 373 c 0,48,49
 1231 392 1231 392 1238.5 399 c 128,-1,50
 1246 406 1246 406 1263 406 c 0,51,52
 1269 406 1269 406 1281.5 404 c 128,-1,53
 1294 402 1294 402 1306.5 398.5 c 128,-1,54
 1319 395 1319 395 1329 389 c 128,-1,55
 1339 383 1339 383 1339 375 c 2,56,-1
 1339 372 l 1,57,-1
 1268 98 l 2,58,59
 1265 87 1265 87 1228 66.5 c 128,-1,60
 1191 46 1191 46 1129 25 c 128,-1,61
 1067 4 1067 4 984 -12.5 c 128,-1,62
 901 -29 901 -29 805 -30 c 1,63,-1
 789 -97 l 1,64,65
 881 -111 881 -111 933.5 -151.5 c 128,-1,66
 986 -192 986 -192 986 -246 c 0,67,68
 986 -285 986 -285 970 -314.5 c 128,-1,69
 954 -344 954 -344 927 -365 c 128,-1,70
 900 -386 900 -386 865.5 -400 c 128,-1,71
 831 -414 831 -414 793 -422 c 128,-1,72
 755 -430 755 -430 717 -433 c 128,-1,73
 679 -436 679 -436 646 -436 c 0,74,75
 586 -436 586 -436 538.5 -428 c 128,-1,76
 491 -420 491 -420 453 -408 c 0,77,78
 442 -405 442 -405 433.5 -392.5 c 128,-1,79
 425 -380 425 -380 427 -369 c 0,80,81
 430 -349 430 -349 433 -338 c 128,-1,82
 436 -327 436 -327 449 -325 c 0,83,84
 467 -323 467 -323 500 -325.5 c 128,-1,85
 533 -328 533 -328 569 -328 c 0,86,87
 591 -328 591 -328 618 -324.5 c 128,-1,88
 645 -321 645 -321 668.5 -310.5 c 128,-1,89
 692 -300 692 -300 707.5 -281 c 128,-1,90
 723 -262 723 -262 723 -231 c 0,91,92
 723 -202 723 -202 706.5 -185.5 c 128,-1,93
 690 -169 690 -169 670 -160 c 0,94,95
 646 -149 646 -149 617 -145 c 1,96,-1
 617 -144 l 1,97,-1
 664 -23 l 1,0,1
EndSplineSet
EndChar

StartChar: ccedilla
Encoding: 231 231 110
Width: 1098
Flags: W
LayerCount: 2
Fore
SplineSet
486 -26 m 1,0,1
 386 -19 386 -19 308.5 15 c 128,-1,2
 231 49 231 49 178 106 c 128,-1,3
 125 163 125 163 97.5 240 c 128,-1,4
 70 317 70 317 70 411 c 0,5,6
 70 539 70 539 119 649 c 128,-1,7
 168 759 168 759 254 840 c 128,-1,8
 340 921 340 921 456 967.5 c 128,-1,9
 572 1014 572 1014 706 1014 c 0,10,11
 895 1014 895 1014 984.5 955.5 c 128,-1,12
 1074 897 1074 897 1074 787 c 0,13,14
 1074 756 1074 756 1052 732.5 c 128,-1,15
 1030 709 1030 709 997.5 693.5 c 128,-1,16
 965 678 965 678 928 670 c 128,-1,17
 891 662 891 662 860 662 c 0,18,19
 845 662 845 662 835.5 662.5 c 128,-1,20
 826 663 826 663 819.5 666.5 c 128,-1,21
 813 670 813 670 808.5 679 c 128,-1,22
 804 688 804 688 800 705 c 2,23,-1
 746 914 l 1,24,25
 737 922 737 922 713 927.5 c 128,-1,26
 689 933 689 933 660 933 c 0,27,28
 614 933 614 933 570 896 c 128,-1,29
 526 859 526 859 492 789.5 c 128,-1,30
 458 720 458 720 437.5 619 c 128,-1,31
 417 518 417 518 417 390 c 0,32,33
 417 315 417 315 436.5 262.5 c 128,-1,34
 456 210 456 210 488.5 177 c 128,-1,35
 521 144 521 144 563 129.5 c 128,-1,36
 605 115 605 115 649 115 c 0,37,38
 692 115 692 115 729 122.5 c 128,-1,39
 766 130 766 130 800.5 145 c 128,-1,40
 835 160 835 160 868 182.5 c 128,-1,41
 901 205 901 205 936 235 c 1,42,43
 941 241 941 241 946 245.5 c 128,-1,44
 951 250 951 250 958 245 c 2,45,-1
 995 212 l 2,46,47
 1000 208 1000 208 1000 204 c 128,-1,48
 1000 200 1000 200 998 196.5 c 128,-1,49
 996 193 996 193 993 190 c 128,-1,50
 990 187 990 187 989 184 c 1,51,52
 923 104 923 104 834 50 c 128,-1,53
 745 -4 745 -4 630 -21 c 1,54,-1
 612 -97 l 1,55,56
 704 -111 704 -111 756.5 -151.5 c 128,-1,57
 809 -192 809 -192 809 -246 c 0,58,59
 809 -285 809 -285 793 -314.5 c 128,-1,60
 777 -344 777 -344 750 -365 c 128,-1,61
 723 -386 723 -386 688.5 -400 c 128,-1,62
 654 -414 654 -414 616 -422 c 128,-1,63
 578 -430 578 -430 540 -433 c 128,-1,64
 502 -436 502 -436 469 -436 c 0,65,66
 409 -436 409 -436 361.5 -428 c 128,-1,67
 314 -420 314 -420 276 -408 c 0,68,69
 265 -405 265 -405 256.5 -392.5 c 128,-1,70
 248 -380 248 -380 250 -369 c 0,71,72
 253 -349 253 -349 256 -338 c 128,-1,73
 259 -327 259 -327 272 -325 c 0,74,75
 290 -323 290 -323 323 -325.5 c 128,-1,76
 356 -328 356 -328 392 -328 c 0,77,78
 414 -328 414 -328 441 -324.5 c 128,-1,79
 468 -321 468 -321 491.5 -310.5 c 128,-1,80
 515 -300 515 -300 530.5 -281 c 128,-1,81
 546 -262 546 -262 546 -231 c 0,82,83
 546 -202 546 -202 529.5 -185.5 c 128,-1,84
 513 -169 513 -169 493 -160 c 0,85,86
 469 -149 469 -149 440 -145 c 1,87,-1
 440 -144 l 1,88,-1
 486 -26 l 1,0,1
EndSplineSet
EndChar

StartChar: dagger
Encoding: 8224 8224 129
Width: 987
GlyphClass: 2
Flags: W
LayerCount: 2
Fore
SplineSet
348 117 m 0,0,1
 349 122 349 122 356.5 162.5 c 128,-1,2
 364 203 364 203 376.5 266 c 128,-1,3
 389 329 389 329 404.5 409 c 128,-1,4
 420 489 420 489 436 572.5 c 128,-1,5
 452 656 452 656 468 737 c 128,-1,6
 484 818 484 818 497.5 884.5 c 128,-1,7
 511 951 511 951 520 996.5 c 128,-1,8
 529 1042 529 1042 532 1053 c 1,9,10
 511 1050 511 1050 470.5 1040 c 128,-1,11
 430 1030 430 1030 387.5 1019.5 c 128,-1,12
 345 1009 345 1009 310 1000.5 c 128,-1,13
 275 992 275 992 265 992 c 0,14,15
 215 992 215 992 185.5 1021.5 c 128,-1,16
 156 1051 156 1051 163 1101 c 0,17,18
 171 1151 171 1151 207.5 1176 c 128,-1,19
 244 1201 244 1201 294 1201 c 0,20,21
 304 1201 304 1201 336.5 1191.5 c 128,-1,22
 369 1182 369 1182 408 1169.5 c 128,-1,23
 447 1157 447 1157 484.5 1145 c 128,-1,24
 522 1133 522 1133 542 1129 c 1,25,26
 541 1144 541 1144 539 1170.5 c 128,-1,27
 537 1197 537 1197 534.5 1229.5 c 128,-1,28
 532 1262 532 1262 529.5 1296.5 c 128,-1,29
 527 1331 527 1331 525.5 1360.5 c 128,-1,30
 524 1390 524 1390 523 1411.5 c 128,-1,31
 522 1433 522 1433 523 1440 c 0,32,33
 530 1490 530 1490 564.5 1523.5 c 128,-1,34
 599 1557 599 1557 650 1557 c 0,35,36
 699 1557 699 1557 725 1523.5 c 128,-1,37
 751 1490 751 1490 744 1440 c 0,38,39
 743 1433 743 1433 736 1411.5 c 128,-1,40
 729 1390 729 1390 718.5 1360.5 c 128,-1,41
 708 1331 708 1331 695.5 1296.5 c 128,-1,42
 683 1262 683 1262 671 1229.5 c 128,-1,43
 659 1197 659 1197 649.5 1170 c 128,-1,44
 640 1143 640 1143 636 1129 c 1,45,46
 650 1132 650 1132 674 1138.5 c 128,-1,47
 698 1145 698 1145 725 1153 c 128,-1,48
 752 1161 752 1161 781 1169.5 c 128,-1,49
 810 1178 810 1178 835 1185 c 128,-1,50
 860 1192 860 1192 878.5 1196.5 c 128,-1,51
 897 1201 897 1201 904 1201 c 0,52,53
 953 1201 953 1201 983 1175.5 c 128,-1,54
 1013 1150 1013 1150 1006 1101 c 0,55,56
 999 1051 999 1051 961.5 1021.5 c 128,-1,57
 924 992 924 992 875 992 c 0,58,59
 864 992 864 992 831.5 1000 c 128,-1,60
 799 1008 799 1008 759.5 1018.5 c 128,-1,61
 720 1029 720 1029 682.5 1039 c 128,-1,62
 645 1049 645 1049 625 1053 c 1,63,64
 624 1040 624 1040 620.5 994.5 c 128,-1,65
 617 949 617 949 612 882.5 c 128,-1,66
 607 816 607 816 600 734.5 c 128,-1,67
 593 653 593 653 586 570 c 128,-1,68
 579 487 579 487 572 407.5 c 128,-1,69
 565 328 565 328 559.5 265 c 128,-1,70
 554 202 554 202 550.5 162 c 128,-1,71
 547 122 547 122 546 117 c 0,72,73
 539 67 539 67 510 33.5 c 128,-1,74
 481 0 481 0 432 0 c 0,75,76
 382 0 382 0 361.5 33.5 c 128,-1,77
 341 67 341 67 348 117 c 0,0,1
EndSplineSet
EndChar

StartChar: degree
Encoding: 176 176 130
Width: 860
GlyphClass: 2
Flags: W
LayerCount: 2
Fore
SplineSet
169 1113 m 256,0,1
 169 1188 169 1188 194 1250.5 c 128,-1,2
 219 1313 219 1313 264.5 1357 c 128,-1,3
 310 1401 310 1401 373 1425.5 c 128,-1,4
 436 1450 436 1450 512 1450 c 256,5,6
 588 1450 588 1450 650 1425.5 c 128,-1,7
 712 1401 712 1401 756 1357 c 128,-1,8
 800 1313 800 1313 824.5 1250.5 c 128,-1,9
 849 1188 849 1188 849 1113 c 256,10,11
 849 1038 849 1038 824 975.5 c 128,-1,12
 799 913 799 913 754 868 c 128,-1,13
 709 823 709 823 646.5 798.5 c 128,-1,14
 584 774 584 774 508 774 c 256,15,16
 432 774 432 774 369.5 798.5 c 128,-1,17
 307 823 307 823 262.5 868 c 128,-1,18
 218 913 218 913 193.5 975.5 c 128,-1,19
 169 1038 169 1038 169 1113 c 256,0,1
311 1113 m 0,20,21
 311 1056 311 1056 325.5 1013 c 128,-1,22
 340 970 340 970 366 941.5 c 128,-1,23
 392 913 392 913 428.5 898.5 c 128,-1,24
 465 884 465 884 510 884 c 0,25,26
 599 884 599 884 653 941 c 128,-1,27
 707 998 707 998 707 1113 c 0,28,29
 707 1170 707 1170 692.5 1213 c 128,-1,30
 678 1256 678 1256 651.5 1284 c 128,-1,31
 625 1312 625 1312 588 1326 c 128,-1,32
 551 1340 551 1340 507 1340 c 0,33,34
 417 1340 417 1340 364 1284 c 128,-1,35
 311 1228 311 1228 311 1113 c 0,20,21
EndSplineSet
EndChar

StartChar: cent
Encoding: 162 162 131
Width: 1239
GlyphClass: 2
Flags: W
LayerCount: 2
Fore
SplineSet
502 -25 m 2,0,1
 503 -23 503 -23 504 -22.5 c 128,-1,2
 505 -22 505 -22 506 -21 c 1,3,4
 417 -9 417 -9 347.5 27 c 128,-1,5
 278 63 278 63 231 119 c 128,-1,6
 184 175 184 175 159.5 248.5 c 128,-1,7
 135 322 135 322 135 411 c 0,8,9
 135 529 135 529 177 632.5 c 128,-1,10
 219 736 219 736 293.5 815 c 128,-1,11
 368 894 368 894 470 945 c 128,-1,12
 572 996 572 996 691 1009 c 1,13,-1
 722 1225 l 1,14,-1
 828 1225 l 1,15,-1
 798 1014 l 1,16,17
 973 1009 973 1009 1056 951 c 128,-1,18
 1139 893 1139 893 1139 787 c 0,19,20
 1139 756 1139 756 1117 732.5 c 128,-1,21
 1095 709 1095 709 1062.5 693.5 c 128,-1,22
 1030 678 1030 678 993 670 c 128,-1,23
 956 662 956 662 925 662 c 0,24,25
 910 662 910 662 900.5 662.5 c 128,-1,26
 891 663 891 663 884.5 666.5 c 128,-1,27
 878 670 878 670 873.5 679 c 128,-1,28
 869 688 869 688 865 705 c 2,29,-1
 811 914 l 1,30,31
 802 922 802 922 778 927.5 c 128,-1,32
 754 933 754 933 725 933 c 0,33,34
 679 933 679 933 635 896 c 128,-1,35
 591 859 591 859 557 789.5 c 128,-1,36
 523 720 523 720 502.5 619 c 128,-1,37
 482 518 482 518 482 390 c 0,38,39
 482 315 482 315 501.5 262.5 c 128,-1,40
 521 210 521 210 553.5 177 c 128,-1,41
 586 144 586 144 628 129.5 c 128,-1,42
 670 115 670 115 714 115 c 0,43,44
 757 115 757 115 794 122.5 c 128,-1,45
 831 130 831 130 865.5 145 c 128,-1,46
 900 160 900 160 933 182.5 c 128,-1,47
 966 205 966 205 1001 235 c 1,48,49
 1006 241 1006 241 1011 245.5 c 128,-1,50
 1016 250 1016 250 1023 245 c 2,51,-1
 1060 212 l 2,52,53
 1065 208 1065 208 1065 204 c 128,-1,54
 1065 200 1065 200 1063 196.5 c 128,-1,55
 1061 193 1061 193 1058 190 c 128,-1,56
 1055 187 1055 187 1054 184 c 1,57,58
 976 90 976 90 865.5 32 c 128,-1,59
 755 -26 755 -26 608 -28 c 1,60,-1
 579 -228 l 1,61,-1
 473 -228 l 1,62,-1
 502 -25 l 2,0,1
EndSplineSet
EndChar

StartChar: sterling
Encoding: 163 163 132
Width: 1413
GlyphClass: 2
Flags: W
LayerCount: 2
Fore
SplineSet
-12 91 m 0,0,1
 -12 131 -12 131 11 156.5 c 128,-1,2
 34 182 34 182 72 198 c 128,-1,3
 110 214 110 214 159 221 c 128,-1,4
 208 228 208 228 261 230 c 1,5,6
 275 254 275 254 291 299.5 c 128,-1,7
 307 345 307 345 321.5 405 c 128,-1,8
 336 465 336 465 347.5 536 c 128,-1,9
 359 607 359 607 365 681 c 1,10,-1
 155 681 l 1,11,12
 143 682 143 682 139.5 696 c 128,-1,13
 136 710 136 710 138 722 c 0,14,15
 141 741 141 741 150.5 756 c 128,-1,16
 160 771 160 771 171 776 c 1,17,-1
 381 776 l 1,18,-1
 397 871 l 1,19,20
 414 955 414 955 437 1030.5 c 128,-1,21
 460 1106 460 1106 494 1170 c 128,-1,22
 528 1234 528 1234 575 1285.5 c 128,-1,23
 622 1337 622 1337 687 1373 c 128,-1,24
 752 1409 752 1409 838.5 1428.5 c 128,-1,25
 925 1448 925 1448 1038 1448 c 0,26,27
 1115 1448 1115 1448 1172 1428.5 c 128,-1,28
 1229 1409 1229 1409 1266.5 1378 c 128,-1,29
 1304 1347 1304 1347 1322 1308.5 c 128,-1,30
 1340 1270 1340 1270 1340 1233 c 0,31,32
 1340 1195 1340 1195 1332.5 1169 c 128,-1,33
 1325 1143 1325 1143 1312 1127.5 c 128,-1,34
 1299 1112 1299 1112 1281 1105.5 c 128,-1,35
 1263 1099 1263 1099 1242 1099 c 0,36,37
 1218 1099 1218 1099 1192.5 1103 c 128,-1,38
 1167 1107 1167 1107 1155 1128 c 2,39,-1
 1031 1350 l 1,40,41
 1023 1354 1023 1354 1017 1357 c 128,-1,42
 1011 1360 1011 1360 1003.5 1362 c 128,-1,43
 996 1364 996 1364 985 1365 c 128,-1,44
 974 1366 974 1366 957 1366 c 0,45,46
 913 1366 913 1366 879.5 1342.5 c 128,-1,47
 846 1319 846 1319 820 1264 c 128,-1,48
 794 1209 794 1209 773 1118.5 c 128,-1,49
 752 1028 752 1028 733 893 c 2,50,-1
 717 776 l 1,51,-1
 980 776 l 1,52,53
 992 775 992 775 996.5 764 c 128,-1,54
 1001 753 1001 753 999 741 c 1,55,56
 994 722 994 722 984.5 704 c 128,-1,57
 975 686 975 686 964 681 c 1,58,-1
 702 681 l 1,59,-1
 676 555 l 2,60,61
 658 467 658 467 630.5 405.5 c 128,-1,62
 603 344 603 344 571.5 300.5 c 128,-1,63
 540 257 540 257 507 228 c 128,-1,64
 474 199 474 199 444 176 c 1,65,66
 477 161 477 161 509.5 146.5 c 128,-1,67
 542 132 542 132 578.5 120 c 128,-1,68
 615 108 615 108 658 99.5 c 128,-1,69
 701 91 701 91 755 88 c 0,70,71
 825 85 825 85 886 94.5 c 128,-1,72
 947 104 947 104 994.5 122.5 c 128,-1,73
 1042 141 1042 141 1075.5 166 c 128,-1,74
 1109 191 1109 191 1124 220 c 1,75,-1
 1071 444 l 1,76,77
 1077 462 1077 462 1091 477 c 0,78,79
 1103 489 1103 489 1123.5 499.5 c 128,-1,80
 1144 510 1144 510 1179 510 c 0,81,82
 1231 510 1231 510 1265.5 490 c 128,-1,83
 1300 470 1300 470 1320 439 c 128,-1,84
 1340 408 1340 408 1348.5 371.5 c 128,-1,85
 1357 335 1357 335 1357 301 c 0,86,87
 1357 214 1357 214 1308.5 153.5 c 128,-1,88
 1260 93 1260 93 1183.5 55.5 c 128,-1,89
 1107 18 1107 18 1013.5 1 c 128,-1,90
 920 -16 920 -16 830 -16 c 0,91,92
 748 -16 748 -16 685.5 -7 c 128,-1,93
 623 2 623 2 575 16 c 128,-1,94
 527 30 527 30 491.5 46 c 128,-1,95
 456 62 456 62 427.5 76 c 128,-1,96
 399 90 399 90 376.5 100 c 128,-1,97
 354 110 354 110 332 111 c 1,98,99
 296 80 296 80 268.5 59 c 128,-1,100
 241 38 241 38 214 25 c 128,-1,101
 187 12 187 12 158.5 6 c 128,-1,102
 130 0 130 0 93 0 c 0,103,104
 73 0 73 0 54 6 c 128,-1,105
 35 12 35 12 20.5 23.5 c 128,-1,106
 6 35 6 35 -3 52 c 128,-1,107
 -12 69 -12 69 -12 91 c 0,0,1
EndSplineSet
EndChar

StartChar: section
Encoding: 167 167 133
Width: 1153
GlyphClass: 2
Flags: W
LayerCount: 2
Fore
SplineSet
134 615 m 0,0,1
 138 651 138 651 155 691 c 128,-1,2
 172 731 172 731 201.5 770.5 c 128,-1,3
 231 810 231 810 273.5 847 c 128,-1,4
 316 884 316 884 373 914 c 1,5,6
 336 961 336 961 314.5 1009 c 128,-1,7
 293 1057 293 1057 295 1108 c 0,8,9
 299 1184 299 1184 336.5 1247 c 128,-1,10
 374 1310 374 1310 436.5 1355 c 128,-1,11
 499 1400 499 1400 581.5 1424.5 c 128,-1,12
 664 1449 664 1449 757 1449 c 0,13,14
 832 1449 832 1449 889.5 1432 c 128,-1,15
 947 1415 947 1415 985.5 1389.5 c 128,-1,16
 1024 1364 1024 1364 1043 1334 c 128,-1,17
 1062 1304 1062 1304 1061 1278 c 1,18,19
 1057 1249 1057 1249 1041.5 1226.5 c 128,-1,20
 1026 1204 1026 1204 1003.5 1188 c 128,-1,21
 981 1172 981 1172 955 1162 c 128,-1,22
 929 1152 929 1152 904.5 1147.5 c 128,-1,23
 880 1143 880 1143 859.5 1144 c 128,-1,24
 839 1145 839 1145 829 1150 c 1,25,26
 821 1156 821 1156 811.5 1176.5 c 128,-1,27
 802 1197 802 1197 791.5 1225.5 c 128,-1,28
 781 1254 781 1254 768.5 1288.5 c 128,-1,29
 756 1323 756 1323 742 1356 c 1,30,31
 668 1351 668 1351 622.5 1303 c 128,-1,32
 577 1255 577 1255 575 1180 c 0,33,34
 574 1147 574 1147 592.5 1114 c 128,-1,35
 611 1081 611 1081 641.5 1048 c 128,-1,36
 672 1015 672 1015 712.5 980 c 128,-1,37
 753 945 753 945 796.5 907 c 128,-1,38
 840 869 840 869 883.5 828 c 128,-1,39
 927 787 927 787 965 741 c 0,40,41
 1003 694 1003 694 1020 634.5 c 128,-1,42
 1037 575 1037 575 1027 505 c 0,43,44
 1022 469 1022 469 1005.5 428.5 c 128,-1,45
 989 388 989 388 960 347.5 c 128,-1,46
 931 307 931 307 889 268.5 c 128,-1,47
 847 230 847 230 793 199 c 1,48,49
 828 154 828 154 848 107.5 c 128,-1,50
 868 61 868 61 866 12 c 1,51,52
 861 -64 861 -64 825 -128.5 c 128,-1,53
 789 -193 789 -193 729 -239.5 c 128,-1,54
 669 -286 669 -286 589 -312.5 c 128,-1,55
 509 -339 509 -339 418 -339 c 0,56,57
 347 -339 347 -339 292.5 -319.5 c 128,-1,58
 238 -300 238 -300 201 -271.5 c 128,-1,59
 164 -243 164 -243 145.5 -210.5 c 128,-1,60
 127 -178 127 -178 129 -152 c 1,61,62
 129 -123 129 -123 144 -100.5 c 128,-1,63
 159 -78 159 -78 182.5 -62 c 128,-1,64
 206 -46 206 -46 234.5 -36 c 128,-1,65
 263 -26 263 -26 289.5 -21.5 c 128,-1,66
 316 -17 316 -17 338 -18 c 128,-1,67
 360 -19 360 -19 370 -24 c 1,68,69
 379 -30 379 -30 388 -51.5 c 128,-1,70
 397 -73 397 -73 407.5 -103 c 128,-1,71
 418 -133 418 -133 429.5 -168 c 128,-1,72
 441 -203 441 -203 454 -236 c 1,73,74
 487 -233 487 -233 514.5 -219 c 128,-1,75
 542 -205 542 -205 561.5 -182 c 128,-1,76
 581 -159 581 -159 592.5 -128 c 128,-1,77
 604 -97 604 -97 606 -60 c 0,78,79
 608 -27 608 -27 589.5 5.5 c 128,-1,80
 571 38 571 38 538.5 71.5 c 128,-1,81
 506 105 506 105 463 140 c 128,-1,82
 420 175 420 175 374 212.5 c 128,-1,83
 328 250 328 250 282 291.5 c 128,-1,84
 236 333 236 333 197 379 c 256,85,86
 158 425 158 425 141.5 485 c 128,-1,87
 125 545 125 545 134 615 c 0,0,1
486 498 m 0,88,89
 531 451 531 451 589 402 c 128,-1,90
 647 353 647 353 702 299 c 1,91,92
 716 323 716 323 727.5 346 c 128,-1,93
 739 369 739 369 745 386 c 0,94,95
 757 423 757 423 754 458 c 128,-1,96
 751 493 751 493 739 523.5 c 128,-1,97
 727 554 727 554 709.5 579 c 128,-1,98
 692 604 692 604 675 622 c 0,99,100
 630 668 630 668 573.5 716.5 c 128,-1,101
 517 765 517 765 463 817 c 1,102,103
 448 791 448 791 435 766.5 c 128,-1,104
 422 742 422 742 417 724 c 0,105,106
 405 687 405 687 407.5 653.5 c 128,-1,107
 410 620 410 620 422 591.5 c 128,-1,108
 434 563 434 563 451.5 539.5 c 128,-1,109
 469 516 469 516 486 498 c 0,88,89
EndSplineSet
EndChar

StartChar: bullet
Encoding: 8226 8226 134
Width: 895
GlyphClass: 2
Flags: W
LayerCount: 2
Fore
SplineSet
421 292 m 0,0,1
 374 292 374 292 333.5 310 c 128,-1,2
 293 328 293 328 263 359.5 c 128,-1,3
 233 391 233 391 216 434.5 c 128,-1,4
 199 478 199 478 199 529 c 0,5,6
 199 585 199 585 220 637.5 c 128,-1,7
 241 690 241 690 280 731 c 128,-1,8
 319 772 319 772 373.5 797 c 128,-1,9
 428 822 428 822 495 822 c 0,10,11
 541 822 541 822 582 804 c 128,-1,12
 623 786 623 786 653 754.5 c 128,-1,13
 683 723 683 723 700.5 679 c 128,-1,14
 718 635 718 635 718 584 c 0,15,16
 718 528 718 528 697 475.5 c 128,-1,17
 676 423 676 423 637 382 c 128,-1,18
 598 341 598 341 543 316.5 c 128,-1,19
 488 292 488 292 421 292 c 0,0,1
EndSplineSet
EndChar

